<svg width="86" height="111" viewBox="0 0 86 111" fill="none" xmlns="http://www.w3.org/2000/svg">
<path d="M85.3607 67.294C85.4957 90.865 66.4957 110.082 42.9237 110.217C19.3527 110.351 0.135715 91.352 0.000714974 67.781C-0.134285 44.21 18.8657 24.992 42.4367 24.858C66.0087 24.723 85.2257 43.723 85.3607 67.294Z" fill="#5AB8AA"/>
<path d="M0.110687 64.452C8.06669 56.808 18.1177 50.215 30.7747 45.553C31.8327 45.166 33.2447 44.704 34.8787 44.18C42.2097 41.864 54.3897 38.016 66.5607 32.161C60.6957 28.194 53.7927 25.649 46.3497 25.015C40.6867 27.156 35.4917 28.867 31.4677 30.258C29.7277 30.86 28.2257 31.395 26.9727 31.895C20.4237 34.507 14.4807 37.69 9.08969 41.207C3.99069 47.706 0.734687 55.717 0.110687 64.452Z" fill="#02826B"/>
<path d="M10.0007 94.988C18.3027 87.105 28.9767 80.775 42.6097 76.171C43.6697 75.815 45.0827 75.39 46.7187 74.897C55.3157 72.445 70.5197 67.286 84.4757 58.853C83.5157 54.204 81.7977 49.834 79.4617 45.874C66.7907 53.661 52.2147 58.205 43.3047 60.797C41.5617 61.318 40.0557 61.773 38.7997 62.2C23.9737 67.267 12.1747 74.578 2.8457 82.878C4.5567 87.322 6.9887 91.407 10.0007 94.988Z" fill="#02826B"/>
<path d="M55.1367 91.436C53.3957 92.003 51.8927 92.485 50.6367 92.93C40.3907 96.566 31.5547 100.922 23.9657 105.902C29.6877 108.698 36.1237 110.255 42.9227 110.216C44.0907 110.209 45.2447 110.154 46.3887 110.055C48.9547 108.9 51.6377 107.794 54.4427 106.728C55.5007 106.326 56.9107 105.838 58.5437 105.258C61.3637 104.271 64.8927 102.958 68.8487 101.252C76.0117 95.684 81.3517 87.887 83.8277 78.908C73.2767 85.187 62.3587 89.169 55.1367 91.436Z" fill="#02826B"/>
<path d="M6.90369 58.343L6.3717 58.24C8.3127 48.236 14.8367 39.395 23.8227 34.589L24.0787 35.067C15.2347 39.797 8.81469 48.498 6.90369 58.343Z" fill="#5A150E"/>
<path d="M9.6727 55.333L9.15369 55.177C11.2707 48.128 15.9957 41.742 22.1177 37.657L22.4187 38.108C16.3997 42.124 11.7537 48.403 9.6727 55.333Z" fill="#5A150E"/>
<path d="M12.7047 53.885L12.1837 53.734C13.6957 48.514 16.9587 43.891 21.3717 40.718L21.6877 41.158C17.3737 44.262 14.1837 48.782 12.7047 53.885Z" fill="#5A150E"/>
<path d="M65.1447 97.468L64.8427 97.018C72.4327 91.93 77.9677 83.907 80.0267 75.004L80.5547 75.126C78.4657 84.161 72.8487 92.304 65.1447 97.468Z" fill="#5A150E"/>
<path d="M67.7887 93.622L67.4477 93.2C72.4037 89.198 76.0387 83.606 77.6827 77.452L78.2067 77.592C76.5337 83.857 72.8337 89.549 67.7887 93.622Z" fill="#5A150E"/>
<path d="M69.5707 89.684L69.1887 89.3C71.1987 87.299 72.7317 84.818 73.6197 82.124L74.1347 82.294C73.2197 85.068 71.6417 87.623 69.5707 89.684Z" fill="#5A150E"/>
<path d="M29.5827 15.387L29.3527 29.328C29.3357 30.38 36.2227 31.348 44.7357 31.488C53.2487 31.628 60.1647 30.89 60.1817 29.837L60.4117 15.896L29.5827 15.387Z" fill="#FFB631"/>
<path d="M60.4154 15.8738C60.4328 14.8212 53.5451 13.8541 45.0314 13.7136C36.5177 13.5731 29.6019 14.3125 29.5845 15.365C29.5671 16.4176 36.4548 17.3847 44.9685 17.5252C53.4822 17.6657 60.398 16.9263 60.4154 15.8738Z" fill="#FFCD70"/>
<path d="M45.1757 4.82598C42.9607 4.78898 41.1297 6.56099 41.0927 8.77599L40.9747 15.926L42.1497 15.945L42.2197 11.738L42.2507 11.739L42.2997 8.79598C42.3257 7.24698 43.6067 6.00697 45.1567 6.03197C46.7057 6.05797 47.9457 7.33899 47.9197 8.88799L47.8707 11.831L47.8207 14.832L47.8007 16.038L49.0067 16.058L49.1247 8.90798C49.1627 6.69398 47.3907 4.86198 45.1757 4.82598Z" fill="#FFCD70"/>
<path d="M65.5147 3.147C64.3677 1.327 61.9917 0.0330071 59.7367 0.00100708C59.6917 7.08003e-06 59.6477 0 59.6027 0C56.3047 0 52.5847 1.72699 49.1127 4.87399C47.0297 6.76099 45.1727 9.03301 43.8157 11.307C40.2387 7.52101 35.9147 4.578 30.0897 6.591C27.9577 7.328 26.1057 9.3 25.5867 11.388C25.1887 12.987 25.5887 14.533 26.7127 15.74C27.9107 17.025 30.3287 17.63 34.2987 17.629C34.5017 17.629 34.7097 17.627 34.9207 17.624C38.0907 17.577 41.3907 17.182 43.1637 16.97C43.1637 16.97 45.6237 16.613 46.1577 16.475C49.9007 15.506 52.9487 14.481 56.2537 13.413C56.5037 13.332 56.7677 13.249 57.0437 13.163C60.1107 12.2 64.3097 10.882 65.8057 7.633C66.4977 6.134 66.3937 4.541 65.5147 3.147ZM28.8677 13.731C28.4207 13.252 28.2867 12.733 28.4447 12.098C28.7227 10.979 29.8687 9.78199 31.0517 9.37299C32.0057 9.04299 32.9087 8.88599 33.7767 8.88599C36.8217 8.88599 39.9667 12.058 42.9017 15.328C33.0867 17.048 29.0267 13.902 28.8677 13.731ZM63.1337 6.39999C62.1837 8.46199 58.8727 10.318 56.4757 11.07C56.1917 11.159 49.2947 14.273 46.2247 14.94C48.7127 9.534 54.7507 3.71201 59.8597 3.71201C59.8937 3.71201 62.4107 3.74201 63.0247 4.71701C63.3727 5.27001 63.4077 5.80499 63.1337 6.39999Z" fill="#FF171F"/>
<path d="M59.1897 3.74499C59.4147 3.72399 59.6377 3.712 59.8587 3.712C59.8927 3.712 62.4097 3.742 63.0237 4.717C63.3727 5.27 63.4077 5.80499 63.1327 6.39999C62.1827 8.46199 58.8717 10.318 56.4747 11.07C56.1907 11.159 49.2937 14.273 46.2237 14.94C60.6817 12.572 63.7267 8.268 63.7267 8.268C68.5597 2.312 59.1897 3.74499 59.1897 3.74499Z" fill="#DE0008"/>
<path d="M44.2127 16.222L42.9017 15.328C33.0867 17.047 29.0267 13.901 28.8677 13.731C28.4207 13.252 28.2867 12.733 28.4447 12.098C28.7227 10.979 29.8687 9.78198 31.0517 9.37298C32.0057 9.04298 32.9087 8.88598 33.7767 8.88598C34.7117 8.88598 35.6567 9.186 36.6017 9.695C30.0647 6.127 27.6427 11.86 27.6427 11.86C25.4437 19.37 44.2127 16.222 44.2127 16.222Z" fill="#DE0008"/>
<path opacity="0.5" d="M51.6037 13.107C49.6627 13.881 47.5737 14.647 46.2247 14.94C47.1637 12.898 48.6097 10.798 50.3207 8.97401C49.5007 8.18101 48.2047 7.72802 46.2077 7.92802C45.3077 9.02102 44.4987 10.164 43.8167 11.307C43.3697 10.834 42.9107 10.374 42.4387 9.93501C42.6677 11.146 42.8597 12.986 42.4597 14.838C42.6077 15.001 42.7557 15.165 42.9027 15.329C42.7027 15.364 42.5067 15.396 42.3117 15.427C42.1427 16.015 41.9067 16.597 41.5877 17.153C42.1907 17.086 42.7257 17.022 43.1657 16.969C43.1657 16.969 45.6257 16.612 46.1597 16.474C48.0427 15.986 49.7497 15.484 51.4027 14.97C51.5007 14.416 51.5827 13.774 51.6037 13.107Z" fill="#B80007"/>
<path d="M60.0197 17.628L62.7097 16.877C55.0517 9.60998 48.1157 11.754 47.8707 11.831L48.7317 14.647C48.7427 14.644 54.8347 13.873 59.9757 21.227L60.0197 17.628Z" fill="#FF171F"/>
<path d="M47.8707 11.831L48.7317 14.647C48.7357 14.646 49.3697 14.566 50.3997 14.702C50.9267 13.284 50.6827 12.143 50.4207 11.48C48.8987 11.513 47.9577 11.804 47.8707 11.831Z" fill="#DE0008"/>
<path d="M44.6947 12.652C44.4527 12.614 42.2377 12.341 39.1087 14.274C35.4017 16.564 31.1167 20.382 28.0407 26.678L30.7497 26.619L32.8717 29.599C35.6077 17.96 45.3237 15.015 45.3877 15.022C45.3647 15.021 44.6947 12.652 44.6947 12.652Z" fill="#FF171F"/>
<path d="M45.3877 15.023C45.3657 15.021 44.6947 12.652 44.6947 12.652C44.5617 12.631 43.8317 12.54 42.6817 12.783C42.6707 13.62 42.5777 15.082 42.1447 16.55C43.9937 15.43 45.3637 15.021 45.3877 15.023Z" fill="#DE0008"/>
<path d="M43.1647 16.969C44.5437 13.656 42.4167 9.91499 42.4097 9.90799C43.5657 9.10899 46.0027 8.17899 46.0027 8.17899C46.3577 8.20499 48.8747 8.53199 49.5777 9.80399C50.2277 10.979 51.5317 13.39 48.6907 15.784C48.6907 15.784 47.8027 16.322 45.9997 16.789C44.1957 17.256 43.1647 16.969 43.1647 16.969Z" fill="#FF171F"/>
<path d="M47.9377 63.949C47.9377 63.949 55.2007 51.523 59.7877 48.171C64.3717 44.819 70.4087 53.487 47.9377 63.949ZM43.3827 65.204C45.1957 65.204 46.6667 66.677 46.6667 68.492C46.6667 70.301 45.1957 71.775 43.3827 71.775C41.5687 71.775 40.0997 70.302 40.0997 68.492C40.1007 66.677 41.5697 65.204 43.3827 65.204ZM47.9227 72.868C47.9227 72.868 60.3497 80.133 63.6997 84.718C67.0517 89.303 58.3847 95.34 47.9227 72.868ZM43.4807 62.273C43.4807 62.273 39.8287 48.347 40.7027 42.737C41.5757 37.122 51.9737 38.985 43.4807 62.273ZM43.4807 74.704C43.4807 74.704 39.8287 88.63 40.7027 94.24C41.5757 99.856 51.9737 97.993 43.4807 74.704ZM49.6017 68.411C49.6017 68.411 63.5247 64.76 69.1357 65.636C74.7477 66.506 72.8877 76.903 49.6017 68.411ZM37.1647 68.411C37.1647 68.411 23.2397 64.76 17.6287 65.636C12.0177 66.506 13.8777 76.903 37.1647 68.411ZM39.1277 64.072C39.1277 64.072 31.8647 51.646 27.2797 48.294C22.6927 44.947 16.6557 53.61 39.1277 64.072ZM39.1437 72.74C39.1437 72.74 26.7147 80.005 23.3657 84.59C20.0147 89.175 28.6827 95.217 39.1437 72.74Z" fill="white"/>
<path opacity="0.4" d="M72.8217 48.347C72.8217 48.347 80.0917 63.41 74.2237 80.4C68.3567 97.39 59.5987 93.968 62.5757 84.601C65.5537 75.233 68.4417 70.766 68.7927 60.518C69.1447 50.274 69.6697 44.67 72.8217 48.347ZM59.3367 94.235C59.3367 94.235 58.8977 100.186 53.7327 99.572C48.5657 98.964 49.0917 97.998 51.0187 95.719C52.9447 93.445 56.1847 90.728 59.3367 94.235Z" fill="white"/>
</svg>
