<svg width="91" height="117" viewBox="0 0 91 117" fill="none" xmlns="http://www.w3.org/2000/svg">
<path fill-rule="evenodd" clip-rule="evenodd" d="M34.211 28.0667C37.671 27.2067 41.291 26.7567 45.011 26.7567C48.731 26.7567 52.341 27.2067 55.801 28.0667C48.791 27.2067 41.221 27.2067 34.211 28.0667Z" fill="#5AB8AA"/>
<path fill-rule="evenodd" clip-rule="evenodd" d="M52.061 116.217C49.771 116.577 47.411 116.767 45.011 116.767C41.941 116.767 38.941 116.457 36.041 115.877C41.25 116.457 46.741 116.567 52.061 116.217Z" fill="#5AB8AA"/>
<path fill-rule="evenodd" clip-rule="evenodd" d="M90.02 71.7667C90.02 84.9367 84.36 96.7767 75.35 105.017C74.67 104.837 73.94 104.747 73.2 104.757C71.39 104.787 69.74 105.387 68.4 106.377C67.32 102.927 64.1 100.457 60.31 100.517C58.52 100.537 56.86 101.137 55.51 102.117C54.44 98.6867 51.22 96.2067 47.43 96.2667C43.65 96.3267 40.5 98.8967 39.53 102.377C38.15 101.417 36.49 100.877 34.69 100.897C30.9 100.967 27.75 103.537 26.79 107.007C25.41 106.067 23.74 105.507 21.94 105.537C20.16 105.557 18.51 106.147 17.17 107.127C6.70998 98.8867 0 86.1067 0 71.7667C0 55.8267 8.28 41.8267 20.78 33.8267C21.86 34.5867 23.19 35.0367 24.62 35.0167C26.01 34.9967 27.29 34.5367 28.32 33.7767C29.15 36.4367 31.66 38.3567 34.59 38.3067C35.98 38.2867 37.26 37.8267 38.3 37.0667C39.13 39.7267 41.63 41.6467 44.56 41.5967C47.49 41.5567 49.93 39.5667 50.69 36.8767C51.75 37.6067 53.04 38.0267 54.43 38.0067C57.36 37.9567 59.8 35.9667 60.55 33.2767C61.61 34.0167 62.91 34.4367 64.3 34.4167C65.73 34.3967 67.03 33.9167 68.09 33.1167C81.23 40.9767 90.02 55.3467 90.02 71.7667Z" fill="#5AB8AA"/>
<path d="M8.09 62.1857L7.52899 62.0767C9.57599 51.5297 16.454 42.2087 25.928 37.1417L26.198 37.6457C16.873 42.6327 10.104 51.8057 8.09 62.1857Z" fill="#5A150E"/>
<path d="M11.009 59.0127L10.461 58.8487C12.693 51.4167 17.675 44.6837 24.129 40.3777L24.446 40.8527C18.101 45.0867 13.203 51.7057 11.009 59.0127Z" fill="#5A150E"/>
<path d="M14.205 57.4867L13.656 57.3277C15.25 51.8237 18.691 46.9507 23.343 43.6047L23.677 44.0687C19.127 47.3397 15.764 52.1057 14.205 57.4867Z" fill="#5A150E"/>
<path d="M69.493 103.435L69.175 102.96C77.177 97.5957 83.013 89.1367 85.184 79.7507L85.741 79.8797C83.537 89.4057 77.615 97.9907 69.493 103.435Z" fill="#5A150E"/>
<path d="M72.281 99.3807L71.922 98.9357C77.147 94.7167 80.979 88.8207 82.712 82.3327L83.265 82.4807C81.5 89.0847 77.599 95.0867 72.281 99.3807Z" fill="#5A150E"/>
<path d="M74.159 95.2277L73.756 94.8227C75.876 92.7137 77.491 90.0977 78.427 87.2567L78.97 87.4357C78.006 90.3617 76.342 93.0557 74.159 95.2277Z" fill="#5A150E"/>
<path d="M68.091 33.1167C67.031 33.9167 65.731 34.3967 64.301 34.4167C62.911 34.4367 61.611 34.0167 60.551 33.2767C59.801 35.9667 57.361 37.9567 54.431 38.0067C53.041 38.0267 51.751 37.6067 50.691 36.8767C49.931 39.5667 47.491 41.5567 44.561 41.5967C41.631 41.6467 39.131 39.7267 38.301 37.0667C37.261 37.8267 35.981 38.2867 34.591 38.3067C31.661 38.3567 29.151 36.4367 28.321 33.7767C27.291 34.5367 26.011 34.9967 24.621 35.0167C23.191 35.0367 21.861 34.5867 20.781 33.8267C24.861 31.2167 29.381 29.2467 34.211 28.0667C41.221 27.2067 48.791 27.2067 55.801 28.0667C60.181 29.1367 64.321 30.8567 68.091 33.1167Z" fill="white"/>
<path d="M75.351 105.017C68.991 110.817 60.971 114.807 52.081 116.217C52.081 116.217 52.071 116.217 52.061 116.217C46.741 116.567 41.251 116.457 36.041 115.877C36.001 115.867 35.971 115.867 35.941 115.857C28.961 114.427 22.571 111.377 17.171 107.127C18.511 106.147 20.161 105.557 21.941 105.537C23.741 105.507 25.411 106.067 26.791 107.007C27.751 103.537 30.901 100.967 34.691 100.897C36.491 100.877 38.151 101.417 39.531 102.377C40.501 98.8967 43.651 96.3267 47.431 96.2667C51.221 96.2067 54.441 98.6867 55.511 102.117C56.861 101.137 58.521 100.537 60.311 100.517C64.101 100.457 67.321 102.927 68.401 106.377C69.741 105.387 71.391 104.787 73.201 104.757C73.941 104.747 74.671 104.837 75.351 105.017Z" fill="white"/>
<path fill-rule="evenodd" clip-rule="evenodd" d="M45.992 50.1187C45.992 61.1797 55.042 70.2287 66.102 70.2287C55.041 70.2287 45.992 79.2787 45.992 90.3387C45.992 79.2777 36.942 70.2287 25.882 70.2287C36.942 70.2287 45.992 61.1787 45.992 50.1187Z" fill="white"/>
<path d="M31.721 16.0377L31.512 28.7007C31.496 29.6567 37.752 30.5347 45.485 30.6627C53.218 30.7907 59.499 30.1197 59.515 29.1637L59.724 16.5007L31.721 16.0377Z" fill="#FFB631"/>
<path d="M59.7124 16.4833C59.7281 15.5274 53.4722 14.649 45.7393 14.5214C38.0065 14.3938 31.7249 15.0653 31.7092 16.0212C31.6934 16.9771 37.9493 17.8554 45.6822 17.983C53.4151 18.1107 59.6966 17.4392 59.7124 16.4833Z" fill="#FFCD70"/>
<path d="M45.885 6.44567C43.873 6.41267 42.21 8.02168 42.176 10.0337L42.069 16.5277L43.136 16.5457L43.199 12.7247H43.227L43.271 10.0517C43.294 8.64468 44.458 7.51867 45.866 7.54167C47.273 7.56467 48.399 8.72868 48.376 10.1367L48.332 12.8097L48.287 15.5347L48.269 16.6307L49.365 16.6487L49.472 10.1547C49.506 8.14267 47.896 6.47867 45.885 6.44567Z" fill="#FFCD70"/>
<path d="M65.487 35.5367C64.288 31.5147 62.243 27.9777 59.392 24.8967C56.535 21.8097 52.536 19.9297 49.384 17.2427C53.222 17.7767 57.424 17.6907 60.823 16.0107C63.701 14.5887 66.017 11.5027 64.877 8.18867C61.702 -1.04333 49.737 10.5917 46.097 14.1617C43.905 9.55867 36.667 -5.48033 30.513 2.09867C28.304 4.81967 29.418 8.51367 31.632 10.8377C34.246 13.5827 38.163 15.1087 41.951 15.9257C38.068 17.3657 33.667 17.7577 29.923 19.6747C26.186 21.5887 23.051 24.2077 20.542 27.5727C19.797 28.5717 21.274 29.8327 22.022 28.8297C25.108 24.6887 29.216 21.7617 34.06 19.9757C37.932 18.5477 42.128 18.3687 45.725 16.2707C48.382 19.4777 52.261 21.0877 55.406 23.7587C59.341 27.1007 62.193 31.2607 63.668 36.2097C64.023 37.4077 65.843 36.7307 65.487 35.5367ZM32.272 3.59067C36.335 -1.48833 42.037 10.1017 44.039 14.3317C39.087 13.3497 27.589 9.44467 32.272 3.59067ZM62.71 8.98467C65.096 16.0917 52.956 15.8077 47.968 15.0277C51.302 11.7437 60.64 2.81867 62.71 8.98467Z" fill="#02826B"/>
<path opacity="0.4" d="M80.638 50.8707C80.638 50.8707 88.368 66.8867 82.129 84.9507C75.89 103.015 66.579 99.3767 69.744 89.4167C72.911 79.4567 75.981 74.7067 76.354 63.8097C76.728 52.9197 77.287 46.9607 80.638 50.8707ZM66.3 99.6617C66.3 99.6617 65.833 105.989 60.341 105.337C54.847 104.69 55.406 103.663 57.455 101.24C59.504 98.8217 62.949 95.9327 66.3 99.6617Z" fill="white"/>
</svg>
