<svg width="89" height="111" viewBox="0 0 89 111" fill="none" xmlns="http://www.w3.org/2000/svg">
<path d="M44.121 110.661C68.4884 110.661 88.242 90.9073 88.242 66.54C88.242 42.1726 68.4884 22.419 44.121 22.419C19.7536 22.419 0 42.1726 0 66.54C0 90.9073 19.7536 110.661 44.121 110.661Z" fill="#DE0008"/>
<path d="M8.71798 40.206C7.99498 41.176 7.31298 42.179 6.66998 43.208C17.678 49.689 30.472 52.722 43.374 51.204C55.537 49.773 67.157 44.483 76.423 36.49C74.323 34.234 71.99 32.197 69.462 30.42C62.674 35.323 55.014 39.016 46.916 41.157C34.435 44.457 21.035 44.046 8.71798 40.206Z" fill="#FFD3CF"/>
<path d="M43.617 71.672C59.336 69.822 74.282 62.45 85.569 51.38C84.349 48.045 82.737 44.9 80.79 41.997C71.369 50.447 59.985 56.72 47.746 59.956C32.382 64.019 15.823 63.26 0.815987 58.063C0.564987 59.355 0.366988 60.666 0.230988 61.996C13.198 69.795 28.342 73.47 43.617 71.672Z" fill="#FFD3CF"/>
<path d="M43.728 94.158C60.159 92.225 75.8 84.629 87.741 73.204C88.07 71.03 88.242 68.805 88.242 66.539C88.242 63.805 87.991 61.129 87.515 58.533C76.753 69.566 63.035 77.735 48.127 81.677C33.216 85.62 17.248 85.3 2.43597 81.026C3.29297 83.492 4.36197 85.857 5.62197 88.102C17.461 93.435 30.549 95.709 43.728 94.158Z" fill="#FFD3CF"/>
<path d="M84.908 83.387C74.995 92.109 63.101 98.59 50.332 101.967C40.953 104.447 31.156 105.237 21.492 104.421C28.109 108.382 35.848 110.661 44.121 110.661C62.521 110.661 78.288 99.395 84.908 83.387Z" fill="#FFD3CF"/>
<path d="M29.312 11.247V25.743C29.312 26.837 36.488 27.724 45.341 27.724C54.193 27.724 61.37 26.837 61.37 25.743V11.247H29.312Z" fill="#FFB631"/>
<path d="M45.341 13.228C54.1936 13.228 61.37 12.3411 61.37 11.247C61.37 10.1529 54.1936 9.26601 45.341 9.26601C36.4884 9.26601 29.312 10.1529 29.312 11.247C29.312 12.3411 36.4884 13.228 45.341 13.228Z" fill="#FFCD70"/>
<path d="M45.341 0C43.038 0 41.164 1.874 41.164 4.176V11.61H42.386V7.235H42.418V4.175C42.418 2.564 43.729 1.253 45.34 1.253C46.951 1.253 48.262 2.564 48.262 4.175V7.235V10.355V11.609H49.516V4.175C49.518 1.874 47.644 0 45.341 0Z" fill="#FFCD70"/>
<path d="M6.323 57.718L5.741 57.605C7.862 46.673 14.991 37.012 24.811 31.76L25.09 32.283C15.427 37.451 8.411 46.959 6.323 57.718Z" fill="#5A150E"/>
<path d="M9.34898 54.429L8.78198 54.259C11.095 46.556 16.259 39.578 22.949 35.114L23.278 35.607C16.7 39.995 11.623 46.855 9.34898 54.429Z" fill="#5A150E"/>
<path d="M12.662 52.847L12.093 52.682C13.746 46.978 17.311 41.926 22.133 38.458L22.479 38.939C17.764 42.33 14.278 47.27 12.662 52.847Z" fill="#5A150E"/>
<path d="M64.341 101.494L64.011 101.002C72.305 95.442 78.353 86.674 80.604 76.946L81.181 77.08C78.898 86.953 72.759 95.852 64.341 101.494Z" fill="#5A150E"/>
<path d="M67.231 97.292L66.859 96.831C72.275 92.458 76.247 86.347 78.043 79.623L78.616 79.776C76.786 86.621 72.743 92.842 67.231 97.292Z" fill="#5A150E"/>
<path d="M69.177 92.988L68.759 92.568C70.956 90.382 72.63 87.67 73.601 84.726L74.164 84.912C73.164 87.944 71.44 90.737 69.177 92.988Z" fill="#5A150E"/>
<path opacity="0.4" d="M71.297 43.408C71.297 43.408 79.883 61.197 72.953 81.262C66.024 101.327 55.681 97.286 59.197 86.223C62.715 75.16 66.125 69.884 66.539 57.78C66.954 45.684 67.574 39.065 71.297 43.408ZM55.371 97.602C55.371 97.602 54.852 104.63 48.752 103.906C42.65 103.187 43.271 102.047 45.547 99.355C47.822 96.669 51.648 93.46 55.371 97.602Z" fill="white"/>
</svg>
