<svg width="87" height="109" viewBox="0 0 87 109" fill="none" xmlns="http://www.w3.org/2000/svg">
<path d="M86.8201 64.11C86.9591 72.494 84.7221 80.363 80.7131 87.064C79.7071 88.732 78.6071 90.324 77.4051 91.833C76.7481 92.662 76.0591 93.476 75.3231 94.252C74.7171 94.926 74.0721 95.584 73.4041 96.205C72.3111 97.265 71.1621 98.256 69.9581 99.179C69.6531 99.416 69.3491 99.644 69.0361 99.873C68.9521 99.936 68.8611 99.999 68.7771 100.062C67.6491 100.883 66.4661 101.651 65.2581 102.358C64.3791 102.866 63.4851 103.352 62.5661 103.799C57.0261 106.537 50.8021 108.114 44.2391 108.239L44.0771 108.242C43.7301 108.248 43.3831 108.246 43.0351 108.244C42.8811 108.247 42.7261 108.241 42.5721 108.236C42.4951 108.237 42.4181 108.239 42.3481 108.232C36.1351 108.088 30.2241 106.628 24.9121 104.116C24.1271 103.743 23.3481 103.347 22.5851 102.928C21.4251 102.299 20.3031 101.616 19.2181 100.878C19.0001 100.735 18.7891 100.584 18.5701 100.434C18.2031 100.178 17.8441 99.921 17.4851 99.642C16.3841 98.827 15.3201 97.957 14.3021 97.041C13.6521 96.458 13.0251 95.851 12.4121 95.221C11.6661 94.454 10.9431 93.664 10.2511 92.842C9.92011 92.454 9.59811 92.058 9.28211 91.654C8.44711 90.596 7.66411 89.497 6.92811 88.36C2.66011 81.78 0.146113 73.968 0.00611321 65.553C-0.138887 56.814 2.30211 48.634 6.63111 41.749C9.12711 37.788 12.2241 34.265 15.8311 31.296C15.8391 31.296 15.8391 31.296 15.8391 31.296C17.0111 30.327 18.2461 29.42 19.5281 28.581C19.7721 28.415 20.0161 28.257 20.2681 28.098C20.7871 27.765 21.3221 27.448 21.8571 27.138C22.6061 26.709 23.3711 26.295 24.1511 25.919C24.1591 25.911 24.1591 25.911 24.1661 25.919C25.1071 25.44 26.0801 25 27.0611 24.598C27.0611 24.598 27.0691 24.606 27.0761 24.598C31.9041 22.635 37.1701 21.514 42.6931 21.422C48.3851 21.327 53.8411 22.332 58.8501 24.247C58.8501 24.247 58.8581 24.247 58.8651 24.247C59.8361 24.617 60.7761 25.018 61.7171 25.465C62.3161 25.733 62.8991 26.024 63.4831 26.323C64.2771 26.734 65.0631 27.176 65.8271 27.634C66.0221 27.754 66.2171 27.874 66.4121 28.002C67.6441 28.768 68.8301 29.598 69.9791 30.481C70.0181 30.511 70.0491 30.534 70.0881 30.564C73.5511 33.269 76.5981 36.481 79.1041 40.097C83.8341 46.923 86.6711 55.178 86.8201 64.11Z" fill="#F3A000"/>
<path d="M66.7921 64.814L69.8761 61.731C70.1561 61.442 70.3131 61.063 70.3131 60.667C70.3131 60.263 70.1561 59.884 69.8761 59.603C69.5961 59.314 69.2161 59.166 68.8121 59.166C68.4161 59.166 68.0371 59.314 67.7481 59.603L64.0461 63.313H60.3361L63.6011 60.048C64.1861 59.463 64.1861 58.506 63.6011 57.921C63.3121 57.641 62.9331 57.484 62.5371 57.484C62.1331 57.484 61.7541 57.641 61.4731 57.921L56.0811 63.313H50.6891C50.4831 62.258 50.0711 61.277 49.4851 60.411L53.3021 56.594H60.9201C61.7531 56.594 62.4291 55.926 62.4291 55.093C62.4291 54.269 61.7531 53.593 60.9201 53.593H56.3031L58.9331 50.971H64.1761C65.0001 50.971 65.6771 50.295 65.6771 49.471C65.6771 48.638 65.0011 47.97 64.1761 47.97H59.8061V43.6C59.8061 42.776 59.1381 42.1 58.3051 42.1C57.4811 42.1 56.8041 42.776 56.8041 43.6V48.844L54.1821 51.466V46.849C54.1821 46.025 53.5061 45.349 52.6821 45.349C51.8491 45.349 51.1811 46.025 51.1811 46.849V54.475L47.3641 58.292C46.4981 57.707 45.5171 57.294 44.4621 57.088V51.688L49.8541 46.304C50.4391 45.719 50.4391 44.762 49.8541 44.177C49.5661 43.897 49.1941 43.74 48.7901 43.74C48.3861 43.74 48.0151 43.897 47.7261 44.177L44.4611 47.442V43.732L48.1711 40.022C48.7561 39.437 48.7561 38.489 48.1711 37.903C47.8911 37.614 47.5111 37.458 47.1071 37.458C46.7111 37.458 46.3321 37.615 46.0431 37.903L42.9601 40.986L39.8771 37.903C39.5881 37.614 39.2091 37.458 38.8131 37.458C38.4091 37.458 38.0301 37.615 37.7491 37.903C37.4691 38.183 37.3121 38.563 37.3121 38.966C37.3121 39.362 37.4691 39.741 37.7491 40.021L41.4591 43.731V47.441L38.1941 44.176C37.9141 43.896 37.5341 43.739 37.1301 43.739C36.7261 43.739 36.3551 43.896 36.0661 44.176C35.4811 44.761 35.4811 45.718 36.0661 46.303L41.4581 51.687V57.087C40.4031 57.293 39.4301 57.705 38.5641 58.291C38.5641 58.291 38.5641 58.291 38.5561 58.291L34.7471 54.474V46.848C34.7471 46.024 34.0711 45.348 33.2381 45.348C32.4141 45.348 31.7381 46.024 31.7381 46.848V51.465L29.1161 48.843V43.599C29.1161 42.775 28.4401 42.099 27.6161 42.099C26.7831 42.099 26.1151 42.775 26.1151 43.599V47.969H21.7451C20.9211 47.969 20.2441 48.637 20.2441 49.47C20.2441 50.294 20.9201 50.97 21.7451 50.97H26.9881L29.6181 53.592H25.0011C24.1681 53.592 23.4921 54.268 23.4921 55.092C23.4921 55.925 24.1681 56.593 25.0011 56.593H32.6191L36.4361 60.41C35.8511 61.276 35.4381 62.257 35.2321 63.312H29.8401L24.4481 57.92C24.1681 57.64 23.7881 57.483 23.3851 57.483C22.9891 57.483 22.6101 57.64 22.3211 57.92C21.7361 58.505 21.7361 59.462 22.3211 60.047L25.5861 63.312H21.8761L18.1741 59.602C17.8851 59.313 17.5061 59.165 17.1101 59.165C16.7061 59.165 16.3271 59.313 16.0461 59.602C15.7661 59.882 15.6091 60.262 15.6091 60.666C15.6091 61.062 15.7661 61.441 16.0461 61.73L19.1291 64.813L16.0461 67.896C15.7661 68.185 15.6091 68.556 15.6091 68.96C15.6091 69.364 15.7661 69.743 16.0461 70.024C16.3261 70.304 16.7061 70.461 17.1101 70.461C17.5061 70.461 17.8851 70.304 18.1741 70.024L21.8761 66.314H25.5861L22.3211 69.579C21.7361 70.164 21.7361 71.121 22.3211 71.706C22.6101 71.986 22.9891 72.143 23.3851 72.143C23.7891 72.143 24.1681 71.986 24.4481 71.706L29.8401 66.314H35.2321C35.4381 67.369 35.8501 68.342 36.4361 69.208C36.4361 69.208 36.4361 69.208 36.4361 69.216L32.6191 73.025H25.0011C24.1681 73.025 23.4921 73.701 23.4921 74.534C23.4921 75.358 24.1681 76.034 25.0011 76.034H29.6181L26.9881 78.656H21.7451C20.9211 78.656 20.2441 79.332 20.2441 80.156C20.2441 80.98 20.9201 81.657 21.7451 81.657H26.1151V86.027C26.1151 86.851 26.7831 87.528 27.6161 87.528C28.4401 87.528 29.1161 86.852 29.1161 86.027V80.775L31.7381 78.153V82.77C31.7381 83.603 32.4141 84.27 33.2381 84.27C34.0711 84.27 34.7471 83.602 34.7471 82.77V75.152L38.5641 71.335C39.4301 71.92 40.4031 72.333 41.4581 72.539V77.931L36.0661 83.323C35.4811 83.908 35.4811 84.856 36.0661 85.45C36.3551 85.73 36.7341 85.887 37.1301 85.887C37.5341 85.887 37.9131 85.73 38.1941 85.442L41.4591 82.185V85.887L37.7491 89.597C37.4691 89.885 37.3121 90.257 37.3121 90.66C37.3121 91.064 37.4691 91.435 37.7491 91.724C38.0291 92.004 38.4091 92.161 38.8131 92.161C39.2171 92.161 39.5881 92.004 39.8771 91.724L42.9601 88.641L46.0431 91.724C46.3321 92.004 46.7111 92.161 47.1071 92.161C47.5111 92.161 47.8901 92.004 48.1711 91.724C48.7561 91.139 48.7561 90.182 48.1711 89.597L44.4611 85.887V82.185L47.7261 85.442C48.0151 85.731 48.3861 85.887 48.7901 85.887C49.1941 85.887 49.5651 85.73 49.8541 85.442C50.4391 84.857 50.4391 83.909 49.8541 83.323L44.4621 77.931V72.539C45.5171 72.333 46.4981 71.921 47.3641 71.335L51.1811 75.152V82.77C51.1811 83.603 51.8491 84.27 52.6821 84.27C53.5061 84.27 54.1821 83.602 54.1821 82.77V78.153L56.8041 80.775V86.027C56.8041 86.851 57.4801 87.528 58.3051 87.528C59.1381 87.528 59.8061 86.852 59.8061 86.027V81.657H64.1761C65.0001 81.657 65.6771 80.981 65.6771 80.156C65.6771 79.332 65.0011 78.656 64.1761 78.656H58.9331L56.3031 76.034H60.9201C61.7531 76.034 62.4291 75.358 62.4291 74.534C62.4291 73.701 61.7531 73.025 60.9201 73.025H53.3021L49.4851 69.216C49.4851 69.208 49.4851 69.208 49.4851 69.208C50.0701 68.342 50.4831 67.369 50.6891 66.314H56.0811L61.4731 71.706C61.7531 71.986 62.1331 72.143 62.5371 72.143C62.9331 72.143 63.3121 71.986 63.6011 71.706C64.1861 71.121 64.1861 70.164 63.6011 69.579L60.3361 66.314H64.0461L67.7481 70.024C68.0371 70.304 68.4161 70.461 68.8121 70.461C69.2161 70.461 69.5951 70.304 69.8761 70.024C70.1561 69.744 70.3131 69.364 70.3131 68.96C70.3131 68.556 70.1561 68.185 69.8761 67.896L66.7921 64.814ZM47.2451 66.966C46.7831 67.881 46.0331 68.631 45.1181 69.093C44.9121 69.2 44.6891 69.291 44.4671 69.365C43.9971 69.522 43.4861 69.604 42.9661 69.604C42.4461 69.604 41.9351 69.521 41.4661 69.365C41.2431 69.291 41.0211 69.2 40.8151 69.093C39.9001 68.631 39.1501 67.881 38.6881 66.966C38.5811 66.76 38.4901 66.537 38.4161 66.315C38.2591 65.845 38.1771 65.334 38.1771 64.814C38.1771 64.295 38.2591 63.783 38.4161 63.313C38.4901 63.09 38.5811 62.868 38.6881 62.662C39.1501 61.747 39.9001 60.997 40.8151 60.535C41.0211 60.428 41.2441 60.337 41.4661 60.263C41.9361 60.106 42.4471 60.024 42.9661 60.024C43.4851 60.024 43.9971 60.106 44.4671 60.263C44.6901 60.337 44.9121 60.428 45.1181 60.535C46.0331 60.997 46.7831 61.747 47.2451 62.662C47.3521 62.868 47.4431 63.091 47.5171 63.313C47.6741 63.783 47.7561 64.294 47.7561 64.814C47.7561 65.333 47.6741 65.845 47.5171 66.315C47.4421 66.537 47.3521 66.76 47.2451 66.966Z" fill="white"/>
<path d="M61.7201 25.464C55.7991 26.218 49.9651 26.57 44.4811 26.661C36.7601 26.789 29.7331 26.405 24.1701 25.918C25.1111 25.439 26.0841 24.999 27.0651 24.597C27.0651 24.597 27.0731 24.605 27.0801 24.597C35.6621 25.241 47.0091 25.524 58.8541 24.246C58.8541 24.246 58.8621 24.246 58.8691 24.246C59.8381 24.616 60.7791 25.017 61.7201 25.464Z" fill="white"/>
<path d="M70.0911 30.564C61.4421 31.965 52.8271 32.572 44.8511 32.704C33.1501 32.898 22.8361 32.082 15.8411 31.296C17.0131 30.327 18.2481 29.42 19.5301 28.581C30.8361 29.682 48.4021 30.524 66.4141 28.003C67.6851 28.791 68.9101 29.65 70.0911 30.564Z" fill="white"/>
<path d="M75.3231 94.252C74.7171 94.926 74.0721 95.584 73.4041 96.205C64.0061 98.005 54.5281 98.733 45.8511 98.877C32.2141 99.104 20.5591 97.878 14.3031 97.04C13.6531 96.457 13.0261 95.85 12.4131 95.22C21.0601 96.496 48.7901 99.8 75.3231 94.252Z" fill="white"/>
<path d="M69.0361 99.873C68.9521 99.936 68.8611 99.999 68.7771 100.062C67.6491 100.883 66.4661 101.651 65.2581 102.358C64.3791 102.866 63.4851 103.352 62.5661 103.799C56.8971 104.395 51.3321 104.688 46.0481 104.776C38.1811 104.907 30.9381 104.58 24.9121 104.117C24.1271 103.744 23.3481 103.348 22.5851 102.929C21.4251 102.3 20.3031 101.617 19.2181 100.879C19.0001 100.736 18.7891 100.585 18.5701 100.435C29.9871 101.656 49.3341 102.824 69.0361 99.873Z" fill="white"/>
<path d="M6.82011 57.925L6.29611 57.823C8.20611 47.981 14.6241 39.283 23.4651 34.555L23.7171 35.025C15.0161 39.679 8.70011 48.239 6.82011 57.925Z" fill="#5A150E"/>
<path d="M9.54411 54.964L9.03311 54.811C11.1151 47.876 15.7641 41.593 21.7881 37.575L22.0841 38.019C16.1621 41.969 11.5921 48.146 9.54411 54.964Z" fill="#5A150E"/>
<path d="M12.5261 53.54L12.0141 53.392C13.5021 48.256 16.7121 43.709 21.0531 40.586L21.3641 41.019C17.1201 44.072 13.9811 48.519 12.5261 53.54Z" fill="#5A150E"/>
<path d="M64.1181 96.416L63.8211 95.973C71.2881 90.968 76.7331 83.074 78.7601 74.316L79.2801 74.436C77.2231 83.325 71.6971 91.336 64.1181 96.416Z" fill="#5A150E"/>
<path d="M66.7191 92.633L66.3841 92.218C71.2601 88.281 74.8361 82.779 76.4531 76.725L76.9691 76.863C75.3221 83.026 71.6821 88.626 66.7191 92.633Z" fill="#5A150E"/>
<path d="M68.4721 88.758L68.0961 88.38C70.0741 86.412 71.5811 83.97 72.4551 81.32L72.9611 81.487C72.0621 84.217 70.5091 86.731 68.4721 88.758Z" fill="#5A150E"/>
<path d="M28.3901 10.037V22.975C28.3901 23.952 34.7951 24.743 42.6961 24.743C50.5971 24.743 57.0021 23.951 57.0021 22.975V10.037H28.3901Z" fill="#FFB631"/>
<path d="M42.6961 11.805C50.5971 11.805 57.0021 11.0134 57.0021 10.037C57.0021 9.06056 50.5971 8.269 42.6961 8.269C34.7952 8.269 28.3901 9.06056 28.3901 10.037C28.3901 11.0134 34.7952 11.805 42.6961 11.805Z" fill="#FFCD70"/>
<path d="M42.6962 0C40.6412 0 38.9681 1.672 38.9681 3.72701V10.362H40.0591V6.45799H40.0882V3.72701C40.0882 2.28901 41.2582 1.119 42.6962 1.119C44.1342 1.119 45.3042 2.28901 45.3042 3.72701V6.45799V9.243V10.363H46.4241V3.728C46.4231 1.672 44.7512 0 42.6962 0Z" fill="#FFCD70"/>
<path opacity="0.4" d="M70.6551 46.667C70.6551 46.667 78.3851 62.683 72.1461 80.747C65.9071 98.811 56.5961 95.173 59.7611 85.213C62.9281 75.253 65.9981 70.503 66.3711 59.606C66.7451 48.716 67.3041 42.757 70.6551 46.667ZM56.3171 95.457C56.3171 95.457 55.8501 101.784 50.3581 101.132C44.8641 100.485 45.4231 99.458 47.4721 97.035C49.5211 94.618 52.9661 91.729 56.3171 95.457Z" fill="white"/>
</svg>
