<svg width="88" height="108" viewBox="0 0 88 108" fill="none" xmlns="http://www.w3.org/2000/svg">
<path d="M87.6763 63.022C87.8063 71.489 85.5362 79.432 81.4792 86.195C80.7722 87.359 80.0263 88.484 79.2253 89.572C78.8743 90.06 78.5072 90.534 78.1332 91.007C77.5672 91.725 76.9782 92.419 76.3652 93.091C74.6112 95.034 72.6822 96.817 70.6032 98.415C70.2102 98.717 69.8102 99.019 69.4092 99.306C68.2692 100.134 67.0732 100.908 65.8532 101.62C59.6062 105.261 52.3462 107.398 44.6192 107.532L44.4552 107.534C44.1042 107.539 43.7542 107.537 43.4032 107.535C43.2472 107.537 43.0912 107.532 42.9352 107.527C42.8572 107.528 42.7792 107.529 42.7092 107.523C35.4992 107.345 28.7072 105.416 22.7592 102.142C21.5882 101.506 20.4563 100.814 19.3613 100.067C18.7713 99.671 18.1882 99.259 17.6122 98.816C15.5402 97.282 13.6122 95.558 11.8532 93.669C11.3222 93.108 10.8152 92.532 10.3152 91.94C9.85525 91.394 9.40225 90.84 8.98125 90.27C8.26625 89.346 7.59625 88.39 6.96625 87.41C2.66525 80.76 0.136249 72.868 0.00524933 64.369C-0.129751 55.544 2.34524 47.286 6.72624 40.339C8.33924 37.798 10.1882 35.424 12.2742 33.273C13.2402 32.269 14.2542 31.31 15.3152 30.398C16.9452 29.002 18.6862 27.721 20.5152 26.571C21.0402 26.236 21.5802 25.916 22.1212 25.604C28.3382 22.049 35.5052 19.976 43.1702 19.858C50.7412 19.742 57.8982 21.556 64.1582 24.834C64.9592 25.25 65.7532 25.698 66.5242 26.161C68.3562 27.27 70.1052 28.506 71.7462 29.867C72.8112 30.754 73.8312 31.681 74.8042 32.656C76.6872 34.528 78.4013 36.574 79.9153 38.764C84.6823 45.663 87.5373 54.002 87.6763 63.022Z" fill="#DE0008"/>
<path d="M74.8062 32.655C65.0232 33.834 55.3942 34.387 46.3192 34.526C33.4432 34.724 21.7082 34.093 12.2762 33.272C13.2422 32.268 14.2562 31.309 15.3172 30.397C30.3802 31.592 50.6232 32.177 71.7482 29.866C72.8142 30.753 73.8332 31.68 74.8062 32.655Z" fill="#FFD3CF"/>
<path d="M66.5262 26.16C51.2372 27.517 35.8272 27.558 20.5182 26.57C21.0432 26.235 21.5833 25.915 22.1243 25.603C28.3413 22.048 35.5082 19.975 43.1732 19.857C50.7442 19.741 57.9012 21.555 64.1612 24.833C64.9612 25.249 65.7552 25.696 66.5262 26.16Z" fill="#F3A000"/>
<path d="M43.0243 10.413C39.6903 10.464 36.9963 11.051 37.0063 11.721L37.0343 13.557L37.1193 19.085L37.1473 20.921C37.1573 21.591 39.8683 22.095 43.2023 22.043C46.5363 21.992 49.2303 21.405 49.2203 20.735L49.1923 18.899L49.1073 13.371L49.0793 11.535C49.0693 10.866 46.3573 10.362 43.0243 10.413Z" fill="#F3A000"/>
<path d="M79.2253 89.572C78.8743 90.06 78.5072 90.534 78.1332 91.007C77.5672 91.725 76.9782 92.419 76.3652 93.091C66.3652 94.32 56.5172 94.891 47.2482 95.034C33.7572 95.241 21.5062 94.549 11.8552 93.669C11.3242 93.108 10.8172 92.532 10.3172 91.94C9.85725 91.394 9.40425 90.84 8.98325 90.27C25.7592 91.95 52.1303 93.306 79.2253 89.572Z" fill="#FFD3CF"/>
<path d="M70.6032 98.414C70.2102 98.716 69.8102 99.018 69.4092 99.305C68.2692 100.133 67.0732 100.907 65.8532 101.619C59.6062 105.26 52.3462 107.397 44.6192 107.531L44.4552 107.533C44.1042 107.538 43.7542 107.536 43.4032 107.534C43.2472 107.536 43.0912 107.531 42.9352 107.526C42.8572 107.527 42.7792 107.528 42.7092 107.522C35.4992 107.344 28.7072 105.415 22.7592 102.141C21.5882 101.505 20.4563 100.813 19.3613 100.066C18.7713 99.67 18.1882 99.258 17.6122 98.815C34.9752 100.138 52.4832 100.173 69.8232 98.489C70.0822 98.461 70.3462 98.442 70.6032 98.414Z" fill="#F3A000"/>
<path d="M24.3563 46.202C25.5906 46.202 26.5913 45.2014 26.5913 43.967C26.5913 42.7327 25.5906 41.732 24.3563 41.732C23.1219 41.732 22.1213 42.7327 22.1213 43.967C22.1213 45.2014 23.1219 46.202 24.3563 46.202Z" fill="#FFD3CF"/>
<path d="M6.64126 57.194C6.66026 58.428 7.67626 59.413 8.91026 59.394C10.1443 59.375 11.1293 58.359 11.1103 57.125C11.0913 55.891 10.0753 54.906 8.84126 54.925C7.60826 54.944 6.62226 55.959 6.64126 57.194Z" fill="#FFD3CF"/>
<path d="M16.0833 75.381C16.1023 76.615 17.1183 77.6 18.3523 77.581C19.5863 77.562 20.5713 76.546 20.5523 75.312C20.5333 74.078 19.5173 73.093 18.2833 73.112C17.0493 73.131 16.0643 74.147 16.0833 75.381Z" fill="#FFD3CF"/>
<path d="M64.9472 43.344C64.9662 44.578 63.9812 45.594 62.7472 45.613C61.5132 45.632 60.4972 44.647 60.4782 43.413C60.4592 42.179 61.4442 41.163 62.6782 41.144C63.9122 41.125 64.9282 42.11 64.9472 43.344Z" fill="#FFD3CF"/>
<path d="M80.8243 56.055C80.8433 57.289 79.8583 58.305 78.6243 58.324C77.3903 58.343 76.3743 57.358 76.3553 56.124C76.3363 54.89 77.3213 53.874 78.5553 53.855C79.7903 53.836 80.8053 54.821 80.8243 56.055Z" fill="#FFD3CF"/>
<path d="M71.9453 74.524C71.9643 75.758 70.9793 76.774 69.7453 76.793C68.5113 76.812 67.4953 75.827 67.4763 74.593C67.4573 73.359 68.4423 72.343 69.6763 72.324C70.9113 72.305 71.9273 73.29 71.9453 74.524Z" fill="#FFD3CF"/>
<path d="M46.0013 40.582L51.4912 51.288C51.9122 52.109 52.7102 52.671 53.6252 52.789L65.5562 54.336C67.8612 54.635 68.8222 57.447 67.1832 59.094L58.6982 67.623C58.0472 68.277 57.7603 69.21 57.9303 70.117L60.1453 81.942C60.5733 84.226 58.1962 86.01 56.1232 84.96L45.3893 79.526C44.5663 79.109 43.5902 79.124 42.7802 79.566L32.2183 85.327C30.1783 86.44 27.7472 84.73 28.1052 82.434L29.9572 70.546C30.0992 69.634 29.7833 68.711 29.1133 68.077L20.3702 59.812C18.6812 58.216 19.5563 55.376 21.8503 55.006L33.7282 53.093C34.6392 52.946 35.4203 52.361 35.8153 51.527L40.9733 40.658C41.9703 38.559 44.9413 38.514 46.0013 40.582Z" fill="#FFD3CF"/>
<path d="M5.05025 55.475L4.49225 55.367C6.52825 44.874 13.3712 35.6 22.7972 30.559L23.0652 31.061C13.7882 36.021 7.05425 45.148 5.05025 55.475Z" fill="#5A150E"/>
<path d="M7.95425 52.318L7.40924 52.155C9.62924 44.761 14.5862 38.063 21.0082 33.778L21.3242 34.251C15.0102 38.463 10.1373 45.048 7.95425 52.318Z" fill="#5A150E"/>
<path d="M11.1343 50.799L10.5883 50.641C12.1743 45.166 15.5973 40.317 20.2253 36.988L20.5573 37.45C16.0313 40.705 12.6853 45.446 11.1343 50.799Z" fill="#5A150E"/>
<path d="M66.1393 96.513L65.8223 96.041C73.7833 90.704 79.5893 82.288 81.7493 72.951L82.3033 73.079C80.1123 82.556 74.2203 91.097 66.1393 96.513Z" fill="#5A150E"/>
<path d="M68.9133 92.48L68.5562 92.038C73.7552 87.841 77.5672 81.975 79.2912 75.52L79.8412 75.667C78.0852 82.236 74.2043 88.208 68.9133 92.48Z" fill="#5A150E"/>
<path d="M70.7812 88.348L70.3802 87.945C72.4892 85.847 74.0963 83.244 75.0273 80.418L75.5672 80.596C74.6082 83.507 72.9532 86.187 70.7812 88.348Z" fill="#5A150E"/>
<path d="M28.8052 9.56299V21.889C28.8052 22.819 34.9072 23.574 42.4342 23.574C49.9612 23.574 56.0632 22.82 56.0632 21.889V9.56299H28.8052Z" fill="#FFB631"/>
<path d="M42.4342 11.248C49.9613 11.248 56.0632 10.4936 56.0632 9.56299C56.0632 8.63239 49.9613 7.87799 42.4342 7.87799C34.9071 7.87799 28.8052 8.63239 28.8052 9.56299C28.8052 10.4936 34.9071 11.248 42.4342 11.248Z" fill="#FFCD70"/>
<path d="M42.4342 0C40.4762 0 38.8832 1.59299 38.8832 3.55099V9.87201H39.9222V6.15201H39.9502V3.54999C39.9502 2.17999 41.0652 1.06601 42.4352 1.06601C43.8052 1.06601 44.9193 2.18099 44.9193 3.54999V6.15201V8.80499V9.87201H45.9863V3.55099C45.9853 1.59299 44.3922 0 42.4342 0Z" fill="#FFCD70"/>
<path opacity="0.4" d="M73.5363 46.338C73.5363 46.338 81.2663 62.354 75.0273 80.418C68.7883 98.482 59.4773 94.844 62.6423 84.884C65.8093 74.924 68.8793 70.174 69.2523 59.277C69.6263 48.387 70.1853 42.428 73.5363 46.338ZM59.1983 95.129C59.1983 95.129 58.7313 101.456 53.2393 100.804C47.7453 100.157 48.3043 99.13 50.3533 96.707C52.4023 94.289 55.8473 91.4 59.1983 95.129Z" fill="white"/>
</svg>
