<svg width="93" height="89" viewBox="0 0 93 89" fill="none" xmlns="http://www.w3.org/2000/svg">
<path d="M78.7401 26.56C74.7181 24.495 70.4421 23.091 66.1561 21.933C64.0111 21.385 61.8691 20.838 59.7291 20.291C57.6061 19.769 55.5391 19.013 54.2471 17.266C52.6761 15.29 52.1621 12.624 51.9511 10.387C51.8361 10.453 51.7121 10.495 51.5771 10.503C50.5371 10.568 49.8871 8.09801 49.8871 8.09801C49.8871 8.09801 49.4951 10.546 47.6771 10.633C46.3121 10.698 45.0771 9.33301 45.1421 8.09801C45.1421 8.09801 45.0771 10.698 43.6471 10.633C42.2171 10.568 41.9571 8.48801 41.9571 8.48801C41.9571 8.48801 41.0481 10.051 40.0211 10.33C39.9011 12.816 39.3801 15.268 37.9241 17.058C37.0771 18.114 35.9241 18.812 34.6101 19.282C33.2441 19.738 31.7661 20.1 30.3101 20.486C27.3821 21.245 24.4391 22.052 21.5531 23.053C16.9101 24.662 12.3291 26.749 8.38512 29.871C6.43012 31.436 4.63313 33.26 3.25713 35.399C1.87013 37.526 0.896123 39.929 0.411123 42.415C-0.0828766 44.901 -0.107872 47.459 0.209128 49.921C0.278128 50.54 0.299133 51.165 0.408133 51.778L0.806143 53.611C0.956143 54.217 1.03514 54.841 1.24514 55.432L1.87713 57.201C2.71013 59.566 4.03914 61.727 5.53414 63.724C7.15214 65.625 8.93114 67.404 10.9991 68.787C15.0491 71.657 19.7511 73.318 24.3681 74.634C26.6481 75.272 28.8471 76.249 31.0271 77.221C33.2001 78.216 35.3341 79.295 37.3991 80.486C40.0671 82.054 42.7671 83.773 44.6321 85.599C45.2811 86.201 45.9691 86.961 46.4121 87.564C46.6991 87.992 46.9161 88.292 46.9961 88.355C46.9951 88.457 47.0091 88.52 47.0511 88.495C47.0971 88.471 47.1901 88.33 47.3071 88.117C47.4481 87.909 47.6321 87.638 47.8371 87.334C48.2681 86.737 48.8681 86.056 49.3871 85.526C51.2021 83.602 53.5281 82.093 55.8681 80.699C58.2301 79.315 60.7151 78.115 63.2351 77.013C64.4971 76.471 65.7741 75.94 67.0521 75.487C68.2971 75.064 69.6791 74.681 71.0051 74.252C73.6801 73.38 76.3421 72.353 78.8281 70.952C82.8471 68.744 86.4451 65.575 88.8931 61.612C91.3681 57.657 92.5271 53.003 92.6881 48.438C93.0221 43.859 91.9081 39.031 89.2181 35.227C86.5681 31.39 82.7471 28.622 78.7401 26.56ZM9.11214 49.047C8.72814 49.135 8.33814 49.232 7.94314 49.259C7.56614 49.286 7.18713 49.288 6.80813 49.297C7.27913 49.753 7.75113 50.209 8.22313 50.665C8.23113 50.656 8.23912 50.648 8.24712 50.639C8.29312 50.696 8.36314 50.751 8.37914 50.81C8.41414 50.932 8.44814 51.067 8.42614 51.173C8.41714 51.217 8.25814 51.226 8.17214 51.198C8.04514 51.157 7.91113 51.086 7.80013 50.998C7.45813 50.727 7.11412 50.455 6.79012 50.16C6.66612 50.047 6.54513 49.928 6.42113 49.815C6.44213 50.437 6.46414 51.06 6.48614 51.682C6.49814 51.681 6.51014 51.681 6.52114 51.68C6.51514 51.752 6.52613 51.841 6.49813 51.895C6.43813 52.007 6.36914 52.128 6.28014 52.188C6.24314 52.213 6.12313 52.109 6.08013 52.03C6.01713 51.912 5.97013 51.768 5.95113 51.628C5.89313 51.196 5.83514 50.761 5.80614 50.324C5.79414 50.145 5.79013 49.964 5.77813 49.785C5.33913 50.242 4.90112 50.7 4.46212 51.158C4.47112 51.166 4.47912 51.174 4.48812 51.182C4.43212 51.228 4.37614 51.298 4.31814 51.315C4.19614 51.35 4.06114 51.385 3.95614 51.363C3.91214 51.354 3.90214 51.195 3.93014 51.109C3.97014 50.982 4.04113 50.848 4.12813 50.736C4.39713 50.393 4.66814 50.048 4.96114 49.723C5.07514 49.597 5.19413 49.475 5.30813 49.349C4.68413 49.37 4.06012 49.393 3.43612 49.414C3.43712 49.426 3.43713 49.438 3.43813 49.449C3.36513 49.443 3.27713 49.454 3.22313 49.426C3.11113 49.366 2.99014 49.297 2.93014 49.208C2.90514 49.171 3.00913 49.05 3.08813 49.008C3.20613 48.945 3.35013 48.898 3.49013 48.879C3.92213 48.821 4.35712 48.763 4.79412 48.734C4.94312 48.724 5.09214 48.721 5.24114 48.711C5.11714 48.591 4.98612 48.479 4.86312 48.357C4.47512 47.974 4.12613 47.55 3.77413 47.133C3.72513 47.074 3.72313 46.918 3.76513 46.867C3.80713 46.815 3.95412 46.793 4.01812 46.835C4.34812 47.051 4.68814 47.263 4.98214 47.529C5.22814 47.751 5.46114 47.99 5.69814 48.223C5.69114 48.045 5.67513 47.867 5.67113 47.689C5.65713 47.144 5.70114 46.597 5.73614 46.052C5.74114 45.976 5.84814 45.862 5.91414 45.854C5.98014 45.846 6.10113 45.932 6.11913 46.006C6.20713 46.39 6.30414 46.78 6.33114 47.175C6.35514 47.518 6.35714 47.863 6.36614 48.208C6.49714 48.07 6.62212 47.925 6.75512 47.789C7.13612 47.399 7.55814 47.048 7.97414 46.694C8.03214 46.645 8.18813 46.641 8.24013 46.683C8.29213 46.725 8.31513 46.871 8.27413 46.936C8.06013 47.267 7.84913 47.608 7.58513 47.903C7.36313 48.152 7.12413 48.387 6.89013 48.626C7.07013 48.619 7.24913 48.603 7.42913 48.598C7.97413 48.584 8.52112 48.627 9.06612 48.663C9.14212 48.669 9.25612 48.775 9.26412 48.841C9.27212 48.909 9.18714 49.029 9.11214 49.047ZM24.1111 47.782C23.6261 59.186 17.3981 65.172 17.3981 65.172C17.3981 65.172 10.8471 58.701 10.6041 47.62C10.3821 37.491 17.7221 30.149 17.7221 30.149C17.7221 30.149 24.5961 36.377 24.1111 47.782ZM31.7681 28.618C33.0361 28.618 34.0651 29.646 34.0651 30.915C34.0651 32.183 33.0371 33.212 31.7681 33.212C30.5001 33.212 29.4711 32.184 29.4711 30.915C29.4721 29.646 30.5001 28.618 31.7681 28.618ZM31.7681 68.425C30.5001 68.425 29.4711 67.397 29.4711 66.128C29.4711 64.86 30.4991 63.831 31.7681 63.831C33.0361 63.831 34.0651 64.859 34.0651 66.128C34.0651 67.397 33.0371 68.425 31.7681 68.425ZM34.5021 49.047C34.1181 49.135 33.7281 49.232 33.3331 49.259C32.9561 49.286 32.5771 49.288 32.1981 49.297C32.6691 49.753 33.1411 50.209 33.6131 50.665C33.6211 50.656 33.6291 50.648 33.6371 50.639C33.6831 50.696 33.7531 50.751 33.7691 50.81C33.8031 50.932 33.8381 51.067 33.8161 51.173C33.8061 51.217 33.6481 51.226 33.5621 51.198C33.4351 51.157 33.3011 51.086 33.1901 50.998C32.8481 50.727 32.5041 50.455 32.1811 50.16C32.0561 50.047 31.9371 49.928 31.8121 49.815C31.8331 50.437 31.8551 51.06 31.8771 51.682C31.8891 51.681 31.9011 51.681 31.9121 51.68C31.9051 51.752 31.9171 51.841 31.8891 51.895C31.8291 52.007 31.7601 52.128 31.6711 52.188C31.6341 52.213 31.5131 52.109 31.4711 52.03C31.4081 51.912 31.3611 51.768 31.3421 51.628C31.2841 51.196 31.2261 50.761 31.1971 50.324C31.1851 50.145 31.1811 49.964 31.1691 49.785C30.7301 50.242 30.2921 50.7 29.8531 51.158C29.8621 51.166 29.8701 51.174 29.8791 51.182C29.8231 51.228 29.7671 51.298 29.7091 51.315C29.5871 51.35 29.4521 51.385 29.3471 51.363C29.3031 51.354 29.2931 51.195 29.3211 51.109C29.3611 50.982 29.4321 50.848 29.5191 50.736C29.7881 50.393 30.0591 50.048 30.3521 49.723C30.4661 49.597 30.5851 49.475 30.6991 49.349C30.0751 49.37 29.4511 49.393 28.8271 49.414C28.8281 49.426 28.8281 49.438 28.8291 49.449C28.7561 49.443 28.6681 49.454 28.6141 49.426C28.5021 49.366 28.3811 49.297 28.3211 49.208C28.2961 49.171 28.4001 49.05 28.4801 49.008C28.5971 48.945 28.7421 48.898 28.8821 48.879C29.3141 48.821 29.7491 48.763 30.1861 48.734C30.3351 48.724 30.4841 48.721 30.6331 48.711C30.5081 48.591 30.3781 48.479 30.2551 48.357C29.8671 47.974 29.5181 47.55 29.1651 47.133C29.1161 47.074 29.1131 46.918 29.1561 46.867C29.1981 46.815 29.3451 46.793 29.4091 46.835C29.7391 47.051 30.0791 47.263 30.3731 47.529C30.6191 47.751 30.8521 47.99 31.0891 48.223C31.0821 48.045 31.0661 47.868 31.0621 47.69C31.0491 47.145 31.0921 46.598 31.1271 46.053C31.1321 45.977 31.2391 45.863 31.3051 45.855C31.3721 45.847 31.4921 45.933 31.5101 46.007C31.5981 46.391 31.6951 46.781 31.7221 47.176C31.7461 47.519 31.7481 47.864 31.7571 48.209C31.8881 48.071 32.0121 47.926 32.1461 47.79C32.5271 47.4 32.9491 47.049 33.3651 46.695C33.4241 46.646 33.5791 46.642 33.6311 46.684C33.6831 46.726 33.7061 46.872 33.6651 46.937C33.4511 47.268 33.2401 47.609 32.9761 47.904C32.7541 48.153 32.5151 48.388 32.2811 48.627C32.4611 48.62 32.6401 48.604 32.8201 48.599C33.3651 48.585 33.9121 48.628 34.4571 48.664C34.5331 48.67 34.6471 48.776 34.6551 48.842C34.6611 48.909 34.5761 49.029 34.5021 49.047ZM43.7891 21.96C43.9071 21.897 44.0511 21.85 44.1911 21.831C44.6231 21.773 45.0581 21.715 45.4951 21.686C45.6441 21.676 45.7931 21.673 45.9421 21.663C45.8181 21.544 45.6871 21.431 45.5641 21.309C45.1761 20.926 44.8271 20.502 44.4741 20.085C44.4251 20.026 44.4231 19.87 44.4651 19.819C44.5071 19.767 44.6541 19.745 44.7181 19.786C45.0481 20.002 45.3881 20.214 45.6821 20.48C45.9281 20.702 46.1611 20.941 46.3981 21.174C46.3911 20.996 46.3751 20.819 46.3711 20.641C46.3571 20.096 46.4011 19.549 46.4361 19.004C46.4411 18.928 46.5481 18.814 46.6141 18.806C46.6811 18.798 46.8011 18.884 46.8191 18.958C46.9071 19.342 47.0041 19.732 47.0311 20.127C47.0551 20.47 47.0571 20.815 47.0661 21.16C47.1971 21.022 47.3221 20.877 47.4551 20.741C47.8361 20.351 48.2581 20 48.6741 19.646C48.7321 19.597 48.8881 19.593 48.9401 19.635C48.9921 19.677 49.0151 19.823 48.9741 19.888C48.7601 20.219 48.5491 20.56 48.2851 20.855C48.0631 21.104 47.8241 21.339 47.5901 21.578C47.7701 21.571 47.9491 21.555 48.1291 21.55C48.6741 21.536 49.2211 21.58 49.7661 21.615C49.8421 21.62 49.9561 21.727 49.9641 21.793C49.9721 21.859 49.8861 21.98 49.8121 21.998C49.4281 22.086 49.0381 22.183 48.6431 22.211C48.2661 22.237 47.8871 22.24 47.5081 22.249C47.9791 22.705 48.4511 23.161 48.9221 23.617C48.9301 23.608 48.9381 23.6 48.9461 23.591C48.9921 23.648 49.0621 23.703 49.0781 23.762C49.1131 23.884 49.1471 24.019 49.1251 24.125C49.1151 24.169 48.9571 24.178 48.8711 24.15C48.7441 24.109 48.6101 24.038 48.4991 23.95C48.1571 23.679 47.8131 23.407 47.4901 23.112C47.3651 22.999 47.2451 22.88 47.1211 22.767C47.1421 23.389 47.1651 24.012 47.1861 24.634C47.1981 24.633 47.2101 24.633 47.2211 24.632C47.2151 24.704 47.2261 24.793 47.1981 24.847C47.1381 24.959 47.0691 25.08 46.9801 25.14C46.9431 25.165 46.8231 25.061 46.7801 24.982C46.7171 24.864 46.6701 24.72 46.6511 24.58C46.5931 24.148 46.5351 23.713 46.5061 23.276C46.4941 23.097 46.4901 22.916 46.4781 22.737C46.0391 23.194 45.6011 23.652 45.1621 24.11C45.1711 24.118 45.1791 24.126 45.1881 24.134C45.1321 24.18 45.0761 24.25 45.0181 24.267C44.8961 24.302 44.7611 24.337 44.6561 24.315C44.6121 24.306 44.6021 24.147 44.6301 24.061C44.6701 23.934 44.7411 23.8 44.8281 23.688C45.0971 23.345 45.3681 23 45.6611 22.675C45.7751 22.549 45.8941 22.427 46.0081 22.301C45.3841 22.322 44.7601 22.345 44.1361 22.366C44.1371 22.378 44.1371 22.39 44.1381 22.402C44.0661 22.396 43.9771 22.407 43.9231 22.379C43.8111 22.319 43.6901 22.25 43.6301 22.161C43.6061 22.123 43.7091 22.002 43.7891 21.96ZM49.8121 78.009C49.4281 78.097 49.0381 78.194 48.6431 78.221C48.2661 78.248 47.8871 78.25 47.5081 78.259C47.9791 78.715 48.4511 79.171 48.9221 79.627C48.9301 79.618 48.9381 79.61 48.9461 79.601C48.9921 79.658 49.0621 79.713 49.0781 79.772C49.1131 79.894 49.1471 80.029 49.1251 80.135C49.1151 80.179 48.9571 80.188 48.8711 80.16C48.7441 80.119 48.6101 80.048 48.4991 79.96C48.1571 79.689 47.8131 79.417 47.4901 79.122C47.3651 79.009 47.2451 78.89 47.1211 78.777C47.1421 79.399 47.1651 80.022 47.1861 80.644C47.1981 80.643 47.2101 80.643 47.2211 80.642C47.2151 80.714 47.2261 80.803 47.1981 80.857C47.1381 80.969 47.0691 81.09 46.9801 81.15C46.9431 81.175 46.8231 81.071 46.7801 80.992C46.7171 80.874 46.6701 80.73 46.6511 80.59C46.5931 80.158 46.5351 79.723 46.5061 79.286C46.4941 79.107 46.4901 78.926 46.4781 78.747C46.0391 79.204 45.6011 79.662 45.1621 80.12C45.1711 80.128 45.1791 80.136 45.1881 80.144C45.1321 80.19 45.0761 80.26 45.0181 80.277C44.8961 80.312 44.7611 80.347 44.6561 80.325C44.6121 80.316 44.6021 80.157 44.6301 80.071C44.6701 79.944 44.7411 79.81 44.8281 79.698C45.0971 79.355 45.3681 79.01 45.6611 78.684C45.7751 78.558 45.8941 78.436 46.0081 78.31C45.3841 78.331 44.7601 78.354 44.1361 78.375C44.1371 78.387 44.1371 78.399 44.1381 78.41C44.0661 78.404 43.9771 78.416 43.9231 78.387C43.8111 78.327 43.6901 78.258 43.6301 78.169C43.6051 78.132 43.7091 78.012 43.7891 77.969C43.9071 77.906 44.0511 77.859 44.1911 77.84C44.6231 77.782 45.0581 77.724 45.4951 77.695C45.6441 77.685 45.7931 77.682 45.9421 77.672C45.8181 77.552 45.6871 77.44 45.5641 77.318C45.1761 76.935 44.8271 76.511 44.4741 76.094C44.4251 76.035 44.4231 75.879 44.4651 75.828C44.5071 75.776 44.6541 75.754 44.7181 75.796C45.0481 76.012 45.3881 76.224 45.6821 76.49C45.9281 76.712 46.1611 76.951 46.3981 77.184C46.3911 77.006 46.3751 76.828 46.3711 76.65C46.3571 76.105 46.4011 75.558 46.4361 75.013C46.4411 74.937 46.5481 74.823 46.6141 74.815C46.6811 74.807 46.8011 74.893 46.8191 74.967C46.9071 75.351 47.0041 75.741 47.0311 76.136C47.0551 76.479 47.0571 76.824 47.0661 77.169C47.1971 77.031 47.3221 76.886 47.4551 76.75C47.8361 76.36 48.2581 76.009 48.6741 75.655C48.7321 75.606 48.8881 75.603 48.9401 75.644C48.9921 75.686 49.0151 75.832 48.9741 75.897C48.7601 76.228 48.5491 76.569 48.2851 76.865C48.0631 77.114 47.8241 77.349 47.5901 77.588C47.7701 77.581 47.9491 77.565 48.1291 77.56C48.6741 77.546 49.2211 77.589 49.7661 77.625C49.8421 77.631 49.9561 77.737 49.9641 77.803C49.9721 77.871 49.8861 77.991 49.8121 78.009ZM54.1481 49C53.5741 62.492 46.2061 69.573 46.2061 69.573C46.2061 69.573 38.4551 61.918 38.1681 48.808C37.9061 36.825 46.5891 28.139 46.5891 28.139C46.5891 28.139 54.7221 35.508 54.1481 49ZM58.7531 51.315C58.6311 51.35 58.4961 51.385 58.3911 51.363C58.3471 51.354 58.3371 51.195 58.3651 51.109C58.4051 50.982 58.4761 50.848 58.5631 50.736C58.8321 50.393 59.1031 50.048 59.3961 49.723C59.5101 49.597 59.6291 49.475 59.7431 49.349C59.1191 49.37 58.4951 49.393 57.8711 49.414C57.8721 49.426 57.8721 49.438 57.8731 49.449C57.8011 49.443 57.7121 49.454 57.6581 49.426C57.5461 49.366 57.4251 49.297 57.3651 49.208C57.3401 49.171 57.4441 49.05 57.5241 49.008C57.6421 48.945 57.7861 48.898 57.9261 48.879C58.3581 48.821 58.7931 48.763 59.2301 48.734C59.3791 48.724 59.5281 48.721 59.6771 48.711C59.5531 48.591 59.4221 48.479 59.2991 48.357C58.9111 47.974 58.5621 47.55 58.2091 47.133C58.1601 47.074 58.1581 46.918 58.2001 46.867C58.2421 46.815 58.3891 46.793 58.4531 46.835C58.7831 47.051 59.1231 47.263 59.4171 47.529C59.6631 47.751 59.8961 47.99 60.1331 48.223C60.1261 48.045 60.1101 47.867 60.1061 47.689C60.0921 47.144 60.1361 46.597 60.1711 46.052C60.1761 45.976 60.2831 45.862 60.3491 45.854C60.4161 45.846 60.5361 45.932 60.5541 46.006C60.6421 46.39 60.7391 46.78 60.7661 47.175C60.7901 47.518 60.7921 47.863 60.8011 48.208C60.9321 48.07 61.0571 47.925 61.1901 47.789C61.5711 47.399 61.9941 47.048 62.4091 46.694C62.4671 46.645 62.6231 46.641 62.6751 46.683C62.7271 46.725 62.7501 46.871 62.7091 46.936C62.4951 47.267 62.2841 47.608 62.0201 47.903C61.7981 48.152 61.5591 48.387 61.3251 48.626C61.5051 48.619 61.6841 48.603 61.8641 48.598C62.4091 48.584 62.9561 48.627 63.5011 48.663C63.5771 48.669 63.6911 48.775 63.6991 48.841C63.7071 48.907 63.6211 49.028 63.5471 49.045C63.1631 49.133 62.7731 49.23 62.3781 49.257C62.0011 49.284 61.6221 49.286 61.2431 49.295C61.7141 49.751 62.1861 50.207 62.6581 50.663C62.6661 50.654 62.6741 50.646 62.6821 50.637C62.7281 50.694 62.7981 50.749 62.8141 50.808C62.8491 50.93 62.8831 51.065 62.8611 51.171C62.8521 51.215 62.6931 51.224 62.6071 51.196C62.4801 51.155 62.3461 51.084 62.2351 50.996C61.8931 50.725 61.5491 50.453 61.2261 50.158C61.1021 50.045 60.9811 49.926 60.8571 49.813C60.8781 50.435 60.9011 51.058 60.9221 51.68C60.9341 51.679 60.9461 51.679 60.9571 51.678C60.9511 51.75 60.9621 51.839 60.9341 51.893C60.8741 52.005 60.8051 52.126 60.7161 52.186C60.6791 52.211 60.5591 52.107 60.5161 52.028C60.4531 51.91 60.4061 51.766 60.3871 51.626C60.3291 51.194 60.2711 50.759 60.2421 50.322C60.2301 50.143 60.2261 49.962 60.2141 49.783C59.7751 50.24 59.3371 50.698 58.8991 51.156C58.9081 51.164 58.9161 51.172 58.9251 51.18C58.8661 51.227 58.8111 51.298 58.7531 51.315ZM62.0541 68.425C60.7861 68.425 59.7571 67.397 59.7571 66.128C59.7571 64.86 60.7851 63.831 62.0541 63.831C63.3221 63.831 64.3511 64.859 64.3511 66.128C64.3511 67.397 63.3221 68.425 62.0541 68.425ZM62.0541 33.211C60.7861 33.211 59.7571 32.183 59.7571 30.914C59.7571 29.646 60.7851 28.617 62.0541 28.617C63.3221 28.617 64.3511 29.645 64.3511 30.914C64.3511 32.183 63.3221 33.211 62.0541 33.211ZM81.7161 47.782C81.2311 59.186 75.0031 65.172 75.0031 65.172C75.0031 65.172 68.4521 58.701 68.2091 47.62C67.9871 37.491 75.3271 30.149 75.3271 30.149C75.3271 30.149 82.2011 36.377 81.7161 47.782ZM89.8521 48.842C89.8601 48.908 89.7741 49.029 89.7001 49.046C89.3161 49.134 88.9261 49.231 88.5311 49.258C88.1541 49.285 87.7751 49.287 87.3961 49.296C87.8671 49.752 88.3391 50.208 88.8111 50.664C88.8191 50.655 88.8271 50.647 88.8351 50.638C88.8811 50.695 88.9511 50.75 88.9681 50.809C89.0021 50.931 89.0371 51.066 89.0151 51.172C89.0051 51.216 88.8471 51.225 88.7611 51.197C88.6341 51.156 88.5001 51.085 88.3891 50.997C88.0471 50.726 87.7031 50.454 87.3801 50.159C87.2561 50.046 87.1361 49.927 87.0111 49.814C87.0321 50.436 87.0541 51.059 87.0761 51.681C87.0881 51.68 87.1001 51.68 87.1111 51.679C87.1051 51.751 87.1161 51.84 87.0881 51.894C87.0281 52.006 86.9591 52.127 86.8701 52.187C86.8331 52.212 86.7131 52.108 86.6701 52.029C86.6071 51.911 86.5601 51.767 86.5411 51.627C86.4831 51.195 86.4251 50.76 86.3961 50.323C86.3841 50.144 86.3801 49.963 86.3681 49.784C85.9291 50.241 85.4911 50.699 85.0521 51.157C85.0611 51.165 85.0691 51.173 85.0781 51.181C85.0221 51.227 84.9661 51.297 84.9081 51.314C84.7861 51.349 84.6511 51.384 84.5461 51.362C84.5021 51.353 84.4921 51.194 84.5201 51.108C84.5601 50.981 84.6311 50.847 84.7181 50.735C84.9871 50.392 85.2581 50.047 85.5511 49.722C85.6651 49.596 85.7841 49.474 85.8981 49.348C85.2741 49.369 84.6501 49.392 84.0261 49.413C84.0271 49.425 84.0271 49.437 84.0281 49.448C83.9561 49.442 83.8671 49.453 83.8131 49.425C83.7011 49.365 83.5801 49.296 83.5201 49.207C83.4951 49.17 83.5991 49.049 83.6791 49.007C83.7961 48.944 83.9411 48.897 84.0811 48.878C84.5131 48.82 84.9481 48.762 85.3851 48.733C85.5341 48.723 85.6831 48.72 85.8321 48.71C85.7081 48.59 85.5771 48.478 85.4541 48.356C85.0661 47.973 84.7171 47.549 84.3641 47.132C84.3151 47.073 84.3121 46.917 84.3551 46.866C84.3971 46.814 84.5441 46.792 84.6081 46.834C84.9381 47.05 85.2781 47.262 85.5721 47.528C85.8181 47.75 86.0511 47.989 86.2881 48.222C86.2811 48.044 86.2651 47.866 86.2611 47.688C86.2481 47.143 86.2911 46.596 86.3261 46.051C86.3311 45.975 86.4381 45.861 86.5041 45.853C86.5711 45.845 86.6911 45.931 86.7091 46.005C86.7971 46.389 86.8941 46.779 86.9211 47.174C86.9451 47.517 86.9471 47.862 86.9561 48.207C87.0871 48.069 87.2121 47.924 87.3451 47.788C87.7261 47.398 88.1481 47.047 88.5641 46.693C88.6231 46.644 88.7781 46.64 88.8301 46.682C88.8821 46.724 88.9051 46.87 88.8641 46.935C88.6501 47.266 88.4391 47.607 88.1751 47.902C87.9531 48.151 87.7141 48.386 87.4801 48.625C87.6601 48.618 87.8391 48.602 88.0191 48.597C88.5641 48.583 89.1121 48.626 89.6561 48.662C89.7311 48.67 89.8451 48.776 89.8521 48.842Z" fill="#02826B"/>
<path d="M46.5892 28.14C46.5892 28.14 37.9062 36.826 38.1682 48.809C38.4552 61.918 46.2062 69.574 46.2062 69.574C46.2062 69.574 53.5741 62.493 54.1481 49.001C54.7221 35.508 46.5892 28.14 46.5892 28.14ZM48.2272 48.856C48.2272 49.992 47.3061 50.913 46.1701 50.913C45.0341 50.913 44.1131 49.992 44.1131 48.856C44.1131 47.72 45.0341 46.799 46.1701 46.799C47.3061 46.799 48.2272 47.72 48.2272 48.856Z" fill="#C7E2DA"/>
<path d="M44.1122 48.856C44.1122 49.992 45.0331 50.913 46.1691 50.913C47.3051 50.913 48.2261 49.992 48.2261 48.856C48.2261 47.72 47.3051 46.799 46.1691 46.799C45.0331 46.799 44.1122 47.72 44.1122 48.856Z" fill="white"/>
<path d="M17.7211 30.149C17.7211 30.149 10.3811 37.491 10.6031 47.62C10.8461 58.701 17.3971 65.172 17.3971 65.172C17.3971 65.172 23.6251 59.187 24.1101 47.782C24.5961 36.377 17.7211 30.149 17.7211 30.149ZM19.1061 47.66C19.1061 48.62 18.3271 49.399 17.3671 49.399C16.4071 49.399 15.6281 48.62 15.6281 47.66C15.6281 46.7 16.4071 45.921 17.3671 45.921C18.3281 45.921 19.1061 46.7 19.1061 47.66Z" fill="#C7E2DA"/>
<path d="M15.6281 47.66C15.6281 48.62 16.4071 49.399 17.3671 49.399C18.3271 49.399 19.1061 48.62 19.1061 47.66C19.1061 46.7 18.3271 45.921 17.3671 45.921C16.4071 45.921 15.6281 46.7 15.6281 47.66Z" fill="white"/>
<path d="M75.3262 30.149C75.3262 30.149 67.9871 37.491 68.2081 47.62C68.4511 58.701 75.0021 65.172 75.0021 65.172C75.0021 65.172 81.2302 59.187 81.7152 47.782C82.2012 36.377 75.3262 30.149 75.3262 30.149ZM76.7112 47.66C76.7112 48.62 75.9321 49.399 74.9721 49.399C74.0121 49.399 73.2332 48.62 73.2332 47.66C73.2332 46.7 74.0121 45.921 74.9721 45.921C75.9331 45.921 76.7112 46.7 76.7112 47.66Z" fill="#C7E2DA"/>
<path d="M73.2332 47.66C73.2332 48.62 74.0121 49.399 74.9721 49.399C75.9331 49.399 76.7112 48.62 76.7112 47.66C76.7112 46.7 75.9321 45.921 74.9721 45.921C74.0121 45.921 73.2332 46.7 73.2332 47.66Z" fill="white"/>
<path d="M31.7681 33.211C33.0361 33.211 34.0652 32.183 34.0652 30.914C34.0652 29.646 33.0371 28.617 31.7681 28.617C30.5001 28.617 29.4711 29.645 29.4711 30.914C29.4721 32.183 30.5001 33.211 31.7681 33.211Z" fill="#C7E2DA"/>
<path d="M31.7681 68.425C33.0367 68.425 34.0652 67.3966 34.0652 66.128C34.0652 64.8594 33.0367 63.831 31.7681 63.831C30.4995 63.831 29.4711 64.8594 29.4711 66.128C29.4711 67.3966 30.4995 68.425 31.7681 68.425Z" fill="#C7E2DA"/>
<path d="M62.0541 28.618C60.7861 28.618 59.7571 29.646 59.7571 30.915C59.7571 32.183 60.7851 33.212 62.0541 33.212C63.3221 33.212 64.3511 32.184 64.3511 30.915C64.3511 29.646 63.3221 28.618 62.0541 28.618Z" fill="#C7E2DA"/>
<path d="M62.0541 68.425C63.3227 68.425 64.3511 67.3966 64.3511 66.128C64.3511 64.8594 63.3227 63.831 62.0541 63.831C60.7855 63.831 59.7571 64.8594 59.7571 66.128C59.7571 67.3966 60.7855 68.425 62.0541 68.425Z" fill="#C7E2DA"/>
<path d="M61.2411 49.297C61.6201 49.288 62.0001 49.285 62.3761 49.259C62.7711 49.232 63.1611 49.134 63.5451 49.047C63.6191 49.03 63.7051 48.909 63.6971 48.843C63.6891 48.777 63.5761 48.671 63.4991 48.665C62.9541 48.629 62.4072 48.586 61.8622 48.6C61.6822 48.604 61.5032 48.621 61.3232 48.628C61.1972 48.757 61.0761 48.888 60.9501 49.017C61.0471 49.11 61.1441 49.203 61.2411 49.297Z" fill="white"/>
<path d="M59.6761 48.711C59.5271 48.721 59.3781 48.724 59.2291 48.734C58.7921 48.763 58.3571 48.821 57.9251 48.879C57.7841 48.898 57.6401 48.945 57.5231 49.008C57.4431 49.05 57.3401 49.171 57.3641 49.208C57.4241 49.297 57.5461 49.366 57.6571 49.426C57.7111 49.455 57.7991 49.443 57.8721 49.449C57.8711 49.437 57.8711 49.425 57.8701 49.414C58.4941 49.392 59.1181 49.37 59.7421 49.349C59.8361 49.245 59.9331 49.145 60.0271 49.041C59.9111 48.93 59.7921 48.822 59.6761 48.711Z" fill="white"/>
<path d="M60.2121 49.784C60.2231 49.963 60.2281 50.144 60.2401 50.323C60.2691 50.76 60.3271 51.195 60.3851 51.627C60.4041 51.768 60.4511 51.912 60.5141 52.029C60.5561 52.109 60.6771 52.212 60.7141 52.187C60.8031 52.127 60.8731 52.005 60.9321 51.894C60.9611 51.84 60.9491 51.752 60.9551 51.679C60.9431 51.68 60.9311 51.68 60.9201 51.681C60.8981 51.059 60.8761 50.436 60.8551 49.814C60.7361 49.705 60.6201 49.592 60.5011 49.483C60.4041 49.583 60.3091 49.684 60.2121 49.784Z" fill="white"/>
<path d="M60.8001 48.208C60.7911 47.863 60.7891 47.518 60.7651 47.175C60.7371 46.78 60.6401 46.39 60.5531 46.006C60.5361 45.932 60.4151 45.846 60.3481 45.854C60.2821 45.862 60.1761 45.976 60.1701 46.052C60.1341 46.597 60.0911 47.144 60.1051 47.689C60.1091 47.867 60.1261 48.045 60.1321 48.223C60.2461 48.335 60.3631 48.444 60.4761 48.557C60.5851 48.441 60.6911 48.323 60.8001 48.208Z" fill="white"/>
<path d="M60.2121 49.784C60.3081 49.684 60.4041 49.583 60.5001 49.483C60.3411 49.337 60.1851 49.189 60.0281 49.041C59.9341 49.144 59.8361 49.245 59.7431 49.349C59.6291 49.475 59.5101 49.597 59.3961 49.723C59.1031 50.048 58.8321 50.393 58.5631 50.736C58.4761 50.848 58.4051 50.982 58.3651 51.109C58.3371 51.195 58.3471 51.354 58.3911 51.363C58.4961 51.385 58.6321 51.35 58.7531 51.315C58.8121 51.298 58.8671 51.228 58.9231 51.182C58.9141 51.174 58.9061 51.166 58.8971 51.158C59.3361 50.699 59.7741 50.241 60.2121 49.784Z" fill="white"/>
<path d="M60.9191 48.985C60.9291 48.995 60.9401 49.005 60.9501 49.015C61.0761 48.887 61.1982 48.755 61.3232 48.626C61.5572 48.387 61.7961 48.152 62.0181 47.903C62.2821 47.608 62.4932 47.266 62.7072 46.936C62.7482 46.872 62.7251 46.726 62.6731 46.683C62.6221 46.641 62.4661 46.644 62.4071 46.694C61.9921 47.048 61.5691 47.399 61.1881 47.789C61.0551 47.925 60.9301 48.07 60.7991 48.208C60.6901 48.323 60.5841 48.44 60.4761 48.556C60.6231 48.702 60.7711 48.842 60.9191 48.985Z" fill="white"/>
<path d="M60.5011 49.483C60.6201 49.593 60.7361 49.705 60.8551 49.814C60.9791 49.928 61.0991 50.046 61.2241 50.159C61.5481 50.454 61.8911 50.726 62.2331 50.997C62.3441 51.085 62.4781 51.156 62.6051 51.197C62.6911 51.225 62.8501 51.216 62.8591 51.172C62.8811 51.067 62.8471 50.931 62.8121 50.809C62.7951 50.75 62.7251 50.695 62.6801 50.638C62.6721 50.647 62.6641 50.655 62.6561 50.664C62.1841 50.208 61.7131 49.753 61.2411 49.296C61.1441 49.202 61.0461 49.108 60.9491 49.014C60.9391 49.004 60.9281 48.994 60.9181 48.984C60.7711 48.841 60.6221 48.7 60.4761 48.556C60.3621 48.443 60.2461 48.334 60.1321 48.222C59.8951 47.989 59.6621 47.75 59.4161 47.528C59.1221 47.263 58.7811 47.05 58.4521 46.834C58.3881 46.792 58.2421 46.815 58.1991 46.866C58.1571 46.917 58.1591 47.073 58.2081 47.132C58.5601 47.549 58.9101 47.973 59.2981 48.356C59.4211 48.477 59.5511 48.59 59.6761 48.71C59.7921 48.821 59.9111 48.929 60.0281 49.04C60.1861 49.188 60.3421 49.337 60.5011 49.483Z" fill="white"/>
<path d="M87.4781 48.627C87.3521 48.756 87.2311 48.887 87.1051 49.016C87.2021 49.11 87.3001 49.204 87.3971 49.298C87.7761 49.289 88.1561 49.286 88.5321 49.26C88.9271 49.233 89.3171 49.135 89.7011 49.048C89.7751 49.031 89.8611 48.91 89.8531 48.844C89.8451 48.778 89.7312 48.672 89.6552 48.666C89.1112 48.63 88.5631 48.587 88.0181 48.601C87.8371 48.603 87.6581 48.619 87.4781 48.627Z" fill="white"/>
<path d="M85.8311 48.711C85.6821 48.721 85.5332 48.724 85.3842 48.734C84.9472 48.763 84.5121 48.821 84.0801 48.879C83.9391 48.898 83.7951 48.945 83.6781 49.008C83.5981 49.05 83.4951 49.171 83.5191 49.208C83.5791 49.297 83.7011 49.366 83.8121 49.426C83.8661 49.455 83.9541 49.443 84.0271 49.449C84.0261 49.437 84.0261 49.425 84.0251 49.414C84.6491 49.392 85.2731 49.37 85.8971 49.349C85.9911 49.245 86.0881 49.145 86.1821 49.041C86.0661 48.93 85.9471 48.822 85.8311 48.711Z" fill="white"/>
<path d="M86.9551 48.208C86.9461 47.863 86.9441 47.518 86.9201 47.175C86.8931 46.78 86.7951 46.39 86.7081 46.006C86.6911 45.932 86.5701 45.846 86.5031 45.854C86.4371 45.862 86.3311 45.976 86.3251 46.052C86.2891 46.597 86.2461 47.144 86.2601 47.689C86.2641 47.867 86.2801 48.045 86.2871 48.223C86.4011 48.335 86.5181 48.444 86.6311 48.557C86.7401 48.441 86.8461 48.323 86.9551 48.208Z" fill="white"/>
<path d="M86.3681 49.784C86.3791 49.963 86.3841 50.144 86.3961 50.323C86.4251 50.76 86.4831 51.195 86.5411 51.627C86.5601 51.768 86.6071 51.912 86.6701 52.029C86.7121 52.109 86.8331 52.212 86.8701 52.187C86.9591 52.127 87.0291 52.005 87.0881 51.894C87.1171 51.84 87.1051 51.752 87.1111 51.679C87.0991 51.68 87.0871 51.68 87.0761 51.681C87.0541 51.059 87.0321 50.436 87.0111 49.814C86.8921 49.705 86.7761 49.592 86.6571 49.483C86.5601 49.583 86.4641 49.684 86.3681 49.784Z" fill="white"/>
<path d="M86.1831 49.041C86.0891 49.144 85.9911 49.245 85.8981 49.349C85.7841 49.475 85.6651 49.597 85.5511 49.723C85.2581 50.048 84.9871 50.393 84.7181 50.736C84.6311 50.848 84.5601 50.982 84.5201 51.109C84.4921 51.195 84.5021 51.354 84.5461 51.363C84.6511 51.385 84.7871 51.35 84.9081 51.315C84.9671 51.298 85.0221 51.228 85.0781 51.182C85.0691 51.174 85.0611 51.166 85.0521 51.158C85.4911 50.7 85.9291 50.242 86.3681 49.785C86.4641 49.685 86.5601 49.584 86.6561 49.484C86.4971 49.337 86.3411 49.188 86.1831 49.041Z" fill="white"/>
<path d="M87.0741 48.985C87.0841 48.995 87.0951 49.005 87.1051 49.015C87.2311 48.887 87.3531 48.755 87.4781 48.626C87.7121 48.387 87.9511 48.152 88.1731 47.903C88.4371 47.608 88.6482 47.266 88.8622 46.936C88.9032 46.872 88.8801 46.726 88.8281 46.683C88.7761 46.641 88.6211 46.644 88.5621 46.694C88.1471 47.048 87.7241 47.399 87.3431 47.789C87.2101 47.925 87.0851 48.07 86.9541 48.208C86.8451 48.323 86.7391 48.44 86.6311 48.556C86.7781 48.702 86.9261 48.842 87.0741 48.985Z" fill="white"/>
<path d="M87.0741 48.985C86.9271 48.842 86.7781 48.701 86.6321 48.557C86.5181 48.444 86.4021 48.335 86.2881 48.223C86.0511 47.99 85.8181 47.751 85.5721 47.529C85.2781 47.264 84.9371 47.051 84.6081 46.835C84.5441 46.793 84.3981 46.816 84.3551 46.867C84.3131 46.918 84.3151 47.074 84.3641 47.133C84.7161 47.55 85.0651 47.974 85.4541 48.357C85.5771 48.478 85.7071 48.591 85.8321 48.711C85.9481 48.822 86.0671 48.93 86.1841 49.041C86.3411 49.189 86.4981 49.337 86.6561 49.483C86.7751 49.593 86.8911 49.705 87.0101 49.814C87.1341 49.928 87.2541 50.046 87.3791 50.159C87.7031 50.454 88.0461 50.726 88.3881 50.997C88.4991 51.085 88.6331 51.156 88.7601 51.197C88.8461 51.225 89.0051 51.216 89.0141 51.172C89.0361 51.067 89.0021 50.931 88.9671 50.809C88.9501 50.75 88.8801 50.695 88.8341 50.638C88.8261 50.647 88.8181 50.655 88.8101 50.664C88.3381 50.208 87.8661 49.753 87.3951 49.296C87.2981 49.202 87.2001 49.108 87.1031 49.014C87.0941 49.005 87.0841 48.995 87.0741 48.985Z" fill="white"/>
<path d="M30.6331 48.711C30.4841 48.721 30.3341 48.724 30.1861 48.734C29.7491 48.763 29.3141 48.821 28.8821 48.879C28.7411 48.898 28.5971 48.945 28.4801 49.008C28.4001 49.05 28.2971 49.171 28.3211 49.208C28.3811 49.297 28.5031 49.366 28.6141 49.426C28.6681 49.455 28.7561 49.443 28.8291 49.449C28.8281 49.437 28.8281 49.425 28.8271 49.414C29.4511 49.392 30.0751 49.37 30.6991 49.349C30.7931 49.245 30.8901 49.145 30.9841 49.041C30.8681 48.93 30.7491 48.822 30.6331 48.711Z" fill="white"/>
<path d="M34.4561 48.664C33.9111 48.628 33.3642 48.585 32.8192 48.599C32.6392 48.603 32.4602 48.62 32.2802 48.627C32.1542 48.756 32.0331 48.887 31.9071 49.016C32.0041 49.11 32.1011 49.204 32.1991 49.298C32.5781 49.289 32.9581 49.286 33.3341 49.26C33.7291 49.233 34.1191 49.135 34.5031 49.048C34.5771 49.031 34.6632 48.91 34.6552 48.844C34.6462 48.776 34.5321 48.67 34.4561 48.664Z" fill="white"/>
<path d="M31.1691 49.784C31.1801 49.963 31.1851 50.144 31.1971 50.323C31.2261 50.76 31.2841 51.195 31.3421 51.627C31.3611 51.768 31.4081 51.912 31.4711 52.029C31.5131 52.109 31.6341 52.212 31.6711 52.187C31.7601 52.127 31.8301 52.005 31.8891 51.894C31.9181 51.84 31.9061 51.752 31.9121 51.679C31.9001 51.68 31.8881 51.68 31.8771 51.681C31.8551 51.059 31.8331 50.436 31.8121 49.814C31.6931 49.705 31.5771 49.592 31.4581 49.483C31.3611 49.583 31.2651 49.684 31.1691 49.784Z" fill="white"/>
<path d="M31.7561 48.208C31.7471 47.863 31.7451 47.518 31.7211 47.175C31.6941 46.78 31.5962 46.39 31.5092 46.006C31.4922 45.932 31.3711 45.846 31.3041 45.854C31.2381 45.862 31.1321 45.976 31.1261 46.052C31.0901 46.597 31.0471 47.144 31.0611 47.689C31.0651 47.867 31.0811 48.045 31.0881 48.222C31.2021 48.334 31.3191 48.443 31.4321 48.556C31.5411 48.441 31.6471 48.323 31.7561 48.208Z" fill="white"/>
<path d="M30.9851 49.041C30.8911 49.144 30.7931 49.245 30.7001 49.349C30.5861 49.475 30.4671 49.597 30.3531 49.723C30.0601 50.048 29.7891 50.393 29.5201 50.736C29.4331 50.848 29.3621 50.982 29.3221 51.109C29.2941 51.195 29.3041 51.354 29.3481 51.363C29.4531 51.385 29.5891 51.35 29.7101 51.315C29.7691 51.298 29.8241 51.228 29.8801 51.182C29.8711 51.174 29.8631 51.166 29.8541 51.158C30.2931 50.7 30.7311 50.242 31.1701 49.785C31.2661 49.685 31.3621 49.584 31.4581 49.484C31.2981 49.337 31.1421 49.188 30.9851 49.041Z" fill="white"/>
<path d="M31.8752 48.985C31.8852 48.995 31.8961 49.005 31.9061 49.015C32.0321 48.887 32.1541 48.755 32.2791 48.626C32.5131 48.387 32.7522 48.152 32.9742 47.903C33.2382 47.608 33.4491 47.266 33.6631 46.936C33.7041 46.872 33.6812 46.726 33.6292 46.683C33.5772 46.641 33.4221 46.644 33.3631 46.694C32.9481 47.048 32.5251 47.399 32.1441 47.789C32.0111 47.925 31.8861 48.07 31.7551 48.208C31.6461 48.323 31.5401 48.44 31.4321 48.556C31.5791 48.702 31.7272 48.842 31.8752 48.985Z" fill="white"/>
<path d="M31.8751 48.985C31.7281 48.842 31.5791 48.701 31.4331 48.557C31.3191 48.444 31.2031 48.335 31.0891 48.223C30.8521 47.99 30.6201 47.751 30.3731 47.529C30.0791 47.264 29.7381 47.051 29.4091 46.835C29.3451 46.793 29.1991 46.816 29.1561 46.867C29.1141 46.918 29.1161 47.074 29.1651 47.133C29.5171 47.55 29.8671 47.974 30.2551 48.357C30.3781 48.478 30.5081 48.591 30.6331 48.711C30.7491 48.822 30.8681 48.93 30.9851 49.041C31.1421 49.189 31.2991 49.337 31.4571 49.483C31.5761 49.593 31.6921 49.705 31.8111 49.814C31.9351 49.928 32.0551 50.046 32.1801 50.159C32.5041 50.454 32.8471 50.726 33.1891 50.997C33.3001 51.085 33.4341 51.156 33.5611 51.197C33.6471 51.225 33.8061 51.216 33.8151 51.172C33.8371 51.067 33.8031 50.931 33.7681 50.809C33.7511 50.75 33.6811 50.695 33.6361 50.638C33.6281 50.647 33.6201 50.655 33.6121 50.664C33.1401 50.208 32.6681 49.753 32.1971 49.296C32.1001 49.202 32.0021 49.108 31.9051 49.014C31.8961 49.005 31.8851 48.995 31.8751 48.985Z" fill="white"/>
<path d="M5.24313 48.711C5.09413 48.721 4.94414 48.724 4.79614 48.734C4.35914 48.763 3.92413 48.821 3.49213 48.879C3.35113 48.898 3.20715 48.945 3.09015 49.008C3.01015 49.05 2.90713 49.171 2.93213 49.208C2.99213 49.297 3.11413 49.366 3.22513 49.426C3.27913 49.455 3.36716 49.443 3.44016 49.449C3.43916 49.437 3.43914 49.425 3.43814 49.414C4.06214 49.392 4.68615 49.37 5.31015 49.349C5.40415 49.245 5.50116 49.145 5.59516 49.041C5.47816 48.93 5.35913 48.822 5.24313 48.711Z" fill="white"/>
<path d="M9.06613 48.664C8.52113 48.628 7.97414 48.585 7.42914 48.599C7.24914 48.603 7.07014 48.62 6.89014 48.627C6.76414 48.756 6.64315 48.887 6.51715 49.016C6.61415 49.11 6.71114 49.204 6.80914 49.298C7.18814 49.289 7.56815 49.286 7.94415 49.26C8.33915 49.233 8.72913 49.135 9.11313 49.048C9.18813 49.031 9.27314 48.91 9.26514 48.844C9.25614 48.776 9.14213 48.67 9.06613 48.664Z" fill="white"/>
<path d="M6.36712 48.208C6.35812 47.863 6.35615 47.518 6.33215 47.175C6.30415 46.78 6.20714 46.39 6.12014 46.006C6.10314 45.932 5.98213 45.846 5.91513 45.854C5.84913 45.862 5.74315 45.976 5.73715 46.052C5.70115 46.597 5.65815 47.144 5.67215 47.689C5.67615 47.867 5.69312 48.045 5.69912 48.223C5.81312 48.335 5.93015 48.444 6.04315 48.557C6.15115 48.441 6.25812 48.323 6.36712 48.208Z" fill="white"/>
<path d="M5.77914 49.784C5.79014 49.963 5.79513 50.144 5.80713 50.323C5.83613 50.76 5.89415 51.195 5.95215 51.627C5.97115 51.768 6.01815 51.912 6.08115 52.029C6.12315 52.109 6.24413 52.212 6.28113 52.187C6.37013 52.127 6.43915 52.005 6.49915 51.894C6.52815 51.84 6.51613 51.752 6.52213 51.679C6.51013 51.68 6.49815 51.68 6.48715 51.681C6.46515 51.059 6.44315 50.436 6.42215 49.814C6.30315 49.705 6.18715 49.592 6.06815 49.483C5.97115 49.583 5.87514 49.684 5.77914 49.784Z" fill="white"/>
<path d="M5.59515 49.041C5.50115 49.144 5.40314 49.245 5.31014 49.349C5.19614 49.475 5.07713 49.597 4.96313 49.723C4.67013 50.048 4.39912 50.393 4.13012 50.736C4.04312 50.848 3.97212 50.982 3.93212 51.109C3.90412 51.195 3.91412 51.354 3.95812 51.363C4.06312 51.385 4.19912 51.35 4.32012 51.315C4.37912 51.298 4.43414 51.228 4.49014 51.182C4.48114 51.174 4.47314 51.166 4.46414 51.158C4.90314 50.7 5.34114 50.242 5.78014 49.785C5.87614 49.685 5.97214 49.584 6.06814 49.484C5.90914 49.337 5.75215 49.188 5.59515 49.041Z" fill="white"/>
<path d="M6.48514 48.985C6.49514 48.995 6.50614 49.005 6.51614 49.015C6.64214 48.887 6.76413 48.755 6.88913 48.626C7.12313 48.387 7.36214 48.152 7.58414 47.903C7.84814 47.608 8.05913 47.266 8.27313 46.936C8.31413 46.872 8.29114 46.726 8.23914 46.683C8.18814 46.641 8.03214 46.644 7.97314 46.694C7.55814 47.048 7.13515 47.399 6.75415 47.789C6.62115 47.925 6.49614 48.07 6.36514 48.208C6.25614 48.323 6.15014 48.44 6.04214 48.556C6.18914 48.702 6.33814 48.842 6.48514 48.985Z" fill="white"/>
<path d="M6.48513 48.985C6.33813 48.842 6.18915 48.701 6.04315 48.557C5.92915 48.444 5.81312 48.335 5.69912 48.223C5.46212 47.99 5.22915 47.751 4.98315 47.529C4.68915 47.264 4.34813 47.051 4.01913 46.835C3.95513 46.793 3.80914 46.816 3.76614 46.867C3.72414 46.918 3.72614 47.074 3.77514 47.133C4.12714 47.55 4.47713 47.974 4.86413 48.357C4.98713 48.478 5.11712 48.591 5.24212 48.711C5.35812 48.822 5.47714 48.93 5.59414 49.041C5.75114 49.189 5.90813 49.337 6.06613 49.483C6.18513 49.593 6.30113 49.705 6.42013 49.814C6.54413 49.928 6.66415 50.046 6.78915 50.159C7.11315 50.454 7.45613 50.726 7.79913 50.997C7.91013 51.085 8.04414 51.156 8.17114 51.197C8.25714 51.225 8.41613 51.216 8.42513 51.172C8.44713 51.067 8.41314 50.931 8.37814 50.809C8.36114 50.75 8.29115 50.695 8.24615 50.638C8.23815 50.647 8.23013 50.655 8.22213 50.664C7.75013 50.208 7.27812 49.753 6.80712 49.296C6.71012 49.202 6.61213 49.108 6.51513 49.014C6.50613 49.005 6.49513 48.995 6.48513 48.985Z" fill="white"/>
<path d="M47.5081 22.249C47.8871 22.24 48.2671 22.237 48.6431 22.211C49.0381 22.184 49.4281 22.086 49.8121 21.998C49.8861 21.981 49.9721 21.86 49.9641 21.793C49.9561 21.727 49.8421 21.621 49.7661 21.615C49.2211 21.579 48.6742 21.536 48.1292 21.55C47.9492 21.554 47.7701 21.571 47.5901 21.578C47.4641 21.707 47.3431 21.839 47.2171 21.967C47.3131 22.061 47.4111 22.155 47.5081 22.249Z" fill="white"/>
<path d="M44.1391 22.401C44.1381 22.389 44.1381 22.377 44.1371 22.365C44.7611 22.343 45.3852 22.321 46.0092 22.3C46.1032 22.196 46.2001 22.096 46.2941 21.992C46.1771 21.882 46.0581 21.774 45.9421 21.662C45.7931 21.672 45.6431 21.675 45.4951 21.685C45.0581 21.714 44.6231 21.772 44.1911 21.83C44.0501 21.849 43.9062 21.896 43.7892 21.959C43.7092 22.001 43.6061 22.122 43.6301 22.159C43.6901 22.248 43.8121 22.318 43.9231 22.377C43.9781 22.407 44.0661 22.395 44.1391 22.401Z" fill="white"/>
<path d="M47.0671 21.16C47.0581 20.815 47.0561 20.47 47.0321 20.127C47.0041 19.732 46.9071 19.342 46.8201 18.958C46.8031 18.883 46.6821 18.798 46.6151 18.806C46.5491 18.814 46.4431 18.928 46.4371 19.004C46.4011 19.549 46.3581 20.096 46.3721 20.641C46.3761 20.819 46.3921 20.997 46.3991 21.174C46.5131 21.286 46.6301 21.395 46.7431 21.508C46.8511 21.393 46.9571 21.275 47.0671 21.16Z" fill="white"/>
<path d="M46.4791 22.736C46.4901 22.916 46.4951 23.096 46.5071 23.275C46.5361 23.712 46.5941 24.147 46.6521 24.579C46.6711 24.72 46.7181 24.864 46.7811 24.981C46.8241 25.061 46.9441 25.164 46.9811 25.139C47.0701 25.079 47.1401 24.957 47.1991 24.846C47.2281 24.792 47.2161 24.704 47.2221 24.631C47.2101 24.631 47.1981 24.632 47.1871 24.633C47.1651 24.01 47.1431 23.388 47.1221 22.766C47.0031 22.657 46.8871 22.544 46.7681 22.435C46.6711 22.535 46.5751 22.635 46.4791 22.736Z" fill="white"/>
<path d="M47.1852 21.937C47.1952 21.947 47.2061 21.957 47.2161 21.967C47.3421 21.839 47.4641 21.707 47.5891 21.578C47.8231 21.339 48.0621 21.104 48.2841 20.855C48.5481 20.56 48.7591 20.218 48.9731 19.888C49.0141 19.824 48.9911 19.678 48.9391 19.635C48.8881 19.593 48.7321 19.596 48.6731 19.646C48.2581 20 47.8351 20.351 47.4541 20.741C47.3211 20.877 47.1962 21.022 47.0652 21.16C46.9562 21.275 46.8501 21.392 46.7421 21.508C46.8891 21.653 47.0382 21.794 47.1852 21.937Z" fill="white"/>
<path d="M46.2951 21.992C46.2011 22.095 46.1031 22.196 46.0101 22.3C45.8961 22.426 45.7771 22.548 45.6631 22.674C45.3701 22.999 45.0991 23.344 44.8301 23.687C44.7431 23.799 44.6721 23.933 44.6321 24.06C44.6041 24.146 44.6141 24.305 44.6581 24.314C44.7631 24.336 44.8991 24.301 45.0201 24.266C45.0791 24.249 45.1341 24.179 45.1901 24.133C45.1811 24.125 45.1731 24.117 45.1641 24.109C45.6031 23.651 46.0411 23.193 46.4801 22.736C46.5761 22.636 46.6721 22.535 46.7681 22.435C46.6091 22.288 46.4521 22.14 46.2951 21.992Z" fill="white"/>
<path d="M46.7671 22.435C46.8861 22.545 47.0021 22.657 47.1211 22.766C47.2451 22.88 47.3651 22.998 47.4901 23.111C47.8141 23.406 48.1571 23.678 48.4991 23.949C48.6101 24.037 48.7441 24.108 48.8711 24.149C48.9571 24.177 49.1161 24.168 49.1251 24.124C49.1471 24.019 49.1131 23.883 49.0781 23.761C49.0611 23.702 48.9911 23.647 48.9461 23.59C48.9381 23.598 48.9301 23.607 48.9221 23.616C48.4501 23.16 47.9791 22.705 47.5081 22.248C47.4111 22.154 47.3131 22.06 47.2161 21.966C47.2061 21.956 47.1951 21.946 47.1851 21.936C47.0381 21.793 46.8891 21.653 46.7431 21.508C46.6291 21.395 46.5131 21.286 46.3991 21.174C46.1621 20.941 45.9291 20.702 45.6831 20.48C45.3891 20.215 45.0481 20.002 44.7191 19.786C44.6551 19.744 44.5091 19.767 44.4661 19.819C44.4241 19.87 44.4261 20.026 44.4751 20.085C44.8271 20.502 45.1771 20.926 45.5651 21.309C45.6881 21.43 45.8181 21.543 45.9431 21.663C46.0591 21.774 46.1781 21.882 46.2951 21.993C46.4521 22.14 46.6091 22.288 46.7671 22.435Z" fill="white"/>
<path d="M49.7661 77.626C49.2211 77.59 48.6742 77.547 48.1292 77.561C47.9492 77.565 47.7701 77.582 47.5901 77.589C47.4641 77.718 47.3431 77.85 47.2171 77.978C47.3141 78.072 47.4112 78.166 47.5092 78.26C47.8882 78.251 48.2681 78.248 48.6441 78.222C49.0391 78.195 49.4291 78.097 49.8131 78.01C49.8871 77.993 49.9731 77.872 49.9651 77.806C49.9561 77.738 49.8421 77.632 49.7661 77.626Z" fill="white"/>
<path d="M45.9431 77.673C45.7941 77.682 45.6452 77.686 45.4962 77.696C45.0592 77.725 44.6241 77.783 44.1921 77.841C44.0511 77.86 43.9071 77.907 43.7901 77.97C43.7101 78.012 43.6071 78.133 43.6311 78.17C43.6911 78.259 43.8131 78.329 43.9241 78.388C43.9781 78.417 44.0661 78.405 44.1391 78.411C44.1381 78.399 44.1381 78.387 44.1371 78.376C44.7611 78.354 45.3852 78.332 46.0092 78.311C46.1032 78.207 46.2001 78.107 46.2951 78.003C46.1781 77.892 46.0591 77.784 45.9431 77.673Z" fill="white"/>
<path d="M47.0671 77.17C47.0581 76.825 47.0561 76.48 47.0321 76.137C47.0041 75.742 46.9071 75.352 46.8201 74.968C46.8031 74.893 46.6821 74.808 46.6151 74.816C46.5491 74.824 46.4431 74.938 46.4371 75.014C46.4011 75.559 46.3581 76.106 46.3721 76.651C46.3761 76.829 46.3921 77.007 46.3991 77.185C46.5131 77.297 46.6301 77.406 46.7431 77.519C46.8511 77.403 46.9571 77.285 47.0671 77.17Z" fill="white"/>
<path d="M46.4791 78.746C46.4901 78.926 46.4951 79.106 46.5071 79.285C46.5361 79.722 46.5941 80.157 46.6521 80.589C46.6711 80.73 46.7181 80.874 46.7811 80.991C46.8241 81.071 46.9441 81.174 46.9811 81.149C47.0701 81.089 47.1401 80.967 47.1991 80.856C47.2281 80.802 47.2161 80.714 47.2221 80.641C47.2101 80.641 47.1981 80.642 47.1871 80.643C47.1651 80.021 47.1431 79.398 47.1221 78.776C47.0031 78.667 46.8871 78.554 46.7681 78.445C46.6711 78.545 46.5751 78.646 46.4791 78.746Z" fill="white"/>
<path d="M47.1852 77.947C47.1952 77.957 47.2061 77.967 47.2161 77.977C47.3421 77.849 47.4641 77.717 47.5891 77.588C47.8231 77.349 48.0621 77.114 48.2841 76.865C48.5481 76.57 48.7591 76.228 48.9731 75.897C49.0141 75.833 48.9911 75.687 48.9391 75.644C48.8881 75.602 48.7321 75.605 48.6731 75.655C48.2581 76.009 47.8351 76.36 47.4541 76.75C47.3211 76.886 47.1962 77.031 47.0652 77.169C46.9562 77.284 46.8501 77.401 46.7421 77.517C46.8891 77.663 47.0382 77.804 47.1852 77.947Z" fill="white"/>
<path d="M46.2951 78.002C46.2011 78.105 46.1031 78.206 46.0091 78.31C45.8951 78.436 45.7761 78.558 45.6621 78.684C45.3691 79.009 45.0981 79.354 44.8291 79.698C44.7421 79.81 44.6711 79.944 44.6311 80.071C44.6031 80.157 44.6131 80.316 44.6571 80.325C44.7621 80.347 44.8981 80.312 45.0191 80.277C45.0781 80.26 45.1331 80.19 45.1891 80.144C45.1801 80.136 45.1721 80.128 45.1631 80.12C45.6021 79.662 46.0401 79.204 46.4791 78.747C46.5751 78.647 46.6711 78.546 46.7671 78.446C46.6091 78.298 46.4521 78.15 46.2951 78.002Z" fill="white"/>
<path d="M47.1851 77.947C47.0381 77.804 46.8891 77.663 46.7431 77.519C46.6291 77.406 46.5131 77.297 46.3991 77.185C46.1621 76.952 45.9291 76.713 45.6831 76.491C45.3891 76.225 45.0481 76.013 44.7191 75.797C44.6551 75.755 44.5091 75.778 44.4661 75.829C44.4241 75.88 44.4261 76.036 44.4751 76.095C44.8271 76.512 45.1771 76.936 45.5651 77.319C45.6881 77.44 45.8181 77.553 45.9431 77.673C46.0591 77.784 46.1781 77.892 46.2951 78.003C46.4521 78.151 46.6091 78.299 46.7671 78.445C46.8861 78.554 47.0021 78.667 47.1211 78.776C47.2451 78.89 47.3651 79.008 47.4901 79.121C47.8141 79.416 48.1571 79.688 48.4991 79.959C48.6101 80.047 48.7441 80.118 48.8711 80.159C48.9571 80.187 49.1161 80.178 49.1251 80.134C49.1471 80.029 49.1131 79.893 49.0781 79.771C49.0611 79.712 48.9911 79.657 48.9461 79.6C48.9381 79.608 48.9301 79.617 48.9221 79.626C48.4501 79.17 47.9791 78.715 47.5081 78.258C47.4111 78.164 47.3131 78.07 47.2161 77.976C47.2061 77.967 47.1951 77.957 47.1851 77.947Z" fill="white"/>
<path d="M6.98013 40.128L6.52713 39.846C11.8271 31.336 20.9301 25.506 30.8761 24.249L30.9431 24.778C21.1541 26.014 12.1961 31.753 6.98013 40.128Z" fill="#5A150E"/>
<path d="M10.5822 38.335L10.1601 38.009C14.5831 32.276 21.1701 28.069 28.2311 26.468L28.3492 26.988C21.4062 28.563 14.9302 32.699 10.5822 38.335Z" fill="#5A150E"/>
<path d="M13.8761 38.071L13.4501 37.749C16.6751 33.484 21.2981 30.384 26.4681 29.018L26.6041 29.534C21.5491 30.869 17.0291 33.901 13.8761 38.071Z" fill="#5A150E"/>
<path d="M61.6501 73.989L61.5811 73.46C70.4961 72.302 78.8862 67.658 84.5992 60.718L85.0111 61.057C79.2131 68.101 70.6981 72.814 61.6501 73.989Z" fill="#5A150E"/>
<path d="M65.6642 71.76L65.5481 71.239C71.6671 69.885 77.3182 66.55 81.4612 61.849L81.8611 62.202C77.6441 66.987 71.8912 70.381 65.6642 71.76Z" fill="#5A150E"/>
<path d="M68.9581 69.07L68.7901 68.564C71.4371 67.682 73.8742 66.167 75.8362 64.183L76.2151 64.558C74.1941 66.602 71.6851 68.162 68.9581 69.07Z" fill="#5A150E"/>
<path d="M33.3071 9.04401V20.701C33.3071 21.581 39.0771 22.294 46.1961 22.294C53.3151 22.294 59.0851 21.581 59.0851 20.701V9.04401H33.3071Z" fill="#FFB631"/>
<path d="M46.1961 10.637C53.3145 10.637 59.0851 9.9238 59.0851 9.04401C59.0851 8.16422 53.3145 7.451 46.1961 7.451C39.0777 7.451 33.3071 8.16422 33.3071 9.04401C33.3071 9.9238 39.0777 10.637 46.1961 10.637Z" fill="#FFCD70"/>
<path d="M46.1961 0C44.3441 0 42.8381 1.507 42.8381 3.358V9.336H43.8211V5.818H43.8471V3.358C43.8471 2.062 44.9011 1.008 46.1971 1.008C47.4921 1.008 48.5461 2.062 48.5461 3.358V5.818V8.327V9.336H49.5551V3.358C49.5541 1.507 48.0481 0 46.1961 0Z" fill="#FFCD70"/>
<path opacity="0.4" d="M86.1811 42.172C86.1811 42.172 85.4131 56.389 74.0601 66.646C62.7061 76.903 57.5821 70.754 63.6501 64.993C69.7191 59.232 73.7071 57.087 78.1791 49.591C82.6471 42.098 85.3421 38.136 86.1811 42.172ZM57.2761 70.846C57.2761 70.846 54.5041 75.103 50.9051 72.523C47.3021 69.947 48.0911 69.443 50.4641 68.535C52.8351 67.631 56.3671 66.936 57.2761 70.846Z" fill="white"/>
</svg>
