<svg width="113" height="133" viewBox="0 0 113 133" fill="none" xmlns="http://www.w3.org/2000/svg">
<path d="M99.1976 89.3064C106.401 65.5156 92.9546 40.3896 69.1638 33.186C45.3729 25.9824 20.2469 39.429 13.0433 63.2198C5.83969 87.0107 19.2863 112.137 43.0772 119.34C66.868 126.544 91.994 113.097 99.1976 89.3064Z" fill="white"/>
<path d="M45.3923 65.3744C46.4693 67.2214 48.7783 67.8364 50.6253 66.8364C52.4723 65.7594 53.0883 63.3734 52.0103 61.5264C51.0103 59.6794 48.6243 59.0634 46.7773 60.1414C44.9303 61.2184 44.3153 63.5274 45.3923 65.3744ZM23.8453 61.2184C25.3843 62.0644 27.2313 61.6034 28.0773 60.1414C28.9233 58.6024 28.4623 56.7554 26.9233 55.9094C25.4613 55.0624 23.6143 55.5244 22.7683 57.0634C21.9223 58.5254 22.3833 60.3724 23.8453 61.2184ZM88.3323 61.2184C89.7943 60.3714 90.2563 58.5254 89.4093 57.0634C88.5633 55.5244 86.7163 55.0624 85.2543 55.9094C83.7923 56.7554 83.2533 58.6024 84.1003 60.1414C84.9463 61.6034 86.8703 62.0654 88.3323 61.2184ZM46.0853 95.9244C45.3923 94.8474 44.0073 94.4624 42.9303 95.0784C41.7763 95.6944 41.3914 97.1564 42.0844 98.2334C42.7004 99.3104 44.0854 99.6954 45.2394 99.0804C46.3164 98.4634 46.7003 97.0014 46.0853 95.9244ZM23.8453 91.3074C22.3833 92.1534 21.9213 94.0774 22.7683 95.5394C23.6143 97.0014 25.4613 97.5404 26.9233 96.6164C28.4623 95.7704 28.9243 93.9234 28.0773 92.4614C27.2313 90.9994 25.3843 90.4604 23.8453 91.3074ZM65.4003 60.1414C63.5533 59.0644 61.2453 59.6794 60.1673 61.5264C59.0903 63.3734 59.7053 65.7584 61.5523 66.8364C63.3993 67.8364 65.7843 67.2214 66.8623 65.3744C67.8623 63.5274 67.2473 61.2184 65.4003 60.1414ZM66.1693 56.6014C66.7853 57.7554 68.1703 58.1404 69.3243 57.4484C70.4013 56.8324 70.7864 55.4474 70.1714 54.2934C69.4784 53.2164 68.0933 52.8314 67.0163 53.4474C65.8623 54.1384 65.4773 55.5244 66.1693 56.6014ZM44.0844 57.7554C45.3924 57.7554 46.3933 56.7554 46.3933 55.4464C46.3933 54.1384 45.3934 53.1374 44.0844 53.1374C42.8534 53.1374 41.7753 54.1374 41.7753 55.4464C41.7753 56.7554 42.8534 57.7554 44.0844 57.7554ZM46.7773 92.3844C48.6243 93.4614 50.9323 92.8464 52.0103 90.9994C53.0873 89.1524 52.4723 86.8444 50.6253 85.7664C48.7783 84.6894 46.3933 85.3044 45.3923 87.1514C44.3153 88.9984 44.9303 91.3844 46.7773 92.3844ZM56.0894 43.9044C57.7824 43.9044 59.1673 42.5194 59.1673 40.8264C59.1673 39.1334 57.7824 37.7484 56.0894 37.7484C54.3964 37.7484 53.0114 39.1334 53.0114 40.8264C53.0114 42.5194 54.3964 43.9044 56.0894 43.9044ZM56.0894 108.621C54.3964 108.621 53.0114 110.006 53.0114 111.699C53.0114 113.392 54.3964 114.777 56.0894 114.777C57.7824 114.777 59.1673 113.392 59.1673 111.699C59.1673 110.006 57.7824 108.621 56.0894 108.621ZM78.0974 75.1474C77.4814 76.2244 77.8663 77.6864 78.9433 78.3024C80.0973 78.9184 81.4823 78.5334 82.0983 77.4554C82.7913 76.3784 82.4063 74.9164 81.2513 74.3004C80.1753 73.6844 78.7904 74.0694 78.0974 75.1474ZM34.0804 77.3784C34.6964 76.3014 34.3113 74.9164 33.2343 74.2234C32.0803 73.6084 30.6953 73.9924 30.0793 75.0704C29.3863 76.2244 29.7714 77.6104 30.9254 78.2254C32.0024 78.9174 33.3884 78.5334 34.0804 77.3784ZM67.0163 76.3014C67.0163 78.3794 68.7864 80.1494 70.8644 80.1494C73.0194 80.1494 74.7123 78.3794 74.7123 76.3014C74.7123 74.1464 73.0194 72.4534 70.8644 72.4534C68.7864 72.4534 67.0163 74.1464 67.0163 76.3014ZM45.1613 76.3014C45.1613 74.1464 43.4684 72.4534 41.3134 72.4534C39.1584 72.4534 37.4653 74.1464 37.4653 76.3014C37.4653 78.3794 39.1584 80.1494 41.3134 80.1494C43.4684 80.1494 45.1613 78.3794 45.1613 76.3014ZM66.8623 87.1514C65.7853 85.3044 63.3993 84.6884 61.5523 85.7664C59.7053 86.8434 59.0903 89.1524 60.1673 90.9994C61.2443 92.8464 63.5533 93.4614 65.4003 92.3844C67.2473 91.3844 67.8623 88.9984 66.8623 87.1514ZM68.0934 94.7704C66.7854 94.7704 65.7843 95.8474 65.7843 97.0794C65.7843 98.3874 66.7844 99.3884 68.0934 99.3884C69.4024 99.3884 70.4023 98.3884 70.4023 97.0794C70.4023 95.8474 69.4014 94.7704 68.0934 94.7704ZM89.1783 83.4574L77.1733 86.6894L73.4023 84.4574L79.2503 82.9184C80.0203 82.6874 80.5583 81.8414 80.3273 80.9944C80.0963 80.2244 79.2504 79.6864 78.4034 79.9174L69.6303 82.3034L62.0123 77.9174C62.3973 76.8404 62.3203 75.6854 62.0123 74.6084L69.6303 70.2224L78.4034 72.6084L80.3273 71.5314C80.5583 70.6844 80.0193 69.8384 79.2503 69.6074L73.4023 68.0684L77.1733 65.9134L89.1783 69.0684C90.0243 69.2994 90.7944 68.9914 91.1024 67.9914C91.2564 67.2214 90.7943 66.3754 89.9483 66.1444L78.8673 63.1434L81.8684 51.9854C82.0224 51.2164 81.5604 50.3694 80.7144 50.1384C79.9444 49.9074 79.0983 50.3694 78.8673 51.2154L75.6353 63.2204L71.8644 65.3754L73.4034 59.6044C73.6344 58.7584 73.1724 57.9114 72.3264 57.6804C71.4804 57.4494 70.6333 57.9884 70.4023 58.7574L68.0934 67.6074L60.4753 71.9934C59.7053 71.2234 58.7053 70.6084 57.6283 70.3774V61.5274L64.0924 55.1404C64.7084 54.5244 64.7084 53.5244 64.0924 52.9084C63.4764 52.3694 62.4764 52.3694 61.9374 52.9084L57.6283 57.2174V52.8314L66.4013 44.0584C67.0173 43.4424 67.0173 42.4424 66.4013 41.8264C65.7853 41.2874 64.8623 41.2874 64.2463 41.8264L56.0894 49.9834L47.9323 41.8264C47.3163 41.2874 46.3933 41.2874 45.7773 41.8264C45.1613 42.4424 45.1613 43.4424 45.7773 44.0584L54.5504 52.8314V57.2174L50.3183 52.9084C49.7023 52.3694 48.7023 52.3694 48.0863 52.9084C47.4703 53.5244 47.4703 54.5244 48.0863 55.1404L54.5504 61.5274V70.3774C53.4734 70.6084 52.4723 71.2234 51.7033 71.9934L44.0853 67.6074L41.7763 58.7574C41.5453 57.9874 40.6994 57.4494 39.8524 57.6804C39.0824 57.9114 38.5443 58.7574 38.7753 59.6044L40.3913 65.3754L36.5433 63.2204L33.3113 51.2154C33.0803 50.3694 32.2344 49.9074 31.4644 50.1384C30.6174 50.3694 30.1563 51.2154 30.3873 51.9854L33.3113 63.1434L22.2303 66.1444C21.3843 66.3754 20.9224 67.2214 21.1534 67.9914C21.3844 68.8374 21.9993 69.2994 23.0003 69.0684L35.0053 65.9134L38.8533 68.0684L33.0053 69.6074C32.1593 69.8384 31.6973 70.6844 31.9283 71.5314C32.1593 72.4544 33.0053 72.8394 33.7753 72.6084L42.5483 70.2224L50.1664 74.6084C49.8584 75.6854 49.7814 76.8404 50.1664 77.9174L42.5483 82.3034L33.7753 79.9174C32.9283 79.6864 32.0823 80.2254 31.9283 80.9944C31.6973 81.8404 32.1593 82.6874 33.0053 82.9184L38.8533 84.4574L35.0053 86.6894L23.0003 83.4574C22.2303 83.2264 21.3844 83.6884 21.1534 84.5344C20.9224 85.3804 21.3843 86.2274 22.2303 86.4584L33.3113 89.3824L30.3873 100.54C30.1563 101.387 30.6184 102.31 31.4644 102.464C32.2344 102.618 33.0803 102.31 33.3113 101.31L36.5433 89.3054L40.3913 87.1504L38.7753 92.9984C38.5443 93.7684 39.0834 94.6144 39.8524 94.8454C40.4684 94.9994 41.4683 94.7684 41.7763 93.7684L44.0853 84.9954L51.7033 80.6094C52.4733 81.3794 53.4734 81.9944 54.5504 82.3024V90.9984L48.0863 97.4624C47.4703 98.0784 47.4703 99.0014 48.0863 99.6174C48.3943 99.9254 48.7793 100.079 49.1633 100.079C49.6253 100.079 50.0094 99.9254 50.3174 99.6174L54.5494 95.3854V99.7714L45.7763 108.544C45.1603 109.16 45.1603 110.083 45.7763 110.699C46.0843 111.007 46.4693 111.161 46.8533 111.161C47.2383 111.161 47.6233 111.007 47.9303 110.699L56.0873 102.542L64.2444 110.699C64.5524 111.007 64.9374 111.161 65.3214 111.161C65.7054 111.161 66.0913 111.007 66.3983 110.699C67.0143 110.083 67.0143 109.16 66.3983 108.544L57.6253 99.7714V95.3854L61.9343 99.6174C62.2423 99.9254 62.6274 100.079 63.0114 100.079C63.3964 100.079 63.7814 99.9254 64.0884 99.6174C64.7044 99.0014 64.7044 98.0784 64.0884 97.4624L57.6243 90.9984V82.3024C58.7783 81.9944 59.7023 81.3794 60.5483 80.6094L68.0894 84.9954L70.3983 93.7684C70.7063 94.6914 71.4753 95.0764 72.3223 94.8454C73.0923 94.6144 73.6304 93.7684 73.3994 92.9984L71.8604 87.1504L75.6314 89.3054L78.8633 101.31C79.0173 102.003 79.7103 102.618 80.7103 102.464C81.6333 102.31 82.0184 101.387 81.8644 100.54L78.8633 89.3824L89.9443 86.4584C90.7903 86.2274 91.2523 85.3814 91.0983 84.5344C90.8713 83.6884 90.0253 83.2274 89.1783 83.4574ZM88.3323 91.3074C86.8703 90.4604 84.9463 90.9994 84.1003 92.4614C83.2543 93.9234 83.7923 95.7704 85.2543 96.6164C86.7163 97.5394 88.5633 97.0014 89.4093 95.5394C90.2563 94.0774 89.7943 92.1534 88.3323 91.3074Z" fill="#5AB8AA"/>
<path d="M19.1933 66.6854L18.6324 66.5764C20.6794 56.0294 27.5573 46.7084 37.0313 41.6414L37.3013 42.1454C27.9773 47.1314 21.2083 56.3054 19.1933 66.6854Z" fill="#5A150E"/>
<path d="M22.1133 63.5114L21.5663 63.3474C23.7983 55.9154 28.7803 49.1824 35.2343 44.8764L35.5513 45.3514C29.2053 49.5854 24.3073 56.2054 22.1133 63.5114Z" fill="#5A150E"/>
<path d="M25.3093 61.9854L24.7603 61.8264C26.3543 56.3224 29.7953 51.4494 34.4473 48.1034L34.7813 48.5674C30.2313 51.8394 26.8683 56.6044 25.3093 61.9854Z" fill="#5A150E"/>
<path d="M80.5974 107.934L80.2793 107.459C88.2813 102.095 94.1173 93.6364 96.2883 84.2504L96.8453 84.3794C94.6413 93.9054 88.7194 102.49 80.5974 107.934Z" fill="#5A150E"/>
<path d="M83.3853 103.88L83.0263 103.435C88.2513 99.2164 92.0833 93.3204 93.8163 86.8324L94.3694 86.9804C92.6044 93.5844 88.7033 99.5864 83.3853 103.88Z" fill="#5A150E"/>
<path d="M85.2633 99.7274L84.8604 99.3224C86.9804 97.2134 88.5953 94.5974 89.5313 91.7564L90.0743 91.9354C89.1103 94.8604 87.4463 97.5554 85.2633 99.7274Z" fill="#5A150E"/>
<path d="M67.8253 25.1324V35.8014C67.8253 36.6064 62.5443 37.2594 56.0293 37.2594C49.5143 37.2594 44.2333 36.6064 44.2333 35.8014V25.1324H67.8253Z" fill="#FFB631"/>
<path d="M56.0293 26.5904C62.5441 26.5904 67.8253 25.9377 67.8253 25.1324C67.8253 24.3272 62.5441 23.6744 56.0293 23.6744C49.5146 23.6744 44.2333 24.3272 44.2333 25.1324C44.2333 25.9377 49.5146 26.5904 56.0293 26.5904Z" fill="#FFCD70"/>
<path d="M56.0293 16.8554C57.7243 16.8554 59.1033 18.2344 59.1033 19.9294V25.4004H58.2043V22.1814H58.1803V19.9294C58.1803 18.7434 57.2153 17.7794 56.0293 17.7794C54.8433 17.7794 53.8793 18.7444 53.8793 19.9294V22.1814V24.4774V25.4004H52.9563V19.9294C52.9553 18.2344 54.3343 16.8554 56.0293 16.8554Z" fill="#FFCD70"/>
<path d="M29.9214 52.6854C32.0684 45.4844 36.2173 39.4304 41.9433 34.5684C46.5203 30.6824 52.1643 28.3394 56.0293 23.6734C61.2633 26.7264 67.3683 26.9874 73.0013 29.0644C80.0493 31.6624 86.0253 35.9214 90.5163 41.9464C91.6043 43.4054 93.7523 41.5704 92.6693 40.1174C89.0203 35.2214 84.4584 31.4104 79.0204 28.6264C73.5734 25.8374 67.1684 25.2674 61.5194 23.1714C67.0314 21.9824 72.7284 19.7634 76.5324 15.7684C79.7534 12.3864 81.3743 7.01243 78.1603 3.05343C69.2063 -7.97358 58.6744 13.9074 55.4854 20.6044C50.1894 15.4104 32.7793 -1.51857 28.1603 11.9144C26.5023 16.7374 29.8714 21.2264 34.0584 23.2954C39.0034 25.7394 45.1164 25.8654 50.7014 25.0884C46.1164 28.9974 40.2974 31.7334 36.1404 36.2254C31.9904 40.7084 29.0163 45.8544 27.2713 51.7064C26.7533 53.4444 29.4014 54.4294 29.9214 52.6854ZM58.4774 20.8544C61.3914 14.6994 69.6873 -2.16357 75.5983 5.22643C82.4123 13.7434 65.6824 19.4244 58.4774 20.8544ZM52.7603 21.8674C45.5033 23.0014 27.8393 23.4144 31.3113 13.0744C34.3233 4.10244 47.9093 17.0884 52.7603 21.8674Z" fill="#ED1111"/>
<path opacity="0.4" d="M85.0773 51.6914C85.0773 51.6914 93.3614 68.8544 86.6754 88.2134C79.9894 107.572 70.0114 103.673 73.4034 92.9994C76.7974 82.3254 80.0873 77.2354 80.4873 65.5584C80.8873 53.8884 81.4863 47.5024 85.0773 51.6914ZM69.7123 103.978C69.7123 103.978 69.2124 110.759 63.3264 110.06C57.4384 109.367 58.0383 108.266 60.2333 105.669C62.4283 103.078 66.1203 99.9824 69.7123 103.978Z" fill="white"/>
</svg>
