<svg width="91" height="122" viewBox="0 0 91 122" fill="none" xmlns="http://www.w3.org/2000/svg">
<path fill-rule="evenodd" clip-rule="evenodd" d="M90.02 76.0127C90.02 76.7127 90 77.4127 89.97 78.1027V78.1727C89.96 78.4627 89.94 78.7527 89.92 79.0427C89.92 79.0827 89.91 79.1128 89.91 79.1528C89.48 85.3828 87.78 91.2727 85.07 96.5527V96.5628C84 98.6428 82.78 100.623 81.41 102.493C78.35 106.703 74.58 110.353 70.27 113.273C68.14 114.723 65.87 115.993 63.48 117.063H63.47C57.83 119.603 51.59 121.023 45.01 121.023C36.94 121.023 29.4 118.903 22.86 115.193L22.85 115.183C21.56 114.473 20.31 113.683 19.11 112.833L19.1 112.823C18.96 112.723 18.83 112.623 18.69 112.523L18.68 112.513C17.91 111.973 17.17 111.393 16.44 110.793C12.71 107.733 9.48 104.073 6.9 99.9727C6.46 99.2827 6.04 98.5727 5.65 97.8527C2.05 91.3827 0 83.9427 0 76.0127C0 65.7127 3.47 56.2127 9.3 48.6227C9.64 48.1727 10 47.7227 10.37 47.2827C12.09 45.2027 14.01 43.2827 16.08 41.5427C16.1 41.5227 16.12 41.5028 16.14 41.4928L16.15 41.4827C16.56 41.1427 16.97 40.8027 17.4 40.4727C22.46 36.5327 28.4 33.6528 34.86 32.1628C38.13 31.4128 41.52 31.0127 45.01 31.0127C49.7 31.0127 54.22 31.7327 58.46 33.0527C58.68 33.1227 58.9 33.1928 59.11 33.2728C61.88 34.1828 64.53 35.3527 67.03 36.7627H67.04C69.48 38.1327 71.78 39.7227 73.9 41.5027C74 41.5827 74.1 41.6727 74.2 41.7527C74.64 42.1327 75.08 42.5227 75.51 42.9227C75.52 42.9327 75.52 42.9327 75.53 42.9427C77.16 44.4427 78.68 46.0727 80.07 47.8027C80.7 48.5727 81.3 49.3627 81.87 50.1827C87 57.4927 90.02 66.4027 90.02 76.0127Z" fill="#02826B"/>
<path d="M81.87 50.1827C81.78 50.3327 81.69 50.4727 81.59 50.6127C80.78 51.7927 79.59 52.3727 78.26 51.5627C77.56 51.1327 76.99 50.4727 76.4 49.9127C76.3 49.8127 76.19 49.7227 76.09 49.6227C75.82 50.1327 75.53 50.6327 75.24 51.1227C74.77 51.9027 74.28 52.6727 73.81 53.4327C73.78 53.4827 73.75 53.5227 73.73 53.5727C73.01 54.7627 72.23 56.5227 70.67 56.5927C69.16 56.6627 68 55.2327 67.05 54.2527C66.51 53.7027 65.89 53.0927 65.34 52.4227C64.21 53.7327 63.1 55.0527 61.92 56.3127C61.02 57.2727 59.98 58.8627 58.5 58.7927C57.09 58.7227 55.86 57.2127 54.94 56.2827C53.87 55.2027 52.83 54.0527 52.03 52.7527C51.16 54.1327 49.68 55.1827 48.47 56.2527C47.49 57.1127 46.58 58.0828 45.16 57.8828C43.9 57.7128 42.97 56.3527 42.22 55.4527C41.44 54.5027 40.73 53.5027 40.09 52.4527C39.48 53.2627 38.6 53.9427 37.87 54.5527C37 55.2627 35.89 56.4227 34.76 56.6927C33.45 57.0027 32.74 55.9227 32.05 55.0127C31.19 53.8827 30.34 52.7428 29.49 51.6028C28.15 52.6928 26.76 53.7327 25.39 54.7927C24.54 55.4527 23.62 56.3027 22.48 55.7727C21.32 55.2327 20.59 53.5627 19.9 52.5627C19.78 52.3927 19.67 52.2327 19.55 52.0627C19.44 51.9027 19.33 51.7327 19.22 51.5727C18.93 51.1727 18.65 50.7627 18.37 50.3627C18.26 50.2027 18.15 50.0428 18.04 49.8828C17.92 49.7028 17.79 49.5127 17.66 49.3327C16.99 49.7427 16.33 50.1627 15.65 50.5627H15.64C15.2 50.8327 14.76 51.0827 14.31 51.3227C13.42 51.8027 12.41 52.2927 11.5 51.5827C10.61 50.8927 9.92002 49.6727 9.30002 48.6227C9.64002 48.1727 10 47.7227 10.37 47.2827C10.96 48.1927 11.68 49.3828 12.52 49.9628C13.27 49.6128 14.14 48.7927 14.74 48.4027C15.62 47.8227 16.51 47.2527 17.39 46.6727C17.78 46.4327 18.19 46.4727 18.54 46.6627C18.71 46.7627 18.86 46.8927 18.98 47.0427C19 47.0627 19.02 47.0927 19.04 47.1127L19.78 48.1028L20.13 48.5627L21.02 49.7627L21.36 50.2128L21.45 50.3327C21.8 50.7927 22.14 51.2528 22.49 51.7128C22.73 52.0428 23.05 52.6427 23.4 53.0627C24.15 52.6027 24.99 51.6827 25.5 51.2727C26.34 50.6027 27.18 49.9327 28.04 49.2927C28.39 49.0327 29.07 49.0327 29.42 49.2927C29.48 49.3427 29.54 49.3827 29.59 49.4327C29.88 49.3627 30.18 49.4227 30.41 49.6927C31.23 50.6727 32.05 51.6627 32.88 52.6427C33.23 53.0627 33.61 53.4727 33.93 53.9127C34.41 54.5627 34.28 54.4427 34.83 53.9427C36.26 52.6527 37.64 50.5328 39.47 49.8528C40.02 49.6528 40.52 50.0227 40.71 50.5127C40.94 50.5427 41.17 50.6727 41.34 50.9327C41.99 51.9427 42.7 52.9127 43.51 53.8227C43.97 54.3327 44.79 55.5927 45.51 55.4827C45.83 55.4227 46.34 54.6327 46.59 54.3727C47.03 53.9127 47.46 53.4527 47.9 53.0027C48.66 52.2227 49.44 51.3527 50.4 50.8427C50.97 50.5427 51.59 50.7128 51.96 51.1028C52.26 50.8828 52.69 50.8427 53.03 51.1727C53.98 52.1027 54.83 53.1127 55.78 54.0327C56.26 54.4927 56.75 54.9427 57.26 55.3727C57.51 55.5827 57.77 55.8027 58.03 56.0027C58.3 56.1327 58.47 56.2227 58.54 56.2827C58.9 55.9627 59.55 54.8527 59.73 54.6227C60.14 54.0827 60.56 53.5627 60.98 53.0527C61.92 51.9227 62.86 50.8027 63.8 49.6727C63.99 49.4527 64.19 49.3228 64.4 49.2428C64.69 49.0128 65.11 48.9427 65.48 49.1427C66.54 49.7327 67.33 50.8527 68.18 51.7027C68.54 52.0627 68.89 52.4127 69.26 52.7527C69.37 52.8527 70.39 53.7628 70.29 53.8528C70.63 53.7428 71.75 51.4028 72.11 50.7128C72.14 50.6628 72.16 50.6227 72.18 50.5927C72.77 49.5927 73.32 48.5527 73.93 47.5627C74.07 47.3127 74.22 47.0727 74.38 46.8427C75.14 45.7127 76.54 46.1727 76.86 47.1527C77.65 47.5727 78.33 48.2528 78.96 48.8528C79 48.8928 79.3 49.0727 79.35 49.1727C79.5 48.9627 79.77 48.3527 79.82 48.2527C79.9 48.1027 79.99 47.9527 80.07 47.8027C80.7 48.5727 81.3 49.3627 81.87 50.1827Z" fill="#5AB8AA"/>
<path d="M85.07 96.5627C84 98.6427 82.78 100.623 81.41 102.493C80.07 103.293 78.4 104.363 76.94 103.833C76.41 103.643 75.88 103.273 75.39 102.793C75.31 102.713 75.23 102.633 75.15 102.543C75.1 102.493 75.05 102.433 75 102.383C74.81 102.163 74.63 101.943 74.46 101.703C74.34 101.553 74.23 101.393 74.13 101.233C74.1 101.193 74.08 101.153 74.05 101.113C73.89 101.333 73.73 101.543 73.57 101.763C73.57 101.773 73.56 101.773 73.56 101.773C73.11 102.363 72.66 102.953 72.19 103.523C71.85 103.953 71.5 104.363 71.14 104.773C70.64 105.323 70.08 106.083 69.41 106.593C69.01 106.893 68.57 107.103 68.08 107.123C66.85 107.183 65.72 105.903 64.99 105.073C64.53 104.563 64.11 104.013 63.68 103.473C63.62 103.403 62.98 102.513 62.71 102.073C61.78 103.543 60.55 104.883 59.44 106.213C59.29 106.393 59.14 106.593 58.97 106.793C58.25 107.723 57.38 108.753 56.16 108.603C55.91 108.573 55.67 108.503 55.42 108.413C54.26 107.973 53.13 106.923 52.23 106.233C51.14 105.373 50.04 104.483 49.23 103.343C48.67 104.793 47.01 106.023 46 106.993C44.9 108.053 43.56 109.613 41.85 108.953C40.28 108.343 38.81 106.583 37.7 105.363C36.63 104.173 35.68 102.903 34.82 101.553C34.03 102.593 32.95 103.453 31.98 104.313C30.8 105.363 29.59 106.373 28.35 107.353C27.88 107.723 27.24 107.933 26.68 107.563C24.26 105.983 22.22 104.023 20.47 101.733C20.39 101.853 20.31 101.963 20.2 102.083C19.62 102.743 18.89 103.233 18.21 103.773C17.19 104.563 16.24 105.303 14.86 105.003C13.35 104.683 12.38 103.023 11.46 101.923C10.52 100.803 9.63002 99.4127 8.59002 98.3627C8.11002 98.8927 7.54002 99.4627 6.90002 99.9727C6.46002 99.2827 6.04002 98.5727 5.65002 97.8527C6.19002 97.3827 6.74002 96.9127 7.33002 96.5127C7.95002 96.0827 8.55002 96.4127 8.82002 96.9427C9.70002 96.8627 10.36 97.8527 10.9 98.4527C11.98 99.6527 13.06 100.853 14.15 102.043C14.32 102.233 14.89 102.983 15.19 102.943C15.31 102.933 15.66 102.503 15.75 102.413C16.33 101.893 16.9 101.353 17.49 100.843C18.56 99.9227 19.31 99.7227 20.66 99.5527C20.7 99.5527 20.74 99.5527 20.77 99.5627C21.23 99.3327 21.79 99.3427 22.16 99.8127C23.63 101.683 25.35 103.313 27.3 104.673C28.22 103.913 29.13 103.143 30.02 102.343C31.13 101.353 32.15 100.113 33.42 99.3327C33.94 99.0127 34.52 99.1627 34.91 99.5227C35.29 99.3927 35.75 99.4727 36.05 99.9027C37.73 102.343 39.94 104.913 42.51 106.463C42.57 106.403 42.62 106.343 42.67 106.283C42.82 106.003 43.18 105.733 43.39 105.503C43.98 104.843 44.57 104.183 45.15 103.513C46.08 102.423 46.82 101.273 48.34 101.143C48.73 101.113 49.04 101.333 49.23 101.643C49.44 101.543 49.7 101.533 49.94 101.663C51.09 102.273 52.06 103.143 53.13 103.873C53.59 104.193 55.58 105.793 56.07 105.643C56.58 105.483 57.53 103.773 57.98 103.213C58.89 102.073 59.74 100.873 60.82 99.8927C61.29 99.4627 61.95 99.3527 62.52 99.6727C62.55 99.6927 62.59 99.7127 62.63 99.7427C63.82 99.6227 64.97 100.873 65.94 102.013C66.43 102.573 66.87 103.113 67.25 103.453C67.43 103.623 67.61 103.773 67.81 103.923C68.18 103.453 68.84 102.653 68.92 102.553C69.86 101.393 70.82 100.253 71.72 99.0727C72.26 98.3627 73.11 98.2927 73.76 98.5727C73.96 98.4227 74.21 98.3327 74.46 98.3327H74.47C74.67 98.3127 74.88 98.3527 75.06 98.4527C75.07 98.4627 75.08 98.4627 75.09 98.4727C75.45 98.6727 75.76 98.9127 76.06 99.1727C76.2 99.2927 76.33 99.4227 76.47 99.5527C76.59 99.6727 76.71 99.7827 76.84 99.9027C76.88 99.9527 76.93 99.9927 76.97 100.033C76.99 100.053 77.03 100.083 77.07 100.123C77.18 100.223 77.35 100.373 77.49 100.503C77.6 100.613 77.68 100.693 77.71 100.743C77.8 100.653 78.21 100.423 78.31 100.363C79.67 99.5727 81.08 98.8627 82.45 98.0827C83.34 97.5727 84.2 97.0527 85.07 96.5627Z" fill="#5AB8AA"/>
<path d="M70.27 113.273C68.14 114.723 65.87 115.993 63.48 117.063H63.47C58.18 117.693 52.86 117.993 47.54 117.933C40.37 117.843 33.18 117.133 26.12 115.823C25.03 115.623 23.95 115.413 22.86 115.193L22.85 115.183C21.56 114.473 20.31 113.683 19.11 112.833L19.1 112.823C18.96 112.723 18.83 112.623 18.69 112.523C22.18 113.143 25.69 113.703 29.2 114.113C36.09 114.943 42.95 115.603 49.9 115.483C51.59 115.463 53.28 115.393 54.95 115.283C54.95 115.283 54.95 115.283 54.96 115.283C58.02 115.083 61.07 114.773 64.1 114.333C66.08 114.043 68.05 113.713 70.02 113.323C70.1 113.303 70.19 113.293 70.27 113.273Z" fill="white"/>
<path d="M75.51 42.9227C74.9 43.1727 74.28 43.4127 73.66 43.6427C73.2 43.8127 72.73 43.9827 72.26 44.1427C71.35 44.4627 70.43 44.7527 69.51 45.0327C54.47 49.5527 37.72 49.1027 22.72 44.0427C22.49 43.9727 22.27 43.8927 22.05 43.8127C20.05 43.1227 18.08 42.3527 16.15 41.4827C16.56 41.1427 16.97 40.8027 17.4 40.4727C19.44 41.3227 21.51 42.0827 23.61 42.7527C23.85 42.8327 24.09 42.9027 24.33 42.9727H24.34C24.55 43.0427 24.75 43.1127 24.96 43.1727C35.78 46.4027 47.05 47.1427 58.22 45.5427C61.68 45.0427 65.12 44.3127 68.48 43.3327C69.42 43.0627 70.36 42.7627 71.28 42.4427C72.16 42.1527 73.04 41.8327 73.9 41.5027C74 41.5827 74.1 41.6727 74.2 41.7527C74.64 42.1327 75.08 42.5227 75.51 42.9227Z" fill="white"/>
<path d="M13.5152 86.5982C18.1903 86.0794 21.5596 81.8689 21.0408 77.1938C20.522 72.5186 16.3114 69.1493 11.6363 69.6681C6.9612 70.1869 3.59186 74.3975 4.11069 79.0726C4.62952 83.7477 8.84005 87.1171 13.5152 86.5982Z" fill="#5AB8AA"/>
<path d="M47.134 89.8327C51.8378 89.8327 55.651 86.0196 55.651 81.3158C55.651 76.6119 51.8378 72.7988 47.134 72.7988C42.4302 72.7988 38.617 76.6119 38.617 81.3158C38.617 86.0196 42.4302 89.8327 47.134 89.8327Z" fill="#5AB8AA"/>
<path d="M82.2857 86.5664C86.9669 86.1078 90.39 81.9411 89.9314 77.2599C89.4728 72.5787 85.3061 69.1556 80.6249 69.6142C75.9437 70.0728 72.5206 74.2395 72.9792 78.9207C73.4378 83.6019 77.6045 87.025 82.2857 86.5664Z" fill="#5AB8AA"/>
<path d="M48.136 62.3407C48.16 63.9017 46.913 65.1868 45.352 65.2098C43.791 65.2338 42.506 63.9867 42.483 62.4267C42.459 60.8657 43.706 59.5807 45.266 59.5577C46.828 59.5337 48.112 60.7797 48.136 62.3407Z" fill="white"/>
<path d="M33.256 61.7997C33.28 63.3607 32.033 64.6458 30.473 64.6688C28.912 64.6928 27.627 63.4457 27.604 61.8857C27.58 60.3247 28.827 59.0397 30.387 59.0167C31.948 58.9927 33.233 60.2387 33.256 61.7997Z" fill="white"/>
<path d="M18.368 60.6877C18.392 62.2487 17.145 63.5338 15.585 63.5568C14.024 63.5808 12.739 62.3337 12.716 60.7737C12.692 59.2127 13.939 57.9277 15.499 57.9047C17.06 57.8797 18.344 59.1267 18.368 60.6877Z" fill="white"/>
<path d="M57.34 61.4347C57.364 62.9957 58.648 64.2417 60.209 64.2177C61.77 64.1937 63.016 62.9097 62.992 61.3487C62.968 59.7877 61.684 58.5418 60.123 58.5658C58.562 58.5888 57.316 59.8737 57.34 61.4347Z" fill="white"/>
<path d="M72.187 59.8707C72.211 61.4317 73.495 62.6778 75.056 62.6538C76.617 62.6298 77.863 61.3457 77.839 59.7847C77.815 58.2237 76.531 56.9777 74.97 57.0017C73.41 57.0257 72.164 58.3097 72.187 59.8707Z" fill="white"/>
<path d="M48.657 96.6948C48.681 98.2558 47.434 99.5407 45.874 99.5637C44.313 99.5877 43.028 98.3408 43.005 96.7808C42.981 95.2198 44.228 93.9348 45.789 93.9118C47.349 93.8878 48.633 95.1338 48.657 96.6948Z" fill="white"/>
<path d="M33.778 96.1537C33.802 97.7147 32.555 98.9998 30.995 99.0228C29.434 99.0468 28.149 97.7998 28.126 96.2388C28.102 94.6778 29.349 93.3927 30.909 93.3697C32.469 93.3467 33.754 94.5927 33.778 96.1537Z" fill="white"/>
<path d="M18.0788 97.0532C19.1659 95.9327 19.1388 94.143 18.0183 93.0558C16.8977 91.9687 15.108 91.9958 14.0209 93.1163C12.9338 94.2369 12.9608 96.0266 14.0814 97.1137C15.2019 98.2009 16.9916 98.1738 18.0788 97.0532Z" fill="white"/>
<path d="M60.687 98.5727C62.2483 98.5727 63.514 97.3071 63.514 95.7457C63.514 94.1844 62.2483 92.9187 60.687 92.9187C59.1257 92.9187 57.86 94.1844 57.86 95.7457C57.86 97.3071 59.1257 98.5727 60.687 98.5727Z" fill="white"/>
<path d="M72.708 94.2248C72.732 95.7858 74.016 97.0318 75.577 97.0088C77.138 96.9848 78.384 95.7008 78.36 94.1398C78.336 92.5788 77.052 91.3328 75.491 91.3558C73.931 91.3788 72.685 92.6638 72.708 94.2248Z" fill="white"/>
<path d="M82.603 72.4618L83.952 75.0918C84.055 75.2938 84.252 75.4317 84.476 75.4607L87.407 75.8407C87.973 75.9137 88.21 76.6048 87.807 77.0098L85.722 79.1058C85.562 79.2668 85.492 79.4957 85.533 79.7187L86.077 82.6237C86.182 83.1847 85.598 83.6227 85.089 83.3647L82.452 82.0297C82.25 81.9277 82.01 81.9308 81.811 82.0398L79.216 83.4557C78.715 83.7287 78.118 83.3087 78.205 82.7447L78.66 79.8238C78.695 79.5998 78.617 79.3728 78.453 79.2168L76.305 77.1858C75.89 76.7938 76.105 76.0958 76.669 76.0048L79.587 75.5348C79.811 75.4988 80.003 75.3547 80.1 75.1497L81.367 72.4788C81.612 71.9648 82.342 71.9538 82.603 72.4618Z" fill="white"/>
<path d="M47.713 75.6797L49.062 78.3097C49.165 78.5117 49.362 78.6498 49.586 78.6788L52.517 79.0587C53.083 79.1317 53.32 79.8227 52.917 80.2277L50.832 82.3238C50.672 82.4848 50.602 82.7138 50.643 82.9368L51.187 85.8418C51.292 86.4028 50.708 86.8408 50.199 86.5828L47.562 85.2478C47.36 85.1458 47.12 85.1487 46.921 85.2577L44.326 86.6738C43.825 86.9468 43.228 86.5268 43.315 85.9628L43.77 83.0417C43.805 82.8177 43.727 82.5907 43.563 82.4347L41.415 80.4037C41 80.0117 41.215 79.3137 41.779 79.2227L44.697 78.7527C44.921 78.7167 45.113 78.5728 45.21 78.3678L46.477 75.6967C46.722 75.1827 47.452 75.1717 47.713 75.6797Z" fill="white"/>
<path d="M12.976 71.9297L14.325 74.5597C14.428 74.7617 14.625 74.8998 14.849 74.9288L17.78 75.3087C18.346 75.3817 18.583 76.0727 18.18 76.4777L16.095 78.5737C15.935 78.7347 15.865 78.9637 15.906 79.1867L16.45 82.0917C16.555 82.6527 15.971 83.0907 15.462 82.8327L12.825 81.4978C12.623 81.3958 12.383 81.3987 12.184 81.5077L9.58901 82.9237C9.08801 83.1967 8.49101 82.7767 8.57801 82.2127L9.03301 79.2917C9.06801 79.0677 8.99001 78.8407 8.82601 78.6847L6.67801 76.6537C6.26301 76.2617 6.47801 75.5637 7.04201 75.4727L9.96001 75.0027C10.184 74.9667 10.376 74.8227 10.473 74.6177L11.741 71.9487C11.986 71.4327 12.716 71.4217 12.976 71.9297Z" fill="white"/>
<path d="M31.664 80.8548C31.688 82.4158 30.441 83.7007 28.881 83.7237C27.32 83.7477 26.035 82.5008 26.012 80.9398C25.988 79.3788 27.235 78.0938 28.795 78.0708C30.355 78.0478 31.64 79.2938 31.664 80.8548Z" fill="white"/>
<path d="M67.923 80.9397C67.947 82.5007 66.7 83.7857 65.14 83.8087C63.579 83.8327 62.294 82.5857 62.271 81.0257C62.247 79.4647 63.494 78.1798 65.054 78.1568C66.615 78.1328 67.899 79.3787 67.923 80.9397Z" fill="white"/>
<path opacity="0.4" d="M78.283 56.4167C78.283 56.4167 86.567 73.5797 79.881 92.9387C73.195 112.298 63.217 108.399 66.609 97.7247C70.003 87.0507 73.293 81.9608 73.693 70.2838C74.093 58.6128 74.692 52.2267 78.283 56.4167ZM62.918 108.703C62.918 108.703 62.418 115.484 56.532 114.785C50.644 114.092 51.244 112.991 53.439 110.394C55.634 107.803 59.326 104.707 62.918 108.703Z" fill="white"/>
<path d="M34.862 25.1287V35.7977C34.862 36.6027 40.143 37.2558 46.658 37.2558C53.173 37.2558 58.454 36.6027 58.454 35.7977V25.1287H34.862Z" fill="#FFB631"/>
<path d="M58.455 25.1287C58.455 25.9337 53.174 26.5867 46.659 26.5867C40.144 26.5867 34.863 25.9337 34.863 25.1287C34.863 24.3237 40.144 23.6707 46.659 23.6707C53.174 23.6707 58.455 24.3227 58.455 25.1287Z" fill="#FFCD70"/>
<path d="M46.659 16.8517C44.964 16.8517 43.585 18.2308 43.585 19.9258V25.3967H44.484V22.1777H44.508V19.9258C44.508 18.7398 45.473 17.7757 46.659 17.7757C47.845 17.7757 48.809 18.7408 48.809 19.9258V22.1777V24.4737V25.3967H49.732V19.9258C49.732 18.2308 48.353 16.8517 46.659 16.8517Z" fill="#FFCD70"/>
<path d="M75.42 51.7027C75.36 51.5127 75.3 51.3127 75.24 51.1227C74.85 49.9027 74.42 48.7227 73.93 47.5627C73.43 46.3927 72.87 45.2527 72.26 44.1427C71.96 43.5627 71.63 42.9927 71.28 42.4427C70.05 40.4427 68.63 38.5527 67.04 36.7627H67.03C66.88 36.5827 66.71 36.4027 66.55 36.2227C64.21 33.6927 61.34 31.7227 58.46 29.7727C56.78 28.6427 55.09 27.5227 53.51 26.3127C53.01 25.9227 52.52 25.5327 52.05 25.1327C52.03 25.1127 52.01 25.1027 51.99 25.0827C52.12 25.1027 52.26 25.1227 52.39 25.1327C54.25 25.3827 56.17 25.5227 58.08 25.5027C58.21 25.5027 58.33 25.5027 58.46 25.4927C62.03 25.4327 65.55 24.8127 68.63 23.2927C72.82 21.2227 76.19 16.7327 74.53 11.9127C70.42 -0.0272551 56.21 12.0327 49.38 18.5027C49.13 18.7327 48.89 18.9627 48.67 19.1727C48.11 19.7127 47.62 20.1927 47.2 20.6027C46.85 19.8727 46.41 18.9527 45.9 17.9127C45.76 17.6427 45.62 17.3627 45.48 17.0827C41.13 8.48274 32.24 -6.44726 24.53 3.05274C21.31 7.01274 22.93 12.3827 26.16 15.7627C29.96 19.7627 35.66 21.9827 41.17 23.1727C40.24 23.5127 39.29 23.8227 38.32 24.1027C38.31 24.1027 38.29 24.1027 38.28 24.1127C37.17 24.4227 36.04 24.7127 34.91 25.0027C31.07 25.9527 27.17 26.8227 23.67 28.6227C18.23 31.4027 13.67 35.2227 10.02 40.1127C8.94001 41.5627 11.08 43.4027 12.17 41.9427C12.6 41.3627 13.05 40.8027 13.51 40.2527C13.82 39.8827 14.14 39.5227 14.45 39.1727C18.62 34.5927 23.78 31.2427 29.69 29.0627C31.38 28.4327 33.12 27.9727 34.86 27.5527C36.56 27.1427 38.26 26.7727 39.92 26.3227C41.17 25.9827 42.39 25.6027 43.59 25.1327C43.6 25.1327 43.6 25.1327 43.6 25.1327C43.9 25.0227 44.19 24.8927 44.48 24.7727C45.22 24.4527 45.95 24.0827 46.66 23.6727C47.09 24.1827 47.53 24.6727 48 25.1327C48.49 25.6327 49.01 26.0927 49.55 26.5427C52.31 28.8727 55.5 30.6627 58.46 32.7927C58.68 32.9527 58.9 33.1027 59.11 33.2727C59.67 33.6827 60.21 34.1127 60.74 34.5627C63.79 37.1527 66.39 40.0727 68.48 43.3327C68.84 43.8827 69.18 44.4527 69.51 45.0327C70.53 46.8327 71.41 48.7227 72.11 50.7127C72.36 51.3627 72.57 52.0127 72.77 52.6827C72.93 53.2327 73.31 53.5027 73.73 53.5727C74.64 53.7327 75.77 52.8927 75.42 51.7027ZM27.09 5.22274C32.63 -1.70726 40.28 12.6927 43.61 19.5927C43.83 20.0527 44.03 20.4727 44.21 20.8527C44.01 20.8127 43.8 20.7727 43.59 20.7227C36.1 19.1027 20.47 13.5027 27.09 5.22274ZM71.38 13.0727C74.85 23.4127 57.18 22.9927 49.93 21.8627C54.78 17.0827 68.36 4.10273 71.38 13.0727Z" fill="#ED1111"/>
<path d="M8.08899 66.4397L7.52798 66.3307C9.57498 55.7837 16.453 46.4628 25.927 41.3958L26.197 41.8997C16.872 46.8867 10.103 56.0607 8.08899 66.4397Z" fill="#5A150E"/>
<path d="M11.008 63.2667L10.461 63.1028C12.693 55.6708 17.675 48.9377 24.129 44.6317L24.446 45.1068C18.1 49.3408 13.202 55.9597 11.008 63.2667Z" fill="#5A150E"/>
<path d="M14.204 61.7408L13.655 61.5817C15.249 56.0777 18.69 51.2047 23.342 47.8587L23.676 48.3227C19.126 51.5937 15.763 56.3598 14.204 61.7408Z" fill="#5A150E"/>
<path d="M69.492 107.689L69.174 107.214C77.176 101.85 83.012 93.3907 85.183 84.0047L85.74 84.1337C83.536 93.6597 77.614 102.246 69.492 107.689Z" fill="#5A150E"/>
<path d="M72.28 103.635L71.921 103.19C77.146 98.9707 80.978 93.0747 82.711 86.5867L83.264 86.7348C81.499 93.3398 77.598 99.3408 72.28 103.635Z" fill="#5A150E"/>
<path d="M74.158 99.4827L73.755 99.0777C75.875 96.9687 77.49 94.3527 78.426 91.5117L78.969 91.6908C78.005 94.6158 76.341 97.3097 74.158 99.4827Z" fill="#5A150E"/>
</svg>
