<svg width="124" height="129" viewBox="0 0 124 129" fill="none" xmlns="http://www.w3.org/2000/svg">
<path d="M99.4399 90.8712C112.524 69.9536 106.173 42.39 85.2559 29.306C64.3383 16.222 36.7746 22.5724 23.6906 43.49C10.6067 64.4075 16.957 91.9713 37.8746 105.055C58.7922 118.139 86.3559 111.789 99.4399 90.8712Z" fill="#DE0008"/>
<path d="M72.4342 26.931C72.4342 56.954 49.8192 81.778 20.7312 85.305C21.3332 86.654 22.0052 87.988 22.7522 89.298C23.3412 90.331 23.9762 91.321 24.6332 92.288C55.9572 87.023 79.9042 59.728 79.9042 26.931C79.9042 26.762 79.8932 26.596 79.8922 26.428C77.4572 25.334 74.9322 24.464 72.3482 23.82C72.4012 24.85 72.4342 25.887 72.4342 26.931Z" fill="#FFD3CF"/>
<path d="M46.0932 26.931C46.0932 26.373 46.0442 25.826 46.0162 25.275C43.7712 26.111 41.5622 27.13 39.4142 28.356C39.1112 28.529 38.8202 28.716 38.5222 28.895C37.6802 39.648 30.0192 48.489 19.8622 51.117C18.8642 53.715 18.1132 56.401 17.6122 59.138C33.6382 57.156 46.0932 43.483 46.0932 26.931Z" fill="#FFD3CF"/>
<path d="M106.173 65.008C105.946 60.217 104.947 55.414 103.116 50.783C95.9972 77.471 77.2342 99.441 52.6222 110.918C57.3422 111.883 62.2242 112.098 67.0782 111.496C84.4612 100.466 98.2312 84.242 106.173 65.008Z" fill="#FFD3CF"/>
<path d="M95.9652 38.678C93.9102 36.188 91.6222 33.964 89.1482 32.023C86.9282 65.258 63.1832 92.683 31.7572 100.443C34.1442 102.58 36.7312 104.437 39.4722 105.992C69.1232 96.268 91.4732 70.316 95.9652 38.678Z" fill="#FFD3CF"/>
<path d="M16.9072 68.702C16.9912 71.18 17.2832 73.662 17.7882 76.126C43.0702 73.997 62.9982 52.754 62.9982 26.931C62.9982 25.436 62.9262 23.957 62.7952 22.495C60.3152 22.424 57.8202 22.571 55.3352 22.919C55.4612 24.239 55.5272 25.577 55.5272 26.93C55.5272 48.932 38.4832 67.015 16.9072 68.702Z" fill="#FFD3CF"/>
<path d="M23.5762 60.252L23.0132 60.143C25.0672 49.556 31.9722 40.198 41.4832 35.112L41.7542 35.618C32.3932 40.624 25.5982 49.833 23.5762 60.252Z" fill="#5A150E"/>
<path d="M26.5072 57.067L25.9572 56.902C28.1972 49.441 33.1982 42.683 39.6782 38.36L39.9962 38.837C33.6262 43.087 28.7092 49.732 26.5072 57.067Z" fill="#5A150E"/>
<path d="M29.7152 55.535L29.1642 55.375C30.7652 49.85 34.2182 44.958 38.8882 41.599L39.2232 42.065C34.6572 45.349 31.2802 50.133 29.7152 55.535Z" fill="#5A150E"/>
<path d="M85.2162 101.66L84.8972 101.184C92.9302 95.799 98.7882 87.308 100.967 77.886L101.526 78.015C99.3132 87.577 93.3682 96.195 85.2162 101.66Z" fill="#5A150E"/>
<path d="M88.0142 97.59L87.6532 97.144C92.8982 92.909 96.7452 86.99 98.4852 80.478L99.0402 80.626C97.2692 87.255 93.3532 93.28 88.0142 97.59Z" fill="#5A150E"/>
<path d="M89.8992 93.421L89.4942 93.014C91.6222 90.897 93.2432 88.27 94.1832 85.419L94.7282 85.599C93.7612 88.536 92.0912 91.241 89.8992 93.421Z" fill="#5A150E"/>
<path d="M47.3402 13.975L47.1312 26.638C47.1152 27.594 53.3712 28.472 61.1042 28.6C68.8372 28.728 75.1182 28.057 75.1342 27.101L75.3432 14.438L47.3402 13.975Z" fill="#FFB631"/>
<path d="M75.34 14.4201C75.3558 13.4642 69.0999 12.5858 61.367 12.4582C53.6341 12.3306 47.3526 13.0021 47.3369 13.958C47.3211 14.9139 53.577 15.7923 61.3099 15.9199C69.0428 16.0475 75.3243 15.376 75.34 14.4201Z" fill="#FFCD70"/>
<path d="M61.5032 4.38299C59.4912 4.34999 57.8282 5.95899 57.7942 7.97099L57.6872 14.465L58.7542 14.483L58.8172 10.662H58.8452L58.8892 7.98899C58.9122 6.58199 60.0762 5.456 61.4842 5.479C62.8912 5.502 64.0172 6.66599 63.9942 8.07399L63.9502 10.747L63.9052 13.472L63.8872 14.568L64.9832 14.586L65.0902 8.09199C65.1242 6.07999 63.5152 4.41599 61.5032 4.38299Z" fill="#FFCD70"/>
<path d="M79.9772 2.858C78.9362 1.205 76.7772 0.0299918 74.7292 0.000991823C74.6882 -8.17666e-06 74.6482 2.1185e-09 74.6072 2.1185e-09C71.6112 2.1185e-09 68.2332 1.569 65.0792 4.427C63.1872 6.141 61.5002 8.205 60.2682 10.271C57.0192 6.832 53.0912 4.159 47.8002 5.987C45.8642 6.656 44.1822 8.44799 43.7102 10.344C43.3482 11.797 43.7122 13.201 44.7332 14.297C45.8212 15.464 48.0172 16.013 51.6242 16.013C51.8082 16.013 51.9972 16.011 52.1892 16.009C55.0682 15.966 58.0662 15.607 59.6772 15.415C59.6772 15.415 61.9122 15.091 62.3962 14.966C65.7962 14.086 68.5642 13.155 71.5672 12.184C71.7942 12.111 72.0342 12.035 72.2852 11.957C75.0702 11.083 78.8852 9.88499 80.2442 6.93399C80.8702 5.57099 80.7762 4.124 79.9772 2.858ZM46.6902 12.472C46.2842 12.037 46.1622 11.565 46.3062 10.989C46.5592 9.973 47.5992 8.88599 48.6742 8.51399C49.5412 8.21499 50.3602 8.071 51.1492 8.071C53.9152 8.071 56.7712 10.952 59.4372 13.923C50.5232 15.484 46.8352 12.627 46.6902 12.472ZM77.8142 5.813C76.9512 7.686 73.9442 9.37099 71.7662 10.055C71.5082 10.136 65.2442 12.964 62.4552 13.57C64.7152 8.65999 70.1992 3.371 74.8392 3.371C74.8692 3.371 77.1562 3.398 77.7142 4.284C78.0322 4.786 78.0632 5.272 77.8142 5.813Z" fill="#FF171F"/>
<path d="M74.2322 3.401C74.4362 3.382 74.6392 3.371 74.8402 3.371C74.8702 3.371 77.1572 3.398 77.7152 4.284C78.0322 4.786 78.0632 5.272 77.8142 5.813C76.9512 7.686 73.9442 9.37099 71.7662 10.055C71.5082 10.136 65.2442 12.964 62.4552 13.57C75.5872 11.419 78.3532 7.509 78.3532 7.509C82.7432 2.099 74.2322 3.401 74.2322 3.401Z" fill="#DE0008"/>
<path d="M60.6282 14.735L59.4382 13.923C50.5232 15.485 46.8352 12.627 46.6912 12.472C46.2852 12.037 46.1632 11.565 46.3072 10.989C46.5602 9.973 47.6002 8.886 48.6752 8.514C49.5422 8.215 50.3612 8.071 51.1502 8.071C51.9992 8.071 52.8572 8.344 53.7162 8.806C47.7782 5.565 45.5792 10.772 45.5792 10.772C43.5812 17.594 60.6282 14.735 60.6282 14.735Z" fill="#DE0008"/>
<path opacity="0.5" d="M67.3422 11.905C65.5792 12.608 63.6822 13.304 62.4562 13.57C63.3092 11.716 64.6232 9.80801 66.1772 8.15101C65.4322 7.43101 64.2552 7.01901 62.4412 7.20101C61.6232 8.19401 60.8892 9.23201 60.2692 10.27C59.8632 9.84001 59.4462 9.422 59.0172 9.023C59.2252 10.123 59.3992 11.795 59.0362 13.477C59.1712 13.625 59.3052 13.774 59.4392 13.923C59.2582 13.955 59.0792 13.984 58.9022 14.012C58.7482 14.546 58.5342 15.075 58.2442 15.58C58.7922 15.519 59.2772 15.461 59.6772 15.413C59.6772 15.413 61.9122 15.089 62.3962 14.964C64.1072 14.521 65.6572 14.065 67.1582 13.598C67.2482 13.094 67.3232 12.51 67.3422 11.905Z" fill="#B80007"/>
<path d="M74.9862 16.012L77.4292 15.329C70.4732 8.72799 64.1732 10.676 63.9512 10.746L64.7332 13.304C64.7432 13.301 70.2762 12.601 74.9462 19.28L74.9862 16.012Z" fill="#FF171F"/>
<path d="M63.9512 10.746L64.7332 13.304C64.7362 13.303 65.3132 13.23 66.2482 13.354C66.7272 12.066 66.5052 11.03 66.2672 10.428C64.8852 10.457 64.0302 10.721 63.9512 10.746Z" fill="#DE0008"/>
<path d="M61.0662 11.491C60.8462 11.457 58.8342 11.209 55.9922 12.965C52.6252 15.045 48.7332 18.513 45.9392 24.231L48.4002 24.178L50.3282 26.885C52.8132 16.314 61.6392 13.639 61.6962 13.645C61.6752 13.643 61.0662 11.491 61.0662 11.491Z" fill="#FF171F"/>
<path d="M61.6952 13.645C61.6752 13.643 61.0662 11.491 61.0662 11.491C60.9452 11.472 60.2822 11.389 59.2382 11.61C59.2282 12.37 59.1442 13.698 58.7502 15.031C60.4302 14.015 61.6742 13.643 61.6952 13.645Z" fill="#DE0008"/>
<path d="M59.6772 15.413C60.9302 12.404 58.9982 9.00599 58.9922 8.99899C60.0422 8.27299 62.2552 7.42799 62.2552 7.42799C62.5782 7.45099 64.8642 7.74899 65.5022 8.90399C66.0922 9.97099 67.2772 12.161 64.6962 14.336C64.6962 14.336 63.8892 14.824 62.2512 15.249C60.6132 15.673 59.6772 15.413 59.6772 15.413Z" fill="#FF171F"/>
<path opacity="0.4" d="M94.7782 48.435C94.7782 48.435 102.508 64.451 96.2692 82.515C90.0302 100.579 80.7192 96.941 83.8842 86.981C87.0512 77.021 90.1212 72.271 90.4942 61.374C90.8682 50.484 91.4272 44.525 94.7782 48.435ZM80.4402 97.225C80.4402 97.225 79.9732 103.552 74.4812 102.9C68.9872 102.253 69.5462 101.226 71.5952 98.803C73.6442 96.386 77.0892 93.497 80.4402 97.225Z" fill="white"/>
</svg>
