<svg width="87" height="108" viewBox="0 0 87 108" fill="none" xmlns="http://www.w3.org/2000/svg">
<path d="M6.84225 40.799L6.93725 40.651C7.25625 40.153 7.58925 39.664 7.93625 39.183C8.04825 39.008 8.18326 38.828 8.30826 38.662C8.70626 38.1 9.12224 37.57 9.53924 37.039C13.2972 32.364 17.8882 28.641 22.9512 25.961C22.9512 25.961 22.9512 25.961 22.9642 25.97C23.4472 25.691 23.9573 25.429 24.4713 25.189C26.6083 24.166 28.8162 23.302 31.0932 22.654C32.6022 22.197 34.1662 21.832 35.7182 21.574C36.0492 21.502 36.3722 21.443 36.7082 21.392C37.3672 21.283 38.0312 21.196 38.6992 21.13C39.4782 21.041 40.2532 20.987 41.0422 20.942C41.6712 20.909 42.2922 20.889 42.9172 20.891C42.9972 20.885 43.0903 20.888 43.1833 20.891C44.0973 20.888 45.0152 20.907 45.9212 20.975C53.0612 21.394 60.1742 23.601 66.6212 27.736C69.1112 29.333 71.3702 31.142 73.4012 33.129C78.5902 38.129 82.3002 44.251 84.4402 50.866C86.1722 56.251 86.8362 61.939 86.3872 67.615C86.3522 68.143 86.2953 68.677 86.2383 69.21C85.6723 74.033 84.2752 78.816 82.0182 83.372C81.6922 83.998 81.3663 84.625 81.0273 85.243C80.7093 85.799 80.3822 86.368 80.0282 86.92C79.9202 87.117 79.7913 87.319 79.6703 87.507C79.5063 87.763 79.3423 88.018 79.1653 88.266C78.8713 88.724 78.5512 89.164 78.2312 89.605C77.7512 90.265 77.2732 90.89 76.7612 91.512C74.9122 93.802 72.8372 95.853 70.6292 97.666C70.1092 98.092 69.5842 98.496 69.0672 98.887C68.3492 99.414 67.6173 99.933 66.8633 100.399C65.3993 101.379 63.8842 102.23 62.3142 102.99C58.9982 104.605 55.5062 105.785 51.9182 106.523C49.9962 106.943 48.0622 107.203 46.1222 107.326C37.1992 107.91 28.0162 105.762 19.9132 100.565C11.8102 95.368 6.02825 87.917 2.83725 79.564C2.22325 77.974 1.71523 76.337 1.30923 74.69C0.536232 71.63 0.103236 68.484 0.0252357 65.319C-0.0117643 64.459 -0.00577359 63.59 0.0282264 62.738C0.0302264 62.112 0.0682298 61.491 0.11923 60.878C0.18323 60.008 0.278243 59.119 0.414243 58.256C0.620243 56.602 0.94523 54.969 1.36923 53.36C1.49723 52.834 1.64825 52.304 1.81125 51.782C2.43925 49.677 3.23124 47.583 4.19824 45.544L4.20724 45.531C4.47324 44.998 4.72924 44.479 5.01724 43.942C5.35224 43.302 5.70823 42.657 6.08423 42.042C6.32923 41.628 6.58325 41.202 6.84225 40.799Z" fill="#ED1111"/>
<path d="M66.4452 62.891C67.3112 63.447 68.1763 62.102 67.3083 61.545C66.4423 60.989 65.5782 62.334 66.4452 62.891Z" fill="white"/>
<path d="M43.7113 80.044C44.5773 80.599 45.4423 79.254 44.5743 78.698C43.7083 78.142 42.8433 79.487 43.7113 80.044Z" fill="white"/>
<path d="M13.5522 61.036C14.4182 61.591 15.2833 60.246 14.4153 59.69C13.5503 59.135 12.6852 60.48 13.5522 61.036Z" fill="white"/>
<path d="M17.4843 48.808C18.3503 49.363 19.2152 48.018 18.3472 47.462C17.4812 46.907 16.6173 48.252 17.4843 48.808Z" fill="white"/>
<path d="M42.4923 76.021C43.3583 76.576 44.2233 75.231 43.3553 74.675C42.4893 74.12 41.6243 75.465 42.4923 76.021Z" fill="white"/>
<path d="M46.9362 100.103C47.8022 100.659 48.6673 99.314 47.7993 98.757C46.9333 98.201 46.0692 99.546 46.9362 100.103Z" fill="white"/>
<path d="M30.5223 96.949C31.3883 97.505 32.2533 96.16 31.3853 95.603C30.5193 95.048 29.6543 96.393 30.5223 96.949Z" fill="white"/>
<path d="M65.9862 78.24C66.8522 78.795 67.7172 77.45 66.8492 76.894C65.9842 76.339 65.1192 77.684 65.9862 78.24Z" fill="white"/>
<path d="M57.2593 49.512C58.1253 50.067 58.9903 48.722 58.1223 48.166C57.2563 47.611 56.3913 48.956 57.2593 49.512Z" fill="white"/>
<path d="M27.2322 74.726C28.0982 75.282 28.9633 73.937 28.0953 73.38C27.2293 72.825 26.3642 74.17 27.2322 74.726Z" fill="white"/>
<path d="M28.8092 69.48C29.6752 70.036 30.5393 68.691 29.6723 68.134C28.8063 67.579 27.9412 68.924 28.8092 69.48Z" fill="white"/>
<path d="M67.0882 93.249C67.9542 93.805 68.8182 92.46 67.9512 91.903C67.0852 91.348 66.2202 92.693 67.0882 93.249Z" fill="white"/>
<path d="M29.9412 39.143C30.8072 39.698 31.6722 38.354 30.8042 37.797C29.9382 37.241 29.0732 38.586 29.9412 39.143Z" fill="white"/>
<path d="M85.0602 52.684C84.8172 52.693 84.5753 52.701 84.3333 52.71C82.6213 52.721 81.1122 52.447 79.8542 51.875C80.4642 51.458 81.0283 51.008 81.5443 50.491C82.2603 49.787 82.9333 48.92 83.3513 47.948C83.0223 47.13 82.6442 46.311 82.2482 45.524C82.3662 46.9 81.3992 48.388 80.4172 49.342C79.7842 49.952 79.0903 50.479 78.3333 50.94C77.2003 50.016 76.4473 48.782 76.2773 47.501C76.0543 45.847 76.9002 44.114 78.2762 43.463C78.6532 43.281 79.1082 43.198 79.5592 43.213C79.9142 43.224 80.2832 43.3 80.6342 43.424C80.9052 43.529 81.1593 43.683 81.3633 43.867C80.9513 43.111 80.5062 42.355 80.0282 41.629C79.1762 41.522 78.3322 41.657 77.5782 42.004C75.5782 42.958 74.3572 45.358 74.6712 47.709C74.8832 49.185 75.6303 50.597 76.7903 51.715C74.8433 52.542 72.6853 52.878 70.6093 52.635C69.0973 52.459 67.7233 51.98 66.5363 51.216C67.6943 49.815 68.4582 48.112 68.6762 46.31C68.8312 44.975 68.5902 43.918 67.9522 43.155C67.0972 42.111 65.5092 41.771 64.1672 42.342C63.0382 42.823 62.2352 43.702 61.8752 44.886C61.4262 46.341 61.6932 48.109 62.5862 49.494C63.0322 50.186 63.5462 50.799 64.1102 51.35C63.3802 51.957 62.5582 52.432 61.6772 52.727C58.8692 53.704 55.5312 53.051 53.1722 51.072C52.7472 50.72 52.3722 50.32 52.0462 49.89C53.2172 48.603 54.0722 47.08 54.1072 45.434C54.1472 44.16 53.4402 43.007 52.4032 42.636C51.5882 42.352 50.9672 42.591 50.6042 42.838C49.2512 43.781 49.1882 46.297 49.1842 46.41C49.1662 47.491 49.4542 48.614 49.9872 49.648C48.8412 50.661 47.4922 51.459 46.3972 51.893C43.9122 52.881 41.1383 52.762 38.9803 51.58C38.2663 51.186 37.6202 50.666 37.0902 50.068C38.1512 49.181 38.7802 48.184 39.0092 47.044C39.2602 45.728 38.6953 43.676 37.4463 42.829C36.6563 42.287 35.7193 42.307 34.8293 42.876C33.2973 43.845 33.7463 46.523 33.9153 47.32C34.0993 48.149 34.4132 48.934 34.8262 49.673C32.3272 51.096 28.8523 51.73 26.1223 51.257C24.9663 51.059 23.6413 50.566 22.5663 49.838C23.6623 48.371 24.6612 46.352 24.2932 44.709C23.8952 42.969 22.6872 42.883 22.3152 42.903C20.7952 42.968 19.2032 44.824 19.0302 46.223C18.8382 47.719 19.3802 48.979 20.3002 49.992C20.2172 50.054 20.1512 50.117 20.0682 50.178C17.9792 51.921 15.1143 52.671 12.5793 52.155L12.5632 52.154C10.8302 51.809 8.31023 50.309 6.80423 48.405C8.23523 47.578 9.69124 46.429 10.4562 45.21C11.4082 43.69 10.9722 42.643 10.6332 42.148C9.96824 41.207 8.56025 40.791 7.13025 41.101C6.93525 41.143 6.73924 41.202 6.56024 41.261C5.59424 42.732 4.72325 44.255 3.96225 45.862C4.02325 46.51 4.21325 47.129 4.50125 47.736C3.96125 47.961 3.40624 48.154 2.83624 48.314C2.59124 48.92 2.34524 49.542 2.11624 50.18C3.23824 49.925 4.31525 49.571 5.34625 49.135C7.01925 51.399 9.82025 53.215 12.1133 53.706C12.1613 53.724 12.1932 53.741 12.2412 53.742C12.7542 53.855 13.3022 53.904 13.8342 53.921C16.3992 54.002 19.0752 53.1 21.0972 51.42C21.2302 51.311 21.3632 51.186 21.5122 51.045C22.8542 52.007 24.5152 52.608 25.8472 52.844C28.9782 53.394 32.9412 52.647 35.7542 50.991C36.4392 51.787 37.2742 52.476 38.2102 52.989C40.7812 54.41 44.0543 54.561 46.9973 53.393C48.1413 52.945 49.5892 52.102 50.8822 51.012C51.2392 51.475 51.6612 51.908 52.1332 52.311C54.9182 54.643 58.8662 55.396 62.2122 54.258C63.3872 53.843 64.4733 53.199 65.4023 52.404C66.8403 53.386 68.5482 54.02 70.4302 54.241C73.0682 54.55 75.8303 54.023 78.2253 52.822C78.2563 52.855 78.2882 52.872 78.3362 52.89C79.9852 53.862 82.0043 54.329 84.3463 54.322C84.7343 54.318 85.1062 54.297 85.4942 54.277C85.3662 53.743 85.2212 53.206 85.0602 52.684ZM5.94525 47.04C5.56625 46.253 5.41424 45.441 5.56824 44.639C5.83924 43.194 6.98225 42.794 7.47025 42.68C7.69725 42.639 7.92424 42.614 8.15024 42.621C8.66624 42.637 9.11324 42.813 9.31424 43.093C9.56124 43.44 9.33523 43.965 9.09723 44.346C8.46823 45.359 7.17825 46.335 5.94525 47.04ZM21.3593 48.75C20.8153 48.087 20.5162 47.303 20.6242 46.434C20.7282 45.695 21.7812 44.533 22.3962 44.504C22.5742 44.51 22.6762 44.852 22.7182 45.063C22.9462 46.039 22.2363 47.55 21.3593 48.75ZM35.4942 46.981C35.2272 45.713 35.3142 44.473 35.7092 44.227C35.9232 44.088 36.0862 44.045 36.2152 44.049C36.3602 44.053 36.4552 44.105 36.5342 44.156C37.1662 44.596 37.5752 45.981 37.4222 46.735C37.2862 47.457 36.8623 48.122 36.1483 48.729C35.8593 48.187 35.6362 47.599 35.4942 46.981ZM51.2072 48.41C50.9372 47.756 50.7972 47.073 50.8012 46.427C50.8112 45.588 51.1212 44.451 51.5342 44.173C51.5672 44.142 51.6002 44.111 51.6972 44.114C51.7292 44.115 51.7932 44.133 51.8732 44.168C52.3042 44.311 52.5123 44.898 52.4973 45.382C52.4803 46.432 51.9632 47.465 51.2072 48.41ZM65.2622 50.223C64.7602 49.755 64.3252 49.209 63.9562 48.632C63.3092 47.643 63.1072 46.361 63.4122 45.37C63.6292 44.634 64.0972 44.116 64.8002 43.831C65.0452 43.726 65.3222 43.67 65.5802 43.678C66.0322 43.692 66.4622 43.867 66.7112 44.182C67.0532 44.596 67.1783 45.246 67.0703 46.131C66.8943 47.61 66.2512 49.043 65.2622 50.223Z" fill="white"/>
<path d="M80.4432 85.639C82.0412 84.091 83.4112 81.615 82.4822 79.309C82.0622 78.295 81.2312 77.51 80.1142 77.071C78.9022 76.597 77.5772 76.636 76.4792 77.151C74.4802 78.089 73.2582 80.489 73.5722 82.856C73.7842 84.332 74.5312 85.744 75.6902 86.862C73.7432 87.689 71.5852 88.025 69.5102 87.782C67.9982 87.605 66.6242 87.126 65.4372 86.363C66.5952 84.963 67.3592 83.259 67.5772 81.457C67.7322 80.122 67.4912 79.049 66.8532 78.302C65.9982 77.258 64.4102 76.918 63.0682 77.489C61.9392 77.97 61.1362 78.849 60.7762 80.033C60.3272 81.488 60.5952 83.24 61.4872 84.641C61.9342 85.333 62.4472 85.947 63.0112 86.497C62.2822 87.088 61.4602 87.562 60.5782 87.874C57.7712 88.835 54.4322 88.198 52.0732 86.219C51.6482 85.867 51.2732 85.467 50.9472 85.037C52.1182 83.75 52.9732 82.227 53.0092 80.565C53.0482 79.307 52.3422 78.155 51.3042 77.783C50.4902 77.483 49.8682 77.738 49.5052 77.985C48.1512 78.927 48.0892 81.444 48.0862 81.541C48.0682 82.638 48.3562 83.745 48.8882 84.795C47.7422 85.809 46.3932 86.606 45.2982 87.04C42.8132 88.028 40.0402 87.908 37.8812 86.727C37.1672 86.333 36.5212 85.813 35.9912 85.198C37.0522 84.311 37.6812 83.314 37.9102 82.19C38.1612 80.874 37.5962 78.822 36.3472 77.976C35.5572 77.435 34.6202 77.437 33.7302 78.007C32.1982 78.992 32.6462 81.67 32.8152 82.467C32.9992 83.28 33.3132 84.081 33.7272 84.804C31.2282 86.243 27.7532 86.877 25.0232 86.404C23.8672 86.19 22.5262 85.712 21.4672 84.968C22.5622 83.501 23.5622 81.482 23.1932 79.855C22.7962 78.099 21.5882 78.013 21.2162 78.033C19.6962 78.114 18.1042 79.954 17.9312 81.369C17.7392 82.865 18.2812 84.125 19.2022 85.122C19.1192 85.2 19.0522 85.263 18.9702 85.325C18.1412 86.009 17.1882 86.545 16.1922 86.885C14.6572 87.451 12.9892 87.608 11.4642 87.302C9.73122 86.957 7.21124 85.457 5.70424 83.553C7.13524 82.726 8.59123 81.577 9.35723 80.342C10.3092 78.822 9.87322 77.791 9.53322 77.296C8.86822 76.355 7.46123 75.923 6.03023 76.25C4.35523 76.617 3.18725 77.824 2.87725 79.477C2.66325 80.633 2.88522 81.786 3.41622 82.885C3.38322 82.9 3.36722 82.9 3.33422 82.915C3.56122 83.407 3.78824 83.898 4.03124 84.374C4.09724 84.344 4.17822 84.314 4.24422 84.284C5.94822 86.598 8.81324 88.415 11.1392 88.892C11.6532 88.989 12.2002 89.054 12.7322 89.071C14.1842 89.116 15.6612 88.856 17.0352 88.302C18.1142 87.884 19.1172 87.302 19.9962 86.57C20.1292 86.461 20.2622 86.336 20.4112 86.196C21.7532 87.158 23.4142 87.759 24.7462 87.995C27.8612 88.545 31.8402 87.798 34.6542 86.126C35.3392 86.938 36.1732 87.627 37.1102 88.141C39.6812 89.562 42.9552 89.697 45.8972 88.546C47.0422 88.081 48.4882 87.255 49.7822 86.165C50.1392 86.628 50.5612 87.061 51.0332 87.448C53.8172 89.796 57.7652 90.549 61.1122 89.395C62.2872 88.996 63.3732 88.352 64.3022 87.541C65.7402 88.539 67.4482 89.173 69.3302 89.394C71.9692 89.687 74.7302 89.16 77.1242 87.975C77.1562 87.992 77.1882 88.009 77.2352 88.043C77.9642 88.469 78.7772 88.818 79.6412 89.055C79.9632 88.581 80.2692 88.09 80.5422 87.598C79.9002 87.465 79.3102 87.253 78.7522 87.009C79.3632 86.606 79.9272 86.139 80.4432 85.639ZM4.84322 82.187C4.46422 81.4 4.31224 80.588 4.46724 79.769C4.73824 78.324 5.89722 77.925 6.36922 77.827C6.59722 77.769 6.82324 77.76 7.04924 77.768C7.56524 77.784 8.01224 77.943 8.21324 78.224C8.46024 78.587 8.23423 79.113 7.99623 79.493C7.36623 80.49 6.07622 81.483 4.84322 82.187ZM20.2572 83.897C19.7132 83.234 19.4142 82.45 19.5222 81.581C19.6262 80.826 20.6792 79.68 21.2942 79.651C21.4712 79.656 21.5742 79.999 21.6152 80.21C21.8442 81.17 21.1342 82.697 20.2572 83.897ZM34.3922 82.128C34.1252 80.86 34.2122 79.62 34.6082 79.374C34.8222 79.235 34.9852 79.192 35.1142 79.196C35.2592 79.201 35.3542 79.252 35.4342 79.303C36.0662 79.743 36.4752 81.112 36.3222 81.866C36.1862 82.588 35.7622 83.253 35.0482 83.877C34.7582 83.318 34.5342 82.73 34.3922 82.128ZM50.0902 83.541C49.8362 82.887 49.6952 82.221 49.6992 81.575C49.7092 80.736 50.0192 79.599 50.4322 79.321C50.4652 79.29 50.4982 79.259 50.5952 79.261C50.6272 79.262 50.6912 79.28 50.7722 79.299C51.2032 79.458 51.4112 80.046 51.3952 80.529C51.3782 81.579 50.8612 82.612 50.0902 83.541ZM64.1602 85.354C63.6582 84.886 63.2232 84.356 62.8542 83.763C62.2072 82.774 62.0052 81.492 62.3112 80.501C62.5272 79.781 62.9962 79.263 63.6992 78.962C63.9442 78.857 64.2202 78.817 64.4782 78.825C64.9292 78.839 65.3602 79.014 65.6082 79.329C65.9512 79.727 66.0752 80.393 65.9672 81.278C65.7922 82.757 65.1502 84.19 64.1602 85.354ZM77.2322 86.071C76.0982 85.163 75.3452 83.929 75.1762 82.632C74.9532 80.978 75.7992 79.245 77.1752 78.61C77.5522 78.428 78.0072 78.345 78.4582 78.36C78.8132 78.371 79.1822 78.447 79.5332 78.571C80.2182 78.851 80.7372 79.319 80.9762 79.924C81.6222 81.478 80.4812 83.348 79.3152 84.49C78.6842 85.083 77.9892 85.626 77.2322 86.071Z" fill="white"/>
<path d="M28.4362 10.345V23.679C28.4362 24.686 35.0372 25.502 43.1792 25.502C51.3222 25.502 57.9232 24.686 57.9232 23.679V10.345H28.4362Z" fill="#FFB631"/>
<path d="M43.1802 12.168C51.3231 12.168 57.9243 11.3518 57.9243 10.345C57.9243 9.33819 51.3231 8.522 43.1802 8.522C35.0374 8.522 28.4362 9.33819 28.4362 10.345C28.4362 11.3518 35.0374 12.168 43.1802 12.168Z" fill="#FFCD70"/>
<path d="M43.1802 0C41.0622 0 39.3383 1.72301 39.3383 3.84201V10.68H40.4622V6.65601H40.4922V3.84201C40.4922 2.36001 41.6982 1.15402 43.1802 1.15402C44.6622 1.15402 45.8683 2.36001 45.8683 3.84201V6.65601V9.526V10.68H47.0222V3.84201C47.0212 1.72301 45.2982 0 43.1802 0Z" fill="#FFCD70"/>
<path d="M6.78226 56.03L6.24725 55.926C8.19825 45.871 14.7562 36.984 23.7882 32.154L24.0453 32.635C15.1563 37.388 8.70226 46.135 6.78226 56.03Z" fill="#5A150E"/>
<path d="M9.56625 53.005L9.04425 52.848C11.1713 45.763 15.9213 39.344 22.0753 35.238L22.3773 35.691C16.3273 39.728 11.6573 46.039 9.56625 53.005Z" fill="#5A150E"/>
<path d="M12.6122 51.55L12.0883 51.399C13.6083 46.152 16.8882 41.506 21.3232 38.316L21.6412 38.759C17.3052 41.877 14.0992 46.42 12.6122 51.55Z" fill="#5A150E"/>
<path d="M65.3232 95.356L65.0202 94.904C72.6492 89.79 78.2123 81.725 80.2823 72.777L80.8132 72.9C78.7122 81.981 73.0662 90.166 65.3232 95.356Z" fill="#5A150E"/>
<path d="M67.9803 91.491L67.6372 91.067C72.6192 87.045 76.2723 81.424 77.9243 75.238L78.4512 75.379C76.7702 81.675 73.0513 87.397 67.9803 91.491Z" fill="#5A150E"/>
<path d="M69.7712 87.532L69.3872 87.146C71.4082 85.135 72.9482 82.641 73.8402 79.933L74.3572 80.104C73.4382 82.892 71.8522 85.461 69.7712 87.532Z" fill="#5A150E"/>
<path opacity="0.4" d="M77.2192 42.658C77.2192 42.658 85.1163 59.021 78.7423 77.477C72.3683 95.933 62.8552 92.216 66.0892 82.04C69.3252 71.864 72.4612 67.011 72.8432 55.878C73.2252 44.752 73.7962 38.664 77.2192 42.658ZM62.5703 92.506C62.5703 92.506 62.0932 98.971 56.4822 98.304C50.8692 97.643 51.4402 96.594 53.5342 94.118C55.6272 91.648 59.1463 88.697 62.5703 92.506Z" fill="white"/>
</svg>
