<svg width="32" height="143" viewBox="0 0 32 143" fill="none" xmlns="http://www.w3.org/2000/svg">
<path d="M31.567 73.665C31.567 85.179 30.637 96.682 28.494 108.197C28.44 108.47 28.396 108.733 28.341 109.006C28.297 109.236 28.253 109.454 28.21 109.684C27.04 115.687 25.498 121.69 23.541 127.693C22.546 130.689 21.463 133.696 20.184 136.692C19.506 138.299 18.795 139.907 18.019 141.514C17.112 143.373 14.455 143.373 13.547 141.514C12.76 139.907 12.06 138.299 11.382 136.692C10.103 133.696 9.009 130.689 8.025 127.693C6.057 121.69 4.526 115.687 3.356 109.684C3.214 108.973 3.083 108.273 2.952 107.563C2.875 107.158 2.81 106.765 2.744 106.36C2.7 106.13 2.656 105.901 2.624 105.671C2.569 105.387 2.525 105.102 2.482 104.818C2.384 104.293 2.296 103.757 2.22 103.222C2.176 102.949 2.132 102.675 2.1 102.402C0.645998 92.823 0 83.244 0 73.666C0.022 63.89 0.700001 54.115 2.22 44.35C2.264 44.055 2.318 43.76 2.362 43.475C2.668 41.529 3.018 39.593 3.401 37.647C4.571 31.655 6.102 25.652 8.059 19.649C9.054 16.642 10.136 13.646 11.405 10.639C12.072 9.043 12.772 7.446 13.548 5.85C14.445 3.991 17.113 3.991 18.02 5.85C18.797 7.446 19.496 9.043 20.152 10.639C21.431 13.646 22.514 16.642 23.509 19.649C25.456 25.652 26.997 31.655 28.167 37.647C28.703 40.414 29.173 43.18 29.577 45.946C29.621 46.208 29.665 46.471 29.697 46.744C30.965 55.711 31.545 64.688 31.567 73.665Z" fill="#5AB8AA"/>
<path d="M15.781 95.351C21.0001 95.351 25.231 85.6495 25.231 73.682C25.231 61.7145 21.0001 52.013 15.781 52.013C10.5619 52.013 6.33099 61.7145 6.33099 73.682C6.33099 85.6495 10.5619 95.351 15.781 95.351Z" fill="#02826B"/>
<path d="M14.986 72.937C14.649 72.958 14.312 72.967 13.975 72.989C12.988 73.054 12.005 73.184 11.028 73.317C10.71 73.36 10.385 73.466 10.119 73.608C9.93898 73.704 9.70498 73.976 9.76098 74.06C9.89698 74.261 10.171 74.418 10.424 74.553C10.546 74.618 10.746 74.591 10.91 74.605C10.909 74.578 10.908 74.552 10.906 74.525C12.316 74.475 13.726 74.425 15.136 74.377C15.348 74.143 15.568 73.915 15.781 73.682C15.517 73.433 15.248 73.189 14.986 72.937Z" fill="white"/>
<path d="M23.624 72.831C22.394 72.75 21.156 72.653 19.925 72.683C19.518 72.693 19.113 72.73 18.707 72.746C18.423 73.037 18.148 73.334 17.863 73.624C18.082 73.836 18.302 74.048 18.522 74.261C19.378 74.241 20.236 74.235 21.087 74.175C21.98 74.113 22.86 73.893 23.728 73.695C23.896 73.656 24.089 73.383 24.072 73.233C24.053 73.085 23.796 72.844 23.624 72.831Z" fill="white"/>
<path d="M17.525 71.802C17.506 71.023 17.501 70.242 17.447 69.468C17.385 68.575 17.165 67.695 16.967 66.827C16.928 66.659 16.655 66.466 16.505 66.483C16.356 66.5 16.115 66.758 16.103 66.93C16.022 68.16 15.925 69.398 15.955 70.629C15.965 71.031 16.001 71.432 16.017 71.835C16.274 72.089 16.538 72.335 16.795 72.589C17.038 72.327 17.278 72.061 17.525 71.802Z" fill="white"/>
<path d="M16.197 75.361C16.223 75.767 16.233 76.174 16.259 76.579C16.324 77.566 16.455 78.548 16.587 79.525C16.63 79.843 16.736 80.169 16.878 80.434C16.974 80.614 17.246 80.848 17.33 80.792C17.531 80.656 17.688 80.381 17.823 80.129C17.888 80.007 17.861 79.807 17.876 79.643C17.849 79.644 17.822 79.645 17.796 79.647C17.746 78.241 17.697 76.835 17.648 75.429C17.378 75.183 17.117 74.928 16.848 74.68C16.631 74.907 16.414 75.134 16.197 75.361Z" fill="white"/>
<path d="M15.781 73.682C15.568 73.916 15.348 74.143 15.136 74.377C14.878 74.662 14.609 74.937 14.352 75.223C13.69 75.958 13.078 76.737 12.469 77.513C12.272 77.766 12.112 78.069 12.021 78.356C11.958 78.551 11.981 78.909 12.08 78.929C12.318 78.978 12.624 78.899 12.899 78.82C13.031 78.781 13.156 78.623 13.284 78.519C13.265 78.501 13.245 78.482 13.225 78.464C14.216 77.429 15.206 76.394 16.197 75.361C16.414 75.134 16.631 74.907 16.848 74.681C16.49 74.35 16.136 74.016 15.781 73.682Z" fill="white"/>
<path d="M17.792 73.556C17.815 73.579 17.839 73.601 17.863 73.624C18.148 73.334 18.423 73.036 18.707 72.746C19.235 72.205 19.775 71.674 20.276 71.112C20.872 70.445 21.349 69.673 21.833 68.926C21.927 68.781 21.874 68.451 21.757 68.355C21.641 68.261 21.288 68.268 21.156 68.379C20.218 69.179 19.263 69.973 18.403 70.853C18.102 71.161 17.821 71.488 17.524 71.8C17.277 72.06 17.037 72.325 16.794 72.587C17.123 72.916 17.459 73.233 17.792 73.556Z" fill="white"/>
<path d="M17.792 73.556C17.459 73.233 17.123 72.915 16.794 72.589C16.537 72.334 16.274 72.088 16.016 71.835C15.481 71.308 14.955 70.768 14.399 70.267C13.735 69.667 12.965 69.186 12.22 68.699C12.075 68.605 11.745 68.656 11.649 68.772C11.554 68.888 11.559 69.24 11.67 69.373C12.466 70.315 13.255 71.273 14.132 72.138C14.41 72.412 14.705 72.667 14.986 72.937C15.248 73.189 15.517 73.433 15.781 73.682C16.136 74.016 16.49 74.351 16.848 74.681C17.116 74.929 17.378 75.184 17.648 75.43C17.929 75.687 18.2 75.954 18.481 76.21C19.213 76.876 19.989 77.492 20.762 78.103C21.014 78.302 21.316 78.463 21.603 78.555C21.797 78.618 22.155 78.597 22.177 78.499C22.227 78.261 22.15 77.955 22.072 77.68C22.034 77.547 21.876 77.422 21.773 77.294C21.755 77.313 21.736 77.332 21.718 77.352C20.652 76.322 19.586 75.293 18.522 74.262C18.303 74.049 18.082 73.837 17.863 73.625C17.839 73.602 17.815 73.579 17.792 73.556Z" fill="white"/>
<path d="M29.577 45.946C28.604 45.924 27.62 45.563 26.865 44.918C26.657 44.743 26.471 44.546 26.307 44.338C26.887 43.704 27.302 42.96 27.324 42.14C27.346 41.517 26.996 40.948 26.482 40.762C26.088 40.631 25.782 40.74 25.596 40.871C24.929 41.33 24.907 42.566 24.896 42.621C24.896 43.157 25.038 43.714 25.301 44.217C24.732 44.72 24.066 45.114 23.529 45.321C22.304 45.813 20.938 45.747 19.877 45.168C19.527 44.971 19.21 44.72 18.947 44.424C19.472 43.987 19.778 43.495 19.887 42.937C20.018 42.292 19.734 41.275 19.122 40.859C18.728 40.597 18.269 40.608 17.832 40.881C17.078 41.362 17.296 42.674 17.384 43.068C17.471 43.484 17.625 43.866 17.832 44.227C16.597 44.927 14.891 45.244 13.546 45.014C12.977 44.916 12.321 44.664 11.796 44.314C12.332 43.592 12.824 42.597 12.649 41.788C12.485 41.077 12.048 40.935 11.807 40.913C11.752 40.902 11.709 40.902 11.676 40.902C10.922 40.924 10.145 41.842 10.058 42.531C9.95902 43.264 10.233 43.887 10.681 44.39C10.637 44.412 10.605 44.445 10.572 44.477C9.54402 45.341 8.13402 45.702 6.87602 45.45C6.40602 45.363 5.82603 45.1 5.26903 44.717C4.81003 44.411 4.37203 44.028 4.03403 43.602C4.74503 43.197 5.45603 42.629 5.83803 42.027C6.30803 41.283 6.08903 40.769 5.92603 40.529C5.59803 40.059 4.89802 39.851 4.19802 40.004C4.09902 40.026 4.00102 40.059 3.91402 40.091C3.44402 40.813 3.01803 41.556 2.63503 42.354C2.66803 42.671 2.76603 42.977 2.90803 43.273C2.72203 43.35 2.53602 43.415 2.36102 43.47C2.31702 43.754 2.26202 44.05 2.21902 44.345C2.60202 44.247 2.96202 44.115 3.32302 43.962C3.78202 44.585 4.41602 45.143 5.08402 45.548C5.60902 45.876 6.15603 46.106 6.64803 46.215C6.67003 46.226 6.69203 46.237 6.71403 46.237C6.96503 46.292 7.23902 46.314 7.50102 46.324C8.68202 46.357 9.91803 45.974 10.88 45.241C10.946 45.197 11.011 45.143 11.077 45.088C11.143 45.033 11.208 44.979 11.274 44.902C11.941 45.383 12.761 45.678 13.417 45.788C14.959 46.061 16.905 45.69 18.294 44.88C18.633 45.274 19.038 45.613 19.497 45.864C20.766 46.564 22.373 46.629 23.827 46.061C24.385 45.842 25.107 45.427 25.741 44.891C25.916 45.121 26.124 45.328 26.353 45.525C27.293 46.312 28.496 46.728 29.699 46.739C29.664 46.471 29.62 46.208 29.577 45.946ZM3.61803 42.939C3.43203 42.545 3.35602 42.152 3.43202 41.758C3.56302 41.047 4.12102 40.85 4.36202 40.785C4.48202 40.774 4.59203 40.752 4.70103 40.763C4.95303 40.774 5.17103 40.85 5.27003 40.993C5.39003 41.168 5.28103 41.419 5.17103 41.605C4.85403 42.108 4.21903 42.589 3.61803 42.939ZM11.206 43.781C10.933 43.453 10.791 43.07 10.834 42.633C10.889 42.272 11.414 41.704 11.709 41.693C11.731 41.693 11.753 41.704 11.764 41.715C11.818 41.77 11.862 41.89 11.873 41.966C11.972 42.425 11.665 43.114 11.272 43.683C11.25 43.715 11.228 43.748 11.206 43.781ZM18.161 42.906C18.03 42.283 18.074 41.67 18.27 41.55C18.368 41.484 18.456 41.463 18.511 41.463C18.587 41.463 18.631 41.496 18.675 41.518C18.981 41.737 19.189 42.415 19.112 42.786C19.047 43.147 18.839 43.464 18.478 43.77C18.336 43.497 18.227 43.212 18.161 42.906ZM25.695 42.633C25.706 42.217 25.848 41.66 26.056 41.529C26.078 41.507 26.089 41.496 26.133 41.496C26.155 41.496 26.188 41.507 26.22 41.518C26.439 41.594 26.537 41.879 26.526 42.119C26.526 42.633 26.263 43.147 25.892 43.606C25.76 43.289 25.695 42.95 25.695 42.633Z" fill="white"/>
<path d="M25.126 107.191C24.908 107.016 24.732 106.819 24.569 106.611C25.148 105.977 25.564 105.222 25.586 104.413C25.597 103.79 25.258 103.221 24.744 103.035C24.34 102.893 24.033 103.013 23.858 103.133C23.191 103.603 23.158 104.839 23.158 104.893C23.147 105.429 23.289 105.976 23.551 106.489C22.994 106.992 22.326 107.386 21.791 107.593C20.566 108.085 19.199 108.019 18.139 107.44C17.778 107.243 17.461 106.992 17.21 106.686C17.724 106.249 18.041 105.757 18.15 105.21C18.27 104.565 17.997 103.548 17.385 103.132C16.991 102.87 16.532 102.87 16.095 103.143C15.341 103.635 15.559 104.947 15.647 105.341C15.735 105.746 15.888 106.139 16.095 106.489C14.859 107.2 13.154 107.517 11.808 107.287C11.24 107.178 10.573 106.937 10.059 106.576C10.595 105.854 11.087 104.859 10.901 104.061C10.715 103.197 10.113 103.153 9.92802 103.164C9.18502 103.197 8.39702 104.104 8.31002 104.804C8.22202 105.537 8.48502 106.16 8.94402 106.652C8.90002 106.685 8.86702 106.718 8.82402 106.75C8.42002 107.089 7.94902 107.351 7.45702 107.515C6.70302 107.799 5.88201 107.876 5.12801 107.723C4.42801 107.581 3.47702 107.067 2.74402 106.356C2.80902 106.761 2.87502 107.154 2.95202 107.559C3.60802 108.04 4.33001 108.379 4.97501 108.51C5.22701 108.554 5.48901 108.587 5.75201 108.597C6.47401 108.619 7.19502 108.488 7.87302 108.214C8.40902 108.006 8.90102 107.722 9.32702 107.361C9.39202 107.306 9.45802 107.241 9.53502 107.175C10.202 107.645 11.011 107.951 11.667 108.061C13.209 108.334 15.166 107.963 16.544 107.142C16.883 107.547 17.298 107.886 17.758 108.137C19.026 108.837 20.634 108.902 22.088 108.334C22.646 108.104 23.356 107.7 23.991 107.164C24.166 107.394 24.374 107.601 24.614 107.787C25.653 108.662 27.02 109.088 28.343 109.001C28.398 108.728 28.442 108.465 28.496 108.192C27.324 108.339 26.067 107.978 25.126 107.191ZM9.45702 106.054C9.19502 105.726 9.04102 105.343 9.09602 104.906C9.15102 104.534 9.66502 103.977 9.97102 103.966C10.059 103.966 10.113 104.13 10.124 104.239C10.244 104.709 9.89402 105.463 9.45702 106.054ZM16.422 105.179C16.291 104.556 16.324 103.943 16.521 103.823C16.63 103.757 16.707 103.736 16.772 103.736C16.849 103.736 16.892 103.769 16.925 103.791C17.242 104.01 17.439 104.677 17.363 105.049C17.297 105.41 17.09 105.738 16.74 106.044C16.597 105.77 16.488 105.474 16.422 105.179ZM23.956 104.906C23.956 104.49 24.109 103.933 24.317 103.802C24.328 103.78 24.35 103.769 24.393 103.769C24.415 103.769 24.437 103.78 24.481 103.791C24.689 103.868 24.798 104.152 24.787 104.392C24.776 104.906 24.525 105.42 24.142 105.879C24.022 105.551 23.956 105.223 23.956 104.906ZM4.08802 104.304C4.55802 103.55 4.35002 103.046 4.17502 102.806C3.84702 102.336 3.15802 102.128 2.45802 102.281C2.32702 102.314 2.20702 102.347 2.09702 102.401C2.13002 102.674 2.17402 102.948 2.21702 103.221C2.37002 103.123 2.52302 103.079 2.62102 103.057C2.73002 103.035 2.84001 103.024 2.96001 103.035C3.21101 103.035 3.43002 103.122 3.52802 103.254C3.64802 103.44 3.53901 103.691 3.41901 103.877C3.21101 104.205 2.87202 104.533 2.47902 104.817C2.52302 105.101 2.56702 105.386 2.62102 105.67C3.21302 105.299 3.77102 104.807 4.08802 104.304Z" fill="white"/>
<path d="M9.124 6.97202L9.02 13.289C9.012 13.766 12.133 14.204 15.991 14.268C19.849 14.332 22.983 13.997 22.991 13.52L23.095 7.203L9.124 6.97202Z" fill="#FFB631"/>
<path d="M23.1036 7.18993C23.1115 6.7128 19.9905 6.27441 16.1326 6.21075C12.2747 6.14709 9.14087 6.48226 9.133 6.95939C9.12513 7.43652 12.2462 7.87491 16.1041 7.93857C19.9619 8.00223 23.0957 7.66706 23.1036 7.18993Z" fill="#FFCD70"/>
<path d="M16.19 2.187C15.186 2.17 14.356 2.97298 14.34 3.97698L14.286 7.217L14.819 7.226L14.851 5.32H14.865L14.887 3.98699C14.899 3.28499 15.479 2.72301 16.181 2.73501C16.883 2.74701 17.445 3.32698 17.433 4.02898L17.411 5.36199L17.389 6.72201L17.38 7.269L17.927 7.27801L17.981 4.03798C17.997 3.03298 17.194 2.203 16.19 2.187Z" fill="#FFCD70"/>
<path d="M25.407 1.42599C24.887 0.600995 23.811 0.015 22.789 0C22.769 0 22.749 0 22.728 0C21.233 0 19.548 0.783015 17.975 2.20901C17.031 3.06401 16.19 4.09399 15.575 5.12399C13.954 3.40799 11.995 2.075 9.35502 2.987C8.38902 3.321 7.55002 4.21501 7.31402 5.16101C7.13402 5.88601 7.31502 6.586 7.82402 7.133C8.36702 7.715 9.46302 7.98901 11.262 7.98901C11.354 7.98901 11.448 7.988 11.544 7.987C12.98 7.966 14.476 7.78701 15.28 7.69101C15.28 7.69101 16.395 7.52901 16.637 7.46701C18.333 7.02801 19.714 6.56301 21.212 6.07901C21.325 6.04201 21.445 6.005 21.57 5.966C22.96 5.53 24.863 4.93199 25.541 3.45999C25.852 2.77999 25.805 2.05799 25.407 1.42599ZM8.80002 6.22202C8.59802 6.00502 8.53702 5.76999 8.60802 5.48199C8.73402 4.97499 9.25302 4.43301 9.79002 4.24701C10.222 4.09801 10.631 4.026 11.025 4.026C12.405 4.026 13.83 5.46301 15.16 6.94501C10.712 7.72501 8.87202 6.30002 8.80002 6.22202ZM24.328 2.89999C23.897 3.83499 22.397 4.67499 21.311 5.01599C21.182 5.05599 18.057 6.46699 16.666 6.76999C17.793 4.31999 20.53 1.68201 22.845 1.68201C22.86 1.68201 24.001 1.69499 24.279 2.13699C24.436 2.38799 24.452 2.62999 24.328 2.89999Z" fill="#FF171F"/>
<path d="M22.541 1.69698C22.643 1.68698 22.744 1.682 22.844 1.682C22.859 1.682 24 1.69499 24.278 2.13699C24.436 2.38799 24.452 2.62999 24.328 2.89999C23.897 3.83499 22.397 4.67498 21.311 5.01598C21.182 5.05598 18.057 6.46698 16.666 6.76998C23.218 5.69698 24.597 3.74599 24.597 3.74599C26.787 1.04699 22.541 1.69698 22.541 1.69698Z" fill="#DE0008"/>
<path d="M15.754 7.35102L15.16 6.94602C10.712 7.72502 8.87303 6.30002 8.80003 6.22202C8.59803 6.00502 8.53703 5.77 8.60803 5.482C8.73403 4.975 9.25302 4.43302 9.79002 4.24702C10.222 4.09802 10.631 4.02601 11.025 4.02601C11.449 4.02601 11.877 4.16201 12.305 4.39301C9.34302 2.77601 8.24503 5.374 8.24503 5.374C7.24903 8.777 15.754 7.35102 15.754 7.35102Z" fill="#DE0008"/>
<path opacity="0.5" d="M19.103 5.939C18.223 6.29 17.277 6.637 16.665 6.77C17.091 5.845 17.746 4.89302 18.521 4.06602C18.149 3.70702 17.562 3.50102 16.657 3.59202C16.249 4.08702 15.883 4.60502 15.574 5.12302C15.371 4.90902 15.163 4.70001 14.949 4.50101C15.053 5.05001 15.14 5.884 14.958 6.723C15.025 6.797 15.092 6.87102 15.159 6.94602C15.069 6.96202 14.979 6.976 14.891 6.99C14.814 7.256 14.707 7.52001 14.563 7.77201C14.836 7.74201 15.079 7.713 15.278 7.689C15.278 7.689 16.393 7.527 16.635 7.465C17.488 7.244 18.262 7.017 19.011 6.784C19.056 6.532 19.094 6.241 19.103 5.939Z" fill="#B80007"/>
<path d="M22.917 7.98802L24.136 7.64702C20.666 4.35402 17.523 5.32603 17.412 5.36003L17.802 6.63603C17.807 6.63503 20.567 6.28503 22.897 9.61803L22.917 7.98802Z" fill="#FF171F"/>
<path d="M17.412 5.36099L17.802 6.63699C17.804 6.63699 18.091 6.60002 18.558 6.66202C18.797 6.01902 18.686 5.502 18.567 5.202C17.877 5.217 17.451 5.34899 17.412 5.36099Z" fill="#DE0008"/>
<path d="M15.972 5.73299C15.862 5.71599 14.859 5.592 13.441 6.468C11.761 7.506 9.81902 9.23598 8.42502 12.089L9.65302 12.062L10.615 13.413C11.855 8.13898 16.258 6.804 16.286 6.808C16.276 6.807 15.972 5.73299 15.972 5.73299Z" fill="#FF171F"/>
<path d="M16.286 6.808C16.276 6.807 15.972 5.73299 15.972 5.73299C15.912 5.72399 15.581 5.68198 15.06 5.79198C15.055 6.17098 15.013 6.83398 14.817 7.49898C15.655 6.99198 16.275 6.806 16.286 6.808Z" fill="#DE0008"/>
<path d="M15.279 7.69C15.904 6.189 14.94 4.49399 14.937 4.48999C15.461 4.12799 16.565 3.70599 16.565 3.70599C16.726 3.71799 17.866 3.86602 18.185 4.44202C18.48 4.97502 19.071 6.06701 17.783 7.15201C17.783 7.15201 17.38 7.39599 16.563 7.60699C15.746 7.81899 15.279 7.69 15.279 7.69Z" fill="#FF171F"/>
<path opacity="0.4" d="M24.056 39.923C30.272 53.191 27.791 76.878 28.231 88.479C28.67 100.079 20.449 120.748 18.419 103.14C16.389 85.532 19.691 70.474 19.396 60.347C19.101 50.221 18.773 39.028 24.056 39.923ZM19.757 113.789C19.757 113.789 22.537 119.492 17.462 121.691C12.388 123.896 12.355 122.727 12.907 119.602C13.461 116.482 14.985 112.252 19.757 113.789Z" fill="white"/>
</svg>
