<svg width="89" height="113" viewBox="0 0 89 113" fill="none" xmlns="http://www.w3.org/2000/svg">
<path d="M88.6785 69.079L88.6725 69.259C88.6465 70.095 88.5875 70.913 88.5135 71.731C88.4585 72.434 88.3715 73.121 88.2845 73.807C87.4375 79.898 85.3565 85.59 82.3125 90.612C82.3125 90.612 82.3125 90.612 82.2965 90.611C82.0185 91.111 81.7075 91.609 81.3805 92.091C78.9525 95.771 75.9955 99.073 72.6105 101.87C64.5785 108.523 54.1895 112.38 42.9495 112.028C32.2495 111.692 22.5695 107.6 15.0995 101.051C10.7415 97.224 7.16447 92.569 4.57347 87.337C4.32647 86.854 4.09547 86.354 3.86547 85.855C1.82647 81.313 0.538476 76.369 0.126476 71.173C0.083476 70.45 0.0404764 69.727 0.0144764 69.005C0.00247645 68.348 -0.00952953 67.676 0.0114705 67.004C0.00247047 66.774 0.0104672 66.528 0.0174672 66.299C0.0274672 65.988 0.0374724 65.677 0.0634724 65.366C0.0804724 64.809 0.131469 64.253 0.181469 63.697C0.256469 62.863 0.347462 62.062 0.471462 61.246C0.893462 58.258 1.64047 55.362 2.62847 52.604C2.86247 51.955 3.11147 51.323 3.36047 50.708C3.71447 49.866 4.08547 49.025 4.50447 48.218C5.27747 46.586 6.16247 45.039 7.14447 43.544C9.21247 40.378 11.6645 37.502 14.4335 34.965C15.9035 33.584 17.4685 32.338 19.1105 31.208C26.6545 25.999 35.8665 23.057 45.7305 23.366C55.5945 23.675 64.6035 27.189 71.8065 32.86C73.1835 33.936 74.4915 35.109 75.7155 36.345C78.0055 38.631 80.0415 41.171 81.7765 43.916C82.2615 44.653 82.7135 45.422 83.1325 46.189C83.4595 46.741 83.7535 47.307 84.0305 47.874C84.4315 48.674 84.8155 49.506 85.1505 50.337C85.8395 51.9 86.4125 53.509 86.8855 55.148C87.0495 55.678 87.1965 56.224 87.3265 56.769C87.8815 58.951 88.2865 61.211 88.5095 63.514L88.5085 63.53C88.5555 64.138 88.6025 64.73 88.6315 65.355C88.6735 66.094 88.6995 66.85 88.6925 67.588C88.6935 68.079 88.6935 68.588 88.6785 69.079Z" fill="white"/>
<path d="M88.6785 69.079L88.6725 69.259C88.6465 70.095 88.5875 70.913 88.5135 71.731C88.4585 72.434 88.3715 73.121 88.2845 73.807C87.4375 79.898 85.3565 85.59 82.3125 90.612C82.3125 90.612 82.3125 90.612 82.2965 90.611C82.0185 91.111 81.7075 91.609 81.3805 92.091C78.9525 95.771 75.9955 99.073 72.6105 101.87C57.2835 102.636 41.9035 102.482 26.6575 101.725C22.7925 101.538 18.9455 101.319 15.0995 101.051C10.7415 97.224 7.16447 92.569 4.57347 87.337C4.32647 86.854 4.09547 86.354 3.86547 85.855C1.82647 81.313 0.538476 76.369 0.126476 71.173C0.083476 70.45 0.0404764 69.727 0.0144764 69.005C0.00247645 68.348 -0.00952953 67.676 0.0114705 67.004C0.00247047 66.774 0.0104672 66.528 0.0174672 66.299C0.0274672 65.988 0.0374724 65.677 0.0634724 65.366C0.0804724 64.809 0.131469 64.253 0.181469 63.697C0.256469 62.863 0.347462 62.062 0.471462 61.246C0.893462 58.258 1.64047 55.362 2.62847 52.604C2.86247 51.955 3.11147 51.323 3.36047 50.708C3.71447 49.866 4.08547 49.025 4.50447 48.218C5.27747 46.586 6.16247 45.039 7.14447 43.544C9.21247 40.378 11.6645 37.502 14.4335 34.965C17.8985 35.369 21.3805 35.708 24.8645 36.014C41.7625 37.446 58.8295 37.686 75.7155 36.345C78.0055 38.631 80.0415 41.171 81.7765 43.916C82.2615 44.653 82.7135 45.422 83.1325 46.189C83.4595 46.741 83.7535 47.307 84.0305 47.874C84.4315 48.674 84.8155 49.506 85.1505 50.337C85.8395 51.9 86.4125 53.509 86.8855 55.148C87.0495 55.678 87.1965 56.224 87.3265 56.769C87.8815 58.951 88.2865 61.211 88.5095 63.514L88.5085 63.53C88.5555 64.138 88.6025 64.73 88.6315 65.355C88.6735 66.094 88.6995 66.85 88.6925 67.588C88.6935 68.079 88.6935 68.588 88.6785 69.079Z" fill="#5AB8AA"/>
<path d="M86.8845 55.147C86.6385 55.156 86.3915 55.165 86.1455 55.173C84.4065 55.184 82.8735 54.906 81.5965 54.325C82.2165 53.902 82.7885 53.444 83.3135 52.919C84.0415 52.204 84.7245 51.323 85.1495 50.336C84.8145 49.505 84.4305 48.673 84.0295 47.873C84.1495 49.271 83.1675 50.782 82.1695 51.751C81.5265 52.371 80.8215 52.906 80.0515 53.374C78.9005 52.436 78.1355 51.182 77.9635 49.881C77.7375 48.201 78.5965 46.44 79.9945 45.779C80.3775 45.594 80.8395 45.51 81.2985 45.525C81.6595 45.536 82.0335 45.614 82.3905 45.74C82.6655 45.847 82.9235 46.003 83.1305 46.19C82.7115 45.423 82.2605 44.654 81.7745 43.917C80.9085 43.808 80.0515 43.945 79.2855 44.298C77.2545 45.268 76.0135 47.705 76.3325 50.094C76.5475 51.593 77.3065 53.028 78.4845 54.163C76.5065 55.003 74.3145 55.345 72.2065 55.098C70.6705 54.919 69.2755 54.432 68.0695 53.656C69.2455 52.233 70.0215 50.502 70.2435 48.672C70.4005 47.316 70.1555 46.242 69.5075 45.467C68.6385 44.407 67.0255 44.061 65.6625 44.641C64.5155 45.13 63.7005 46.023 63.3345 47.225C62.8785 48.703 63.1495 50.5 64.0575 51.906C64.5105 52.609 65.0325 53.232 65.6055 53.791C64.8645 54.408 64.0295 54.89 63.1345 55.19C60.2825 56.183 56.8915 55.519 54.4945 53.508C54.0625 53.15 53.6815 52.744 53.3515 52.308C54.5405 51 55.4095 49.453 55.4455 47.781C55.4865 46.487 54.7685 45.316 53.7145 44.938C52.8865 44.65 52.2555 44.892 51.8875 45.143C50.5125 46.1 50.4485 48.657 50.4455 48.772C50.4275 49.87 50.7195 51.011 51.2615 52.062C50.0975 53.091 48.7275 53.901 47.6145 54.342C45.0895 55.345 42.2725 55.224 40.0795 54.024C39.3535 53.624 38.6985 53.095 38.1595 52.488C39.2375 51.587 39.8765 50.574 40.1095 49.416C40.3645 48.079 39.7905 45.994 38.5215 45.135C37.7185 44.585 36.7665 44.604 35.8625 45.183C34.3065 46.167 34.7625 48.888 34.9335 49.697C35.1205 50.539 35.4395 51.337 35.8585 52.088C33.3195 53.534 29.7895 54.178 27.0165 53.697C25.8415 53.496 24.4965 52.995 23.4045 52.255C24.5175 50.765 25.5325 48.713 25.1585 47.045C24.7545 45.277 23.5275 45.19 23.1495 45.211C21.6055 45.277 19.9885 47.162 19.8125 48.584C19.6175 50.103 20.1675 51.383 21.1035 52.413C21.0195 52.476 20.9515 52.54 20.8675 52.602C18.7455 54.373 15.8345 55.134 13.2595 54.611L13.2435 54.61C11.4835 54.26 8.92247 52.736 7.39247 50.802C8.84547 49.962 10.3255 48.795 11.1025 47.556C12.0695 46.012 11.6275 44.948 11.2825 44.445C10.6075 43.489 9.17748 43.067 7.72348 43.382C7.52548 43.425 7.32647 43.484 7.14447 43.544C6.16247 45.039 5.27747 46.585 4.50447 48.218C4.56547 48.876 4.75947 49.505 5.05147 50.121C4.50347 50.35 3.93947 50.545 3.35947 50.708C3.11047 51.323 2.86147 51.955 2.62747 52.604C3.76747 52.344 4.86148 51.985 5.90848 51.542C7.60748 53.842 10.4535 55.686 12.7825 56.186C12.8315 56.204 12.8635 56.221 12.9125 56.223C13.4335 56.338 13.9895 56.388 14.5305 56.405C17.1355 56.487 19.8545 55.571 21.9085 53.865C22.0435 53.754 22.1785 53.627 22.3305 53.484C23.6945 54.462 25.3805 55.072 26.7345 55.312C29.9155 55.871 33.9415 55.111 36.7985 53.43C37.4945 54.239 38.3425 54.938 39.2935 55.46C41.9055 56.903 45.2305 57.057 48.2195 55.871C49.3815 55.415 50.8525 54.559 52.1665 53.452C52.5295 53.923 52.9585 54.363 53.4375 54.771C56.2665 57.139 60.2775 57.905 63.6755 56.748C64.8695 56.326 65.9725 55.672 66.9165 54.865C68.3775 55.862 70.1125 56.507 72.0245 56.731C74.7045 57.045 77.5095 56.509 79.9425 55.29C79.9745 55.324 80.0065 55.341 80.0555 55.359C81.7305 56.346 83.7825 56.821 86.1605 56.813C86.5545 56.809 86.9325 56.788 87.3265 56.768C87.1955 56.223 87.0485 55.677 86.8845 55.147ZM6.51547 49.413C6.13047 48.614 5.97548 47.789 6.13248 46.974C6.40848 45.506 7.56847 45.1 8.06447 44.984C8.29547 44.942 8.52648 44.916 8.75548 44.924C9.27948 44.94 9.73347 45.119 9.93747 45.404C10.1885 45.756 9.95847 46.29 9.71747 46.676C9.07847 47.705 7.76747 48.698 6.51547 49.413ZM22.1735 51.15C21.6205 50.477 21.3175 49.68 21.4275 48.797C21.5335 48.046 22.6035 46.866 23.2275 46.836C23.4075 46.842 23.5115 47.189 23.5545 47.404C23.7855 48.396 23.0645 49.932 22.1735 51.15ZM36.5325 49.353C36.2615 48.065 36.3495 46.805 36.7515 46.555C36.9695 46.414 37.1345 46.37 37.2655 46.374C37.4125 46.378 37.5095 46.431 37.5905 46.482C38.2325 46.929 38.6475 48.336 38.4925 49.102C38.3545 49.836 37.9235 50.511 37.1985 51.128C36.9035 50.579 36.6765 49.981 36.5325 49.353ZM52.4955 50.805C52.2215 50.14 52.0785 49.447 52.0825 48.791C52.0925 47.938 52.4075 46.784 52.8265 46.502C52.8605 46.47 52.8935 46.439 52.9925 46.442C53.0255 46.443 53.0905 46.461 53.1715 46.497C53.6095 46.642 53.8205 47.239 53.8055 47.73C53.7885 48.795 53.2635 49.845 52.4955 50.805ZM66.7725 52.647C66.2625 52.172 65.8205 51.617 65.4455 51.031C64.7885 50.026 64.5825 48.724 64.8935 47.717C65.1135 46.969 65.5895 46.443 66.3035 46.154C66.5525 46.047 66.8335 45.99 67.0955 45.998C67.5545 46.012 67.9915 46.19 68.2445 46.509C68.5925 46.93 68.7185 47.59 68.6085 48.489C68.4295 49.993 67.7775 51.448 66.7725 52.647Z" fill="white"/>
<path d="M82.1935 88.624C83.8175 87.051 85.2085 84.536 84.2645 82.194C83.8375 81.164 82.9935 80.366 81.8595 79.921C80.6285 79.439 79.2825 79.479 78.1665 80.002C76.1355 80.955 74.8945 83.393 75.2135 85.798C75.4285 87.297 76.1875 88.732 77.3655 89.868C75.3875 90.708 73.1955 91.049 71.0875 90.803C69.5515 90.624 68.1565 90.137 66.9505 89.361C68.1265 87.938 68.9025 86.208 69.1245 84.378C69.2815 83.022 69.0375 81.931 68.3885 81.173C67.5195 80.113 65.9065 79.767 64.5435 80.347C63.3965 80.836 62.5815 81.729 62.2155 82.931C61.7595 84.409 62.0315 86.189 62.9385 87.612C63.3925 88.315 63.9135 88.938 64.4865 89.497C63.7465 90.097 62.9105 90.579 62.0155 90.896C59.1635 91.873 55.7725 91.225 53.3755 89.215C52.9435 88.857 52.5625 88.451 52.2325 88.015C53.4215 86.707 54.2905 85.16 54.3265 83.472C54.3665 82.194 53.6485 81.023 52.5945 80.646C51.7675 80.341 51.1365 80.6 50.7675 80.851C49.3925 81.808 49.3285 84.365 49.3255 84.463C49.3065 85.578 49.5995 86.702 50.1405 87.769C48.9765 88.799 47.6065 89.608 46.4935 90.049C43.9695 91.052 41.1515 90.931 38.9585 89.731C38.2325 89.331 37.5775 88.802 37.0385 88.178C38.1165 87.277 38.7555 86.264 38.9875 85.123C39.2425 83.786 38.6685 81.702 37.3995 80.842C36.5965 80.292 35.6455 80.295 34.7415 80.873C33.1845 81.874 33.6405 84.594 33.8125 85.403C33.9995 86.229 34.3185 87.043 34.7385 87.777C32.1995 89.239 28.6695 89.883 25.8965 89.403C24.7225 89.186 23.3595 88.7 22.2845 87.945C23.3975 86.455 24.4125 84.403 24.0385 82.751C23.6355 80.967 22.4075 80.879 22.0295 80.9C20.4855 80.983 18.8685 82.851 18.6915 84.289C18.4965 85.808 19.0465 87.089 19.9825 88.102C19.8975 88.181 19.8305 88.245 19.7465 88.308C18.9045 89.003 17.9365 89.547 16.9245 89.892C15.3645 90.466 13.6705 90.627 12.1225 90.315C10.3615 89.965 7.80145 88.441 6.27145 86.507C7.72445 85.667 9.20445 84.5 9.98245 83.245C10.9495 81.701 10.5065 80.653 10.1615 80.151C9.48645 79.195 8.05646 78.756 6.60246 79.088C4.90146 79.461 3.71446 80.687 3.39946 82.366C3.18246 83.54 3.40846 84.712 3.94746 85.828C3.91446 85.843 3.89746 85.843 3.86446 85.858C4.09446 86.357 4.32546 86.857 4.57246 87.34C4.63946 87.309 4.72145 87.279 4.78845 87.248C6.51845 89.598 9.42947 91.445 11.7925 91.929C12.3145 92.027 12.8695 92.094 13.4105 92.111C14.8855 92.157 16.3865 91.893 17.7815 91.329C18.8775 90.904 19.8965 90.313 20.7885 89.57C20.9235 89.459 21.0585 89.333 21.2105 89.19C22.5745 90.168 24.2605 90.778 25.6145 91.017C28.7785 91.575 32.8215 90.816 35.6795 89.118C36.3755 89.943 37.2225 90.643 38.1735 91.164C40.7855 92.607 44.1105 92.744 47.0995 91.575C48.2625 91.103 49.7315 90.263 51.0465 89.156C51.4095 89.627 51.8385 90.067 52.3175 90.459C55.1455 92.844 59.1565 93.609 62.5555 92.436C63.7485 92.031 64.8525 91.376 65.7965 90.553C67.2575 91.567 68.9915 92.211 70.9045 92.435C73.5845 92.732 76.3895 92.197 78.8225 90.994C78.8545 91.011 78.8875 91.029 78.9355 91.063C79.6765 91.496 80.5015 91.85 81.3795 92.091C81.7065 91.609 82.0175 91.111 82.2955 90.611C81.6435 90.476 81.0435 90.26 80.4775 90.013C81.0965 89.606 81.6695 89.132 82.1935 88.624ZM5.39546 85.117C5.01046 84.318 4.85646 83.493 5.01346 82.661C5.28946 81.193 6.46647 80.788 6.94547 80.688C7.17647 80.629 7.40646 80.62 7.63646 80.628C8.16146 80.644 8.61546 80.806 8.81946 81.091C9.07046 81.46 8.84047 81.994 8.59847 82.38C7.95947 83.393 6.64846 84.402 5.39546 85.117ZM21.0545 86.854C20.5015 86.18 20.1985 85.384 20.3085 84.502C20.4145 83.735 21.4845 82.571 22.1085 82.541C22.2885 82.547 22.3925 82.894 22.4345 83.109C22.6665 84.084 21.9455 85.636 21.0545 86.854ZM35.4125 85.058C35.1415 83.77 35.2305 82.51 35.6315 82.26C35.8495 82.119 36.0145 82.075 36.1455 82.079C36.2925 82.084 36.3895 82.136 36.4705 82.188C37.1125 82.635 37.5285 84.025 37.3725 84.791C37.2345 85.525 36.8035 86.2 36.0785 86.834C35.7855 86.267 35.5575 85.669 35.4125 85.058ZM51.3595 86.492C51.1015 85.828 50.9585 85.151 50.9625 84.495C50.9725 83.642 51.2885 82.488 51.7065 82.206C51.7405 82.174 51.7735 82.143 51.8725 82.146C51.9055 82.147 51.9705 82.165 52.0515 82.184C52.4895 82.345 52.7005 82.942 52.6845 83.434C52.6685 84.5 52.1435 85.549 51.3595 86.492ZM65.6535 88.335C65.1435 87.86 64.7015 87.321 64.3265 86.719C63.6695 85.714 63.4635 84.412 63.7745 83.405C63.9945 82.674 64.4695 82.147 65.1845 81.842C65.4335 81.735 65.7135 81.695 65.9765 81.703C66.4355 81.717 66.8725 81.895 67.1245 82.215C67.4725 82.62 67.5995 83.296 67.4885 84.195C67.3105 85.697 66.6585 87.152 65.6535 88.335ZM78.9325 89.063C77.7805 88.141 77.0165 86.887 76.8445 85.57C76.6185 83.89 77.4775 82.129 78.8755 81.484C79.2585 81.299 79.7205 81.215 80.1795 81.23C80.5405 81.241 80.9145 81.319 81.2715 81.445C81.9675 81.729 82.4945 82.205 82.7375 82.819C83.3935 84.398 82.2345 86.297 81.0505 87.457C80.4075 88.059 79.7015 88.611 78.9325 89.063Z" fill="white"/>
<path d="M10.1155 66.403C8.74447 66.705 7.31346 66.84 5.86846 66.91C6.78846 67.89 7.69246 68.902 8.56246 69.93C9.25946 70.723 8.05946 71.85 7.37946 71.058C6.52446 70.064 5.65346 69.085 4.76546 68.122C4.76246 69.254 4.77646 70.386 4.80646 71.519C4.82246 72.569 3.18447 72.518 3.16747 71.468C3.13747 70.335 3.12346 69.219 3.12546 68.088C2.20946 69.06 1.29346 70.032 0.377464 71.003C0.293464 71.082 0.209472 71.145 0.126472 71.176C0.0834717 70.453 0.0404722 69.73 0.0144722 69.008C0.642472 68.339 1.27046 67.669 1.89846 67C1.25846 67.013 0.635458 67.01 0.012458 67.007C0.00345802 66.777 0.01147 66.531 0.01847 66.302C0.02847 65.991 0.03846 65.68 0.06446 65.369C0.68746 65.372 1.31047 65.375 1.93447 65.378C1.31147 64.85 0.721471 64.307 0.182471 63.699C0.257471 62.865 0.348465 62.064 0.472465 61.248C0.552465 61.316 0.631458 61.401 0.693458 61.517C1.24846 62.633 2.17347 63.466 3.13247 64.283C3.13047 63.299 3.12846 62.315 3.15946 61.331C3.17546 60.282 4.81447 60.333 4.79847 61.382C4.77147 62.234 4.77746 63.087 4.76746 63.94C5.61546 63.048 6.46346 62.14 7.31246 61.248C8.02546 60.467 9.15247 61.667 8.42347 62.431C7.54047 63.387 6.64147 64.343 5.75947 65.283C7.10647 65.21 8.45547 65.089 9.72747 64.8C10.7645 64.57 11.1405 66.173 10.1155 66.403Z" fill="white"/>
<path d="M29.8745 65.438C28.5885 65.723 27.2485 65.844 25.8965 65.916C26.7885 64.967 27.6795 64.017 28.5715 63.068C29.2915 62.302 28.1735 61.102 27.4495 61.873C26.6035 62.774 25.7575 63.674 24.9115 64.575C24.9175 63.723 24.9185 62.87 24.9365 62.018C24.9575 60.964 23.3195 60.91 23.2975 61.967C23.2775 62.948 23.2735 63.929 23.2685 64.91C22.3205 64.101 21.3955 63.265 20.8395 62.152C20.3675 61.208 18.9275 61.99 19.3985 62.935C20.0315 64.202 21.0435 65.104 22.0805 66.004C20.8315 66 19.5875 65.991 18.3795 66.021C17.3295 66.047 17.2705 67.685 18.3285 67.659C19.5405 67.629 20.7835 67.636 22.0335 67.637C21.1575 68.57 20.2815 69.502 19.4045 70.435C18.6845 71.201 19.8025 72.401 20.5265 71.63C21.4395 70.658 22.3535 69.686 23.2665 68.714C23.2745 69.842 23.2815 70.971 23.3065 72.099C23.3305 73.15 24.9685 73.208 24.9455 72.15C24.9195 71.017 24.9135 69.884 24.9055 68.751C25.7975 69.709 26.6655 70.689 27.5175 71.681C28.2065 72.483 29.3995 71.358 28.7125 70.559C27.8335 69.536 26.9365 68.526 26.0145 67.541C27.4555 67.465 28.8845 67.336 30.2595 67.032C31.2895 66.803 30.9065 65.209 29.8745 65.438Z" fill="white"/>
<path d="M50.0194 66.069C48.7334 66.354 47.3934 66.475 46.0414 66.547C46.9334 65.598 47.8245 64.649 48.7165 63.699C49.4365 62.933 48.3184 61.733 47.5944 62.504C46.7484 63.405 45.9024 64.306 45.0564 65.206C45.0624 64.354 45.0634 63.501 45.0814 62.649C45.1034 61.595 43.4645 61.541 43.4425 62.598C43.4225 63.579 43.4194 64.56 43.4134 65.541C42.4654 64.732 41.5404 63.896 40.9844 62.783C40.5124 61.839 39.0714 62.621 39.5434 63.566C40.1764 64.833 41.1885 65.735 42.2255 66.635C40.9765 66.631 39.7325 66.622 38.5245 66.652C37.4745 66.678 37.4155 68.317 38.4735 68.291C39.6855 68.261 40.9284 68.268 42.1784 68.269C41.3024 69.202 40.4264 70.134 39.5494 71.067C38.8294 71.833 39.9475 73.033 40.6715 72.262C41.5845 71.29 42.4984 70.318 43.4114 69.345C43.4184 70.473 43.4265 71.602 43.4515 72.73C43.4755 73.78 45.1135 73.838 45.0895 72.781C45.0645 71.648 45.0574 70.515 45.0494 69.382C45.9414 70.34 46.8095 71.32 47.6625 72.312C48.3515 73.114 49.5444 71.989 48.8574 71.19C47.9784 70.167 47.0824 69.157 46.1594 68.171C47.6004 68.095 49.0295 67.966 50.4045 67.662C51.4345 67.435 51.0514 65.84 50.0194 66.069Z" fill="white"/>
<path d="M70.1635 66.701C68.8775 66.986 67.5375 67.107 66.1855 67.179C67.0775 66.23 67.9685 65.28 68.8605 64.331C69.5805 63.565 68.4625 62.365 67.7385 63.136C66.8925 64.037 66.0465 64.938 65.2005 65.838C65.2065 64.986 65.2075 64.133 65.2255 63.281C65.2475 62.227 63.6085 62.173 63.5865 63.23C63.5665 64.211 63.5635 65.192 63.5575 66.173C62.6095 65.364 61.6845 64.528 61.1285 63.415C60.6565 62.471 59.2155 63.253 59.6875 64.197C60.3205 65.464 61.3325 66.366 62.3695 67.266C61.1205 67.262 59.8765 67.253 58.6685 67.283C57.6185 67.309 57.5605 68.948 58.6175 68.922C59.8295 68.892 61.0725 68.898 62.3225 68.9C61.4465 69.833 60.5705 70.765 59.6935 71.698C58.9735 72.464 60.0915 73.664 60.8155 72.893C61.7285 71.921 62.6425 70.949 63.5555 69.976C63.5635 71.104 63.5695 72.233 63.5955 73.361C63.6195 74.412 65.2575 74.47 65.2345 73.412C65.2085 72.279 65.2025 71.146 65.1945 70.013C66.0865 70.971 66.9545 71.951 67.8065 72.943C68.4955 73.745 69.6885 72.62 69.0015 71.821C68.1225 70.798 67.2265 69.788 66.3035 68.802C67.7445 68.726 69.1735 68.597 70.5485 68.293C71.5795 68.066 71.1955 66.472 70.1635 66.701Z" fill="white"/>
<path d="M88.6725 69.259C87.9315 69.351 87.1925 69.393 86.4525 69.436C87.1505 70.179 87.8315 70.955 88.5125 71.731C88.4575 72.434 88.3705 73.121 88.2835 73.807C88.1705 73.771 88.0405 73.701 87.9465 73.583C87.0915 72.589 86.2365 71.611 85.3325 70.647C85.3465 71.779 85.3595 72.911 85.3735 74.044C85.4065 75.095 83.7675 75.043 83.7345 73.993C83.7205 72.861 83.7065 71.745 83.6925 70.613C82.7925 71.585 81.8765 72.557 80.9605 73.529C80.2315 74.294 79.1205 73.094 79.8335 72.329C80.7155 71.405 81.5975 70.465 82.4635 69.525C81.2165 69.535 79.9705 69.529 78.7555 69.556C77.7045 69.589 77.7565 67.934 78.8065 67.917C80.0215 67.89 81.2675 67.896 82.5135 67.902C81.4755 67 80.4705 66.099 79.8375 64.833C79.3585 63.883 80.7935 63.108 81.2725 64.042C81.8275 65.158 82.7525 65.991 83.6955 66.808C83.7095 65.824 83.7085 64.84 83.7225 63.856C83.7555 62.807 85.3945 62.859 85.3615 63.907C85.3515 64.76 85.3405 65.612 85.3465 66.465C86.1945 65.573 87.0265 64.664 87.8745 63.772C88.0775 63.565 88.2935 63.49 88.5055 63.513L88.5045 63.529C88.5515 64.137 88.5985 64.729 88.6275 65.354C87.8465 66.182 87.0995 66.995 86.3195 67.807C87.1245 67.767 87.9135 67.709 88.6885 67.586C88.6895 68.078 88.6895 68.586 88.6745 69.078L88.6725 69.259Z" fill="white"/>
<path d="M10.1155 66.403C8.74447 66.705 7.31346 66.84 5.86846 66.91C6.78846 67.89 7.69246 68.902 8.56246 69.93C9.25946 70.723 8.05946 71.85 7.37946 71.058C6.52446 70.064 5.65346 69.085 4.76546 68.122C4.76246 69.254 4.77646 70.386 4.80646 71.519C4.82246 72.569 3.18447 72.518 3.16747 71.468C3.13747 70.335 3.12346 69.219 3.12546 68.088C2.20946 69.06 1.29346 70.032 0.377464 71.003C0.293464 71.082 0.209472 71.145 0.126472 71.176C0.0834717 70.453 0.0404722 69.73 0.0144722 69.008C0.642472 68.339 1.27046 67.669 1.89846 67C1.25846 67.013 0.635458 67.01 0.012458 67.007C0.00345802 66.777 0.01147 66.531 0.01847 66.302C0.02847 65.991 0.03846 65.68 0.06446 65.369C0.68746 65.372 1.31047 65.375 1.93447 65.378C1.31147 64.85 0.721471 64.307 0.182471 63.699C0.257471 62.865 0.348465 62.064 0.472465 61.248C0.552465 61.316 0.631458 61.401 0.693458 61.517C1.24846 62.633 2.17347 63.466 3.13247 64.283C3.13047 63.299 3.12846 62.315 3.15946 61.331C3.17546 60.282 4.81447 60.333 4.79847 61.382C4.77147 62.234 4.77746 63.087 4.76746 63.94C5.61546 63.048 6.46346 62.14 7.31246 61.248C8.02546 60.467 9.15247 61.667 8.42347 62.431C7.54047 63.387 6.64147 64.343 5.75947 65.283C7.10647 65.21 8.45547 65.089 9.72747 64.8C10.7645 64.57 11.1405 66.173 10.1155 66.403Z" fill="white"/>
<path d="M13.2415 54.61C11.4815 54.26 8.92046 52.736 7.39046 50.802C8.84346 49.962 10.3235 48.795 11.1005 47.556C12.0675 46.012 11.6255 44.948 11.2805 44.445C10.6055 43.489 9.17545 43.067 7.72145 43.382C7.52345 43.425 7.32446 43.484 7.14246 43.544C6.16046 45.039 5.27546 46.585 4.50246 48.218C4.56346 48.876 4.75745 49.505 5.04945 50.121C4.50145 50.35 3.93745 50.545 3.35745 50.708C3.10845 51.323 2.85946 51.955 2.62546 52.604C3.76546 52.344 4.85946 51.985 5.90646 51.542C7.60546 53.842 10.4515 55.686 12.7805 56.186C12.9285 55.649 13.0755 55.129 13.2565 54.61H13.2415ZM6.51546 49.413C6.13046 48.614 5.97546 47.789 6.13246 46.974C6.40846 45.506 7.56845 45.1 8.06445 44.984C8.29545 44.942 8.52646 44.916 8.75546 44.924C9.27946 44.94 9.73345 45.119 9.93745 45.404C10.1885 45.756 9.95845 46.29 9.71745 46.676C9.07845 47.705 7.76746 48.698 6.51546 49.413Z" fill="white"/>
<path d="M16.9245 89.89C15.3645 90.464 13.6705 90.625 12.1225 90.313C10.3615 89.963 7.80145 88.439 6.27145 86.505C7.72445 85.665 9.20445 84.498 9.98245 83.243C10.9495 81.699 10.5065 80.651 10.1615 80.149C9.48645 79.193 8.05646 78.754 6.60246 79.086C4.90146 79.459 3.71446 80.685 3.39946 82.364C3.18246 83.538 3.40846 84.71 3.94746 85.826C3.91446 85.841 3.89746 85.841 3.86446 85.856C4.09446 86.355 4.32546 86.855 4.57246 87.338C4.63946 87.307 4.72145 87.277 4.78845 87.246C6.51845 89.596 9.42947 91.443 11.7925 91.927C12.3145 92.025 12.8695 92.092 13.4105 92.109C14.8855 92.155 16.3865 91.891 17.7815 91.327C17.4845 90.859 17.1885 90.374 16.9245 89.89ZM5.39546 85.117C5.01046 84.318 4.85646 83.493 5.01346 82.661C5.28946 81.193 6.46647 80.788 6.94547 80.688C7.17647 80.629 7.40646 80.62 7.63646 80.628C8.16146 80.644 8.61546 80.806 8.81946 81.091C9.07046 81.46 8.84047 81.994 8.59847 82.38C7.95947 83.393 6.64846 84.402 5.39546 85.117Z" fill="white"/>
<path d="M7.03845 58.279L6.49545 58.174C8.47545 47.97 15.1305 38.951 24.2975 34.049L24.5585 34.537C15.5365 39.36 8.98745 48.236 7.03845 58.279Z" fill="#5A150E"/>
<path d="M9.86346 55.208L9.33347 55.049C11.4925 47.858 16.3125 41.344 22.5585 37.178L22.8655 37.638C16.7255 41.735 11.9865 48.139 9.86346 55.208Z" fill="#5A150E"/>
<path d="M12.9555 53.732L12.4245 53.578C13.9675 48.253 17.2955 43.538 21.7965 40.3L22.1195 40.749C17.7185 43.915 14.4635 48.525 12.9555 53.732Z" fill="#5A150E"/>
<path d="M66.4485 98.188L66.1405 97.729C73.8825 92.539 79.5285 84.354 81.6295 75.274L82.1685 75.399C80.0365 84.614 74.3065 92.921 66.4485 98.188Z" fill="#5A150E"/>
<path d="M69.1455 94.266L68.7975 93.836C73.8535 89.754 77.5605 84.049 79.2375 77.772L79.7725 77.915C78.0655 84.304 74.2915 90.111 69.1455 94.266Z" fill="#5A150E"/>
<path d="M70.9625 90.248L70.5725 89.856C72.6235 87.815 74.1865 85.284 75.0915 82.536L75.6165 82.709C74.6845 85.539 73.0745 88.146 70.9625 90.248Z" fill="#5A150E"/>
<path d="M62.0535 14.49L62.2705 27.619C62.2865 28.61 55.8005 29.521 47.7825 29.654C39.7645 29.787 33.2515 29.091 33.2355 28.099L33.0185 14.97L62.0535 14.49Z" fill="#FFB631"/>
<path d="M47.5704 16.5335C55.5882 16.4012 62.0747 15.4904 62.0583 14.4992C62.042 13.5079 55.529 12.8116 47.5112 12.9439C39.4933 13.0762 33.0069 13.987 33.0232 14.9783C33.0396 15.9695 39.5526 16.6658 47.5704 16.5335Z" fill="#FFCD70"/>
<path d="M47.3675 4.54301C49.4535 4.50901 51.1785 6.17701 51.2125 8.26301L51.3235 14.996L50.2165 15.014L50.1505 11.052H50.1215L50.0755 8.28101C50.0515 6.82201 48.8445 5.654 47.3855 5.678C45.9265 5.702 44.7585 6.90901 44.7825 8.36801L44.8285 11.139L44.8755 13.965L44.8945 15.101L43.7585 15.12L43.6475 8.387C43.6125 6.303 45.2815 4.57801 47.3675 4.54301Z" fill="#FFCD70"/>
<path d="M27.9375 7.187C29.3465 10.246 33.3015 11.488 36.1895 12.395C36.4495 12.477 36.6985 12.555 36.9335 12.631C40.0465 13.637 42.9165 14.602 46.4415 15.515C46.9445 15.645 49.2615 15.981 49.2615 15.981C50.9315 16.181 54.0395 16.552 57.0245 16.597C57.2235 16.6 57.4195 16.602 57.6105 16.602C61.3495 16.602 63.6275 16.033 64.7555 14.823C65.8145 13.687 66.1915 12.231 65.8165 10.725C65.3275 8.759 63.5835 6.901 61.5755 6.207C56.0895 4.312 52.0175 7.083 48.6485 10.649C47.3705 8.507 45.6215 6.368 43.6595 4.59C40.3895 1.626 36.8865 0 33.7805 0C33.7385 0 33.6965 -5.49364e-07 33.6545 0.000999451C31.5305 0.0309995 29.2935 1.25 28.2135 2.964C27.3845 4.275 27.2865 5.775 27.9375 7.187ZM49.5085 14.435C52.2725 11.355 55.2345 8.368 58.1025 8.368C58.9205 8.368 59.7695 8.516 60.6685 8.827C61.7835 9.212 62.8615 10.339 63.1245 11.393C63.2735 11.991 63.1465 12.479 62.7255 12.93C62.5765 13.091 58.7525 16.054 49.5085 14.435ZM30.5585 4.441C31.1375 3.522 33.5075 3.494 33.5395 3.494C38.3505 3.494 44.0375 8.977 46.3805 14.069C43.4895 13.441 36.9935 10.508 36.7265 10.425C34.4685 9.716 31.3505 7.969 30.4555 6.027C30.1975 5.466 30.2295 4.962 30.5585 4.441Z" fill="#FF171F"/>
<path d="M34.1695 3.52499C33.9585 3.50499 33.7475 3.494 33.5395 3.494C33.5075 3.494 31.1375 3.52199 30.5585 4.44099C30.2305 4.96199 30.1975 5.46599 30.4555 6.02599C31.3505 7.96799 34.4685 9.715 36.7265 10.424C36.9935 10.508 43.4895 13.44 46.3805 14.068C32.7645 11.838 29.8965 7.784 29.8965 7.784C25.3455 2.176 34.1695 3.52499 34.1695 3.52499Z" fill="#DE0008"/>
<path d="M48.2745 15.276L49.5085 14.434C58.7515 16.053 62.5755 13.091 62.7255 12.93C63.1465 12.479 63.2735 11.99 63.1245 11.393C62.8625 10.339 61.7835 9.212 60.6685 8.827C59.7695 8.517 58.9195 8.368 58.1025 8.368C57.2215 8.368 56.3325 8.651 55.4425 9.13C61.5985 5.77 63.8795 11.169 63.8795 11.169C65.9505 18.241 48.2745 15.276 48.2745 15.276Z" fill="#DE0008"/>
<path opacity="0.5" d="M41.3135 12.343C43.1415 13.072 45.1085 13.793 46.3795 14.069C45.4945 12.146 44.1335 10.168 42.5215 8.45C43.2935 7.703 44.5145 7.277 46.3955 7.465C47.2435 8.495 48.0045 9.571 48.6475 10.647C49.0685 10.201 49.5015 9.768 49.9455 9.354C49.7295 10.495 49.5495 12.228 49.9265 13.972C49.7875 14.126 49.6475 14.28 49.5085 14.434C49.6965 14.467 49.8815 14.497 50.0655 14.526C50.2245 15.079 50.4465 15.628 50.7475 16.152C50.1795 16.089 49.6765 16.029 49.2615 15.979C49.2615 15.979 46.9445 15.643 46.4415 15.513C44.6675 15.054 43.0605 14.581 41.5035 14.097C41.4105 13.575 41.3335 12.97 41.3135 12.343Z" fill="#B80007"/>
<path d="M33.3875 16.601L30.8545 15.893C38.0665 9.04899 44.5985 11.068 44.8295 11.141L44.0185 13.793C44.0075 13.79 38.2715 13.064 33.4285 19.99L33.3875 16.601Z" fill="#FF171F"/>
<path d="M44.8295 11.141L44.0185 13.793C44.0155 13.792 43.4175 13.717 42.4475 13.845C41.9505 12.509 42.1805 11.435 42.4275 10.811C43.8605 10.841 44.7475 11.115 44.8295 11.141Z" fill="#DE0008"/>
<path d="M47.8205 11.914C48.0485 11.878 50.1345 11.621 53.0815 13.442C56.5725 15.599 60.6085 19.195 63.5055 25.124L60.9535 25.069L58.9545 27.876C56.3785 16.915 47.2275 14.142 47.1675 14.148C47.1895 14.145 47.8205 11.914 47.8205 11.914Z" fill="#FF171F"/>
<path d="M47.1685 14.147C47.1895 14.145 47.8205 11.914 47.8205 11.914C47.9455 11.894 48.6335 11.809 49.7165 12.037C49.7275 12.825 49.8145 14.202 50.2225 15.584C48.4805 14.53 47.1905 14.145 47.1685 14.147Z" fill="#DE0008"/>
<path d="M49.2615 15.98C47.9625 12.86 49.9655 9.337 49.9725 9.33C48.8835 8.578 46.5895 7.701 46.5895 7.701C46.2545 7.725 43.8845 8.034 43.2225 9.231C42.6105 10.338 41.3825 12.608 44.0585 14.863C44.0585 14.863 44.8955 15.369 46.5935 15.809C48.2905 16.25 49.2615 15.98 49.2615 15.98Z" fill="#FF171F"/>
<path opacity="0.4" d="M80.0415 46.72C80.0415 46.72 88.0565 63.326 81.5875 82.056C75.1195 100.786 65.4645 97.014 68.7465 86.687C72.0305 76.36 75.2135 71.435 75.6005 60.137C75.9875 48.844 76.5665 42.666 80.0415 46.72ZM65.1745 97.308C65.1745 97.308 64.6905 103.869 58.9955 103.192C53.2995 102.521 53.8785 101.456 56.0035 98.944C58.1285 96.437 61.7005 93.442 65.1745 97.308Z" fill="white"/>
</svg>
