<svg width="286" height="349" viewBox="0 0 286 349" fill="none" xmlns="http://www.w3.org/2000/svg">
<path d="M167.312 347.386C167.309 347.443 167.307 347.501 167.304 347.556C167.296 347.754 167.284 347.951 167.266 348.146H121.506C121.478 347.666 121.461 347.186 121.456 346.711C121.381 340.604 122.653 334.673 123.423 328.678C124.683 318.908 124.616 308.871 124.543 298.916C124.491 291.788 124.438 284.658 124.386 277.531C137.596 268.229 148.141 272.151 161.176 282.004C159.154 292.709 160.921 304.159 163.069 314.809C165.217 325.456 167.775 336.271 167.312 347.386Z" fill="#43291F"/>
<path d="M283.042 280.488C276.115 287.836 266.392 281.223 257.255 271.626C256.265 270.588 255.207 269.569 254.08 268.631C252.443 267.268 250.023 268.808 250.568 270.871C251.923 276.006 253.218 282.761 252.213 285.374C247.001 298.931 234.705 288.814 228.533 282.439C227.223 281.084 224.946 281.924 224.79 283.799C224.713 284.734 224.6 285.669 224.458 286.597C222.42 299.874 205.991 305.162 196.698 295.462C195.016 293.707 193.523 291.769 192.276 289.704C191.226 287.972 188.578 288.512 188.254 290.512C187.666 294.119 186.602 297.649 185.089 300.974C182.806 306.001 176.804 308.144 171.844 305.721C169.731 304.688 167.811 303.268 166.234 301.523C164.692 299.816 163.424 297.873 162.437 295.708C161.562 293.786 158.747 294.103 158.312 296.168C157.729 298.938 156.947 301.653 155.817 304.253C155.792 304.313 155.764 304.373 155.739 304.433C151.632 313.71 138.824 314.843 133.179 306.411C130.441 302.319 128.089 297.983 126.119 293.446C125.261 291.471 122.376 291.801 121.971 293.916C121.391 296.933 120.499 299.858 118.984 302.528C116.041 307.718 110.046 311.683 104.234 310.338C99.5409 309.251 96.1089 304.983 94.6489 300.39C94.0639 298.548 93.7539 296.36 93.6059 294.093C93.4609 291.898 90.5309 291.273 89.4959 293.215C87.5489 296.87 85.2339 300.27 82.1459 303.008C76.6159 307.91 67.8489 310.003 61.7709 305.793C57.6439 302.933 55.5909 297.778 55.2889 292.765C55.2259 291.743 55.2139 290.663 55.2389 289.545C55.2889 287.36 52.4259 286.468 51.2339 288.298C49.8809 290.376 48.3359 292.323 46.6159 294.086C41.7939 299.026 34.5909 301.488 29.5809 296.736C25.0339 292.423 25.5209 285.016 27.5109 279.071C28.4589 276.248 29.8409 273.438 31.0059 270.598C32.0059 268.163 28.6239 266.375 27.1789 268.573C27.1589 268.606 27.1359 268.638 27.1139 268.673C22.7039 275.416 9.08586 287.89 1.20886 273.301C-0.259139 270.584 -0.38114 265.669 0.79386 262.826C6.53086 248.934 12.7589 240.191 20.2759 231.513C25.1789 225.853 30.6339 220.221 36.8589 213.2C52.6259 195.42 68.4259 176.008 72.0889 152.895L221.774 170.398C238.396 205.798 255.779 225.933 274.822 252.295C276.834 255.083 278.867 257.938 280.919 260.89C284.527 266.086 287.389 275.881 283.042 280.488Z" fill="#477B5D"/>
<path opacity="0.2" d="M283.042 280.488C276.115 287.836 266.392 281.223 257.255 271.626C256.265 270.588 255.207 269.569 254.08 268.631C252.443 267.268 250.023 268.808 250.568 270.871C251.923 276.006 253.218 282.761 252.213 285.374C247.001 298.931 234.705 288.814 228.533 282.439C227.223 281.084 224.946 281.924 224.79 283.799C224.713 284.734 224.6 285.669 224.458 286.597C222.42 299.874 205.991 305.162 196.698 295.462C195.016 293.707 193.523 291.769 192.276 289.704C191.226 287.972 188.578 288.512 188.254 290.512C187.666 294.119 186.602 297.649 185.089 300.974C182.806 306.001 176.804 308.144 171.844 305.721C169.731 304.688 167.811 303.268 166.234 301.523C164.692 299.816 163.424 297.873 162.437 295.708C161.562 293.786 158.747 294.103 158.312 296.168C157.729 298.938 156.947 301.653 155.817 304.253C155.792 304.313 155.764 304.373 155.739 304.433C151.632 313.71 138.824 314.843 133.179 306.411C130.441 302.319 128.089 297.983 126.119 293.446C125.261 291.471 122.376 291.801 121.971 293.916C121.391 296.933 120.499 299.858 118.984 302.528C116.041 307.718 110.046 311.683 104.234 310.338C99.5409 309.251 96.1089 304.983 94.6489 300.39C94.0639 298.548 93.7539 296.36 93.6059 294.093C93.4609 291.898 90.5309 291.273 89.4959 293.215C87.5489 296.87 85.2339 300.27 82.1459 303.008C76.6159 307.91 67.8489 310.003 61.7709 305.793C57.6439 302.933 55.5909 297.778 55.2889 292.765C55.2259 291.743 55.2139 290.663 55.2389 289.545C55.2889 287.36 52.4259 286.468 51.2339 288.298C49.8809 290.376 48.3359 292.323 46.6159 294.086C41.7939 299.026 34.5909 301.488 29.5809 296.736C25.0339 292.423 25.5209 285.016 27.5109 279.071C28.4589 276.248 29.8409 273.438 31.0059 270.598C32.0059 268.163 28.6239 266.375 27.1789 268.573C27.1589 268.606 27.1359 268.638 27.1139 268.673C22.7039 275.416 9.08586 287.89 1.20886 273.301C-0.259139 270.584 -0.38114 265.669 0.79386 262.826C6.53086 248.934 12.7589 240.191 20.2759 231.513C20.3159 234.673 20.9289 237.826 22.1209 240.753C25.0739 248 31.1289 253.45 36.9909 258.633C43.6509 264.52 50.8239 270.658 59.6089 272.033C66.5539 273.12 73.9909 271.106 80.5059 273.748C87.1989 276.463 92.0889 283.8 99.3109 283.858C107.896 283.926 114.356 273.403 122.834 274.778C130.486 276.018 134.479 286.423 142.229 286.723C152.184 287.108 155.344 271.313 165.039 269.025C173.901 266.933 181.711 277.452 190.754 276.38C198.499 275.46 202.606 266.832 209.144 262.58C215.584 258.39 223.842 258.77 231.527 258.79C241.994 258.815 252.465 257.89 262.764 256.027C266.872 255.285 271.179 254.244 274.822 252.294C276.834 255.082 278.867 257.937 280.919 260.889C284.527 266.086 287.389 275.881 283.042 280.488Z" fill="#28222F"/>
<path d="M262.312 214.241C255.044 226.686 244.107 215.189 240.679 209.096C239.009 206.129 237.554 204.069 235.902 202.116C234.259 200.178 231.107 201.643 231.53 204.146C231.837 205.971 232.12 207.881 232.28 210.513C232.8 219.053 235.572 231.018 228.355 236.053C222.028 240.466 213.473 232.121 210.733 228.618C208.258 225.46 205.795 222.258 203.771 218.8C202.698 216.968 199.971 217.228 199.261 219.23C197.011 225.577 194.761 231.925 192.509 238.275C191.019 242.478 188.294 248.62 181.484 244.92C181.307 244.823 181.142 244.703 180.994 244.568C175.524 239.513 171.822 231.903 168.349 224.87C167.411 222.975 164.691 223.025 163.826 224.955C160.944 231.373 158.061 237.79 155.179 244.208C153.954 246.931 152.421 249.711 150.217 251.771C149.014 252.896 147.517 253.771 145.882 253.969C139.59 254.734 133.252 246.576 130.022 242.119C127.522 238.667 125.42 234.964 123.422 231.206C122.35 229.191 119.36 229.551 118.795 231.761C118.772 231.843 118.752 231.926 118.73 232.011C118.095 234.506 117.1 236.881 115.857 239.133C113.205 243.933 109.63 249.261 105.1 252.448C97.1869 258.015 88.3148 252.388 85.4418 244.31C83.3448 238.415 83.4218 232.082 83.1598 225.867C83.0718 223.804 80.6719 222.742 79.0699 224.044C75.3769 227.049 71.8168 231.207 68.8618 234.339C64.8668 238.574 57.1819 241.804 52.1369 238.899C47.3619 236.152 47.5918 229.304 48.4468 223.861C49.6748 216.048 54.9248 207.789 57.2698 199.849C57.8618 197.849 55.8899 196.069 53.9449 196.822C51.1999 197.885 48.7248 199.879 46.5968 201.982C43.4298 205.112 40.5319 208.695 36.5399 210.662C32.5449 212.632 26.9569 212.357 24.4799 208.657C21.4319 204.105 23.8498 195.982 27.1168 191.584C31.4698 185.727 35.7098 180.319 39.8598 175.081C54.2268 156.954 67.5398 140.824 80.8668 114.834L207.775 105.816C209.865 126.209 222.343 143.874 234.865 160.106C241.413 168.596 246.922 174.901 251.693 181.916C256.045 188.313 259.778 195.303 263.118 205.083C263.982 207.626 263.667 211.923 262.312 214.241Z" fill="#477B5D"/>
<path opacity="0.2" d="M262.312 214.241C255.044 226.686 244.107 215.189 240.679 209.096C239.009 206.129 237.554 204.069 235.902 202.116C234.259 200.178 231.107 201.643 231.53 204.146C231.837 205.971 232.12 207.881 232.28 210.513C232.8 219.053 235.572 231.018 228.355 236.053C222.028 240.466 213.473 232.121 210.733 228.618C208.258 225.46 205.795 222.258 203.771 218.8C202.698 216.968 199.971 217.228 199.261 219.23C197.011 225.577 194.761 231.925 192.509 238.275C191.019 242.478 188.294 248.62 181.484 244.92C181.307 244.823 181.142 244.703 180.994 244.568C175.524 239.513 171.822 231.903 168.349 224.87C167.411 222.975 164.691 223.025 163.826 224.955C160.944 231.373 158.061 237.79 155.179 244.208C153.954 246.931 152.421 249.711 150.217 251.771C149.014 252.896 147.517 253.771 145.882 253.969C139.59 254.734 133.252 246.576 130.022 242.119C127.522 238.667 125.42 234.964 123.422 231.206C122.35 229.191 119.36 229.551 118.795 231.761C118.772 231.843 118.752 231.926 118.73 232.011C118.095 234.506 117.1 236.881 115.857 239.133C113.205 243.933 109.63 249.261 105.1 252.448C97.1869 258.015 88.3148 252.388 85.4418 244.31C83.3448 238.415 83.4218 232.082 83.1598 225.867C83.0718 223.804 80.6719 222.742 79.0699 224.044C75.3769 227.049 71.8168 231.207 68.8618 234.339C64.8668 238.574 57.1819 241.804 52.1369 238.899C47.3619 236.152 47.5918 229.304 48.4468 223.861C49.6748 216.048 54.9248 207.789 57.2698 199.849C57.8618 197.849 55.8899 196.069 53.9449 196.822C51.1999 197.885 48.7248 199.879 46.5968 201.982C43.4298 205.112 40.5319 208.695 36.5399 210.662C32.5449 212.632 26.9569 212.357 24.4799 208.657C21.4319 204.105 23.8498 195.982 27.1168 191.584C31.4698 185.727 35.7098 180.319 39.8598 175.081C40.1418 176.198 40.5368 177.289 41.0468 178.326C43.5818 183.476 48.8699 187.164 54.5769 187.764C59.2149 188.252 64.1648 186.874 68.4198 188.784C78.2918 193.216 76.0748 210.731 86.1248 214.744C93.5168 217.697 101.525 210.706 109.412 211.784C117.655 212.906 124.125 222.581 132.17 220.464C137.82 218.974 140.657 212.229 146.132 210.197C154.787 206.984 163.47 217.092 172.612 215.824C180.155 214.779 184.53 206.627 191.385 203.314C197.68 200.274 205.097 201.694 212.075 201.236C220.005 200.716 227.533 197.709 234.905 194.736C240.172 192.614 245.672 190.323 249.258 185.918C250.258 184.691 251.063 183.343 251.693 181.916C256.045 188.313 259.778 195.303 263.118 205.083C263.982 207.626 263.667 211.923 262.312 214.241Z" fill="#28222F"/>
<path d="M224.854 129.879C223.857 132.521 221.119 134.904 218.327 134.471C215.324 134.004 212.162 131.571 209.235 128.728C207.215 126.768 204 129.118 205.255 131.636C208.285 137.708 211.532 143.991 213.197 148.079C214.902 152.267 216.632 156.579 216.667 161.099C216.705 165.616 214.65 170.454 210.567 172.394C205.827 174.644 199.929 172.224 196.564 168.197C194.874 166.177 192.969 163.437 191.324 160.567C190.114 158.459 186.919 159.119 186.664 161.537C186.184 166.047 185.704 170.557 185.226 175.067C184.976 177.429 184.706 179.855 183.619 181.967C182.534 184.079 180.431 185.845 178.054 185.817C174.851 185.779 172.606 182.76 170.891 180.052C167.698 175.007 164.543 169.92 161.364 164.86C160.319 163.195 157.847 163.337 156.994 165.107C155.969 167.235 155.259 169.547 154.539 171.807C153.384 175.427 152.057 179.157 149.351 181.825C146.644 184.492 142.158 185.742 138.971 183.675C133.208 179.933 136.498 169.053 133.016 163.675C132.148 162.335 130.243 162.172 129.133 163.32C123.121 169.538 117.108 175.755 111.096 181.973C109.471 183.653 107.803 185.368 105.708 186.403C103.613 187.441 100.973 187.691 99.0028 186.433C95.6258 184.283 95.8978 179.353 96.5708 175.406C97.1278 172.141 97.4828 169.084 97.8758 165.983C98.1578 163.745 95.5708 162.313 93.8158 163.73C89.5008 167.218 85.0308 170.51 80.4208 173.6C76.8308 176.008 72.0828 178.317 68.4378 175.992C66.0178 174.447 65.0779 171.255 65.4109 168.402C65.7459 165.55 67.1208 162.94 68.4728 160.405C73.2728 151.405 76.9608 141.66 81.3108 132.36C82.4558 129.917 79.4428 127.628 77.4158 129.405C76.6928 130.04 75.9978 130.71 75.3258 131.382C72.6508 134.055 70.0378 136.962 66.5828 138.5C63.1278 140.038 58.5078 139.753 56.2258 136.74C54.3858 134.305 54.5958 130.795 55.9178 128.045C57.2408 125.295 59.4879 123.122 61.6459 120.965C65.0429 117.57 68.2329 114.113 71.2559 110.58C81.7909 98.26 90.2559 85.015 98.1329 70.232L181.528 65.837C190.568 77.347 202.591 93.527 212.855 106.957C215.513 110.434 218.05 113.725 220.39 116.704C223.394 120.529 226.572 125.331 224.854 129.879Z" fill="#477B5D"/>
<path opacity="0.2" d="M224.854 129.879C223.857 132.521 221.119 134.904 218.327 134.471C215.324 134.004 212.162 131.571 209.235 128.728C207.215 126.768 204 129.118 205.255 131.636C208.285 137.708 211.532 143.991 213.197 148.079C214.902 152.267 216.632 156.579 216.667 161.099C216.705 165.616 214.65 170.454 210.567 172.394C205.827 174.644 199.929 172.224 196.564 168.197C194.874 166.177 192.969 163.437 191.324 160.567C190.114 158.459 186.919 159.119 186.664 161.537C186.184 166.047 185.704 170.557 185.226 175.067C184.976 177.429 184.706 179.855 183.619 181.967C182.534 184.079 180.431 185.845 178.054 185.817C174.851 185.779 172.606 182.76 170.891 180.052C167.698 175.007 164.543 169.92 161.364 164.86C160.319 163.195 157.847 163.337 156.994 165.107C155.969 167.235 155.259 169.547 154.539 171.807C153.384 175.427 152.057 179.157 149.351 181.825C146.644 184.492 142.158 185.742 138.971 183.675C133.208 179.933 136.498 169.053 133.016 163.675C132.148 162.335 130.243 162.172 129.133 163.32C123.121 169.538 117.108 175.755 111.096 181.973C109.471 183.653 107.803 185.368 105.708 186.403C103.613 187.441 100.973 187.691 99.0028 186.433C95.6258 184.283 95.8978 179.353 96.5708 175.406C97.1278 172.141 97.4828 169.084 97.8758 165.983C98.1578 163.745 95.5708 162.313 93.8158 163.73C89.5008 167.218 85.0308 170.51 80.4208 173.6C76.8308 176.008 72.0828 178.317 68.4378 175.992C66.0178 174.447 65.0779 171.255 65.4109 168.402C65.7459 165.55 67.1208 162.94 68.4728 160.405C73.2728 151.405 76.9608 141.66 81.3108 132.36C82.4558 129.917 79.4428 127.628 77.4158 129.405C76.6928 130.04 75.9978 130.71 75.3258 131.382C72.6508 134.055 70.0378 136.962 66.5828 138.5C63.1278 140.038 58.5078 139.753 56.2258 136.74C54.3858 134.305 54.5958 130.795 55.9178 128.045C57.2408 125.295 59.4879 123.122 61.6459 120.965C65.0429 117.57 68.2329 114.113 71.2559 110.58C71.8609 112.725 73.2078 114.62 75.2478 115.595C79.3828 117.568 84.7928 116.022 88.4628 118.762C95.5428 124.052 88.4378 138.387 96.0229 142.925C102.298 146.678 110.476 138.357 117.216 141.193C122.378 143.363 123.498 150.835 128.563 153.218C135.901 156.67 143.151 146.9 151.261 146.891C158.361 146.881 164.919 154.416 171.481 151.698C176.584 149.588 178.204 142.251 183.506 140.708C186.951 139.705 190.893 141.578 194.146 140.065C196.791 138.835 198.046 135.75 198.409 132.857C198.771 129.964 198.496 126.985 199.222 124.16C200.294 119.982 203.402 116.665 206.517 113.68C208.74 111.553 211.07 109.43 212.857 106.958C215.515 110.435 218.052 113.726 220.392 116.705C223.394 120.529 226.572 125.331 224.854 129.879Z" fill="#28222F"/>
<path d="M205.637 81.978C199.932 85.648 194.827 80.835 188.9 76.863C186.892 75.518 184.337 77.53 185.165 79.798C187.2 85.383 189.528 92.176 190.4 96.148C190.88 98.326 191.158 100.963 189.49 102.446C187.61 104.119 184.642 103.119 182.485 101.818C177.69 98.928 173.368 94.688 170.23 89.826C168.955 87.853 165.91 88.573 165.65 90.909C165.297 94.064 164.945 97.222 164.59 100.376C164.355 102.496 164.102 104.668 162.843 106.478C162.193 107.413 161.275 108.151 160.183 108.46C157.178 109.31 154.54 106.658 152.888 104.103C151.318 101.678 150.006 99.126 148.973 96.475C148.103 94.24 144.905 94.363 144.238 96.668C143.563 98.995 142.728 101.275 141.738 103.486C140.445 106.366 138.39 109.474 135.243 109.724C132.12 109.971 129.6 107.266 127.918 104.626C125.44 100.741 123.403 96.571 122.13 92.198C121.458 89.885 118.218 89.783 117.388 92.043C116.003 95.818 114.615 99.591 113.23 103.363C112.34 105.79 111.403 108.295 108.843 109.648C108.703 109.723 108.553 109.783 108.4 109.826C104.673 110.861 102.785 107.616 101.743 104.736C99.3579 98.161 98.0929 91.023 98.5649 84.046C98.7129 81.879 96.2029 80.581 94.5079 81.939L82.1249 91.869C79.7529 93.774 77.0379 95.784 74.0099 95.494C69.4299 95.056 66.9879 89.309 68.1949 84.869C69.3999 80.429 72.9829 77.104 76.3479 73.967C78.3599 72.092 80.3499 70.192 82.3199 68.27C102.96 48.14 121.213 25.567 136.578 1.17001C137.543 -0.36299 139.768 -0.396989 140.77 1.11201C154.223 21.367 177.083 41.517 194.088 58.087C194.883 58.862 195.683 59.635 196.473 60.405C205.357 69.043 213.217 77.101 205.637 81.978Z" fill="#477B5D"/>
<path opacity="0.2" d="M205.637 81.978C199.932 85.648 194.827 80.835 188.9 76.863C186.892 75.518 184.337 77.53 185.165 79.798C187.2 85.383 189.528 92.176 190.4 96.148C190.88 98.326 191.158 100.963 189.49 102.446C187.61 104.119 184.642 103.119 182.485 101.818C177.69 98.928 173.368 94.688 170.23 89.826C168.955 87.853 165.91 88.573 165.65 90.909C165.297 94.064 164.945 97.222 164.59 100.376C164.355 102.496 164.102 104.668 162.843 106.478C162.193 107.413 161.275 108.151 160.183 108.46C157.178 109.31 154.54 106.658 152.888 104.103C151.318 101.678 150.006 99.126 148.973 96.475C148.103 94.24 144.905 94.363 144.238 96.668C143.563 98.995 142.728 101.275 141.738 103.486C140.445 106.366 138.39 109.474 135.243 109.724C132.12 109.971 129.6 107.266 127.918 104.626C125.44 100.741 123.403 96.571 122.13 92.198C121.458 89.885 118.218 89.783 117.388 92.043C116.003 95.818 114.615 99.591 113.23 103.363C112.34 105.79 111.403 108.295 108.843 109.648C108.703 109.723 108.553 109.783 108.4 109.826C104.673 110.861 102.785 107.616 101.743 104.736C99.3579 98.161 98.0929 91.023 98.5649 84.046C98.7129 81.879 96.2029 80.581 94.5079 81.939L82.1249 91.869C79.7529 93.774 77.0379 95.784 74.0099 95.494C69.4299 95.056 66.9879 89.309 68.1949 84.869C69.3999 80.429 72.9829 77.104 76.3479 73.967C78.3599 72.092 80.3499 70.192 82.3199 68.27C84.4349 69.038 86.7699 69.2 88.9529 68.642C93.7379 67.417 98.4729 63.084 102.9 65.277C107.36 67.487 107.15 74.569 111.365 77.215C114.563 79.223 118.755 77.742 122.063 75.925C125.37 74.107 128.92 71.897 132.628 72.602C137.853 73.595 141.078 80.03 146.398 80.127C152.455 80.237 155.571 72.264 161.39 70.582C166.46 69.117 171.94 72.882 177.023 71.459C182.121 70.032 184.64 64.049 189.45 61.839C191.633 60.836 194.075 60.709 196.473 60.404C205.357 69.043 213.217 77.101 205.637 81.978Z" fill="#28222F"/>
</svg>
